<?xml version="1.0" encoding="utf-8"?><!DOCTYPE svg PUBLIC "-//W3C//DTD SVG 1.1//EN" "http://www.w3.org/Graphics/SVG/1.1/DTD/svg11.dtd"><svg xmlns="http://www.w3.org/2000/svg" xmlns:xlink="http://www.w3.org/1999/xlink" id="preview" width="600" height="598" viewBox="0 0 600 598" xunitlength="95" yunitlength="43" xmin="0" xmax="5" ymin="-1" ymax="10" ox="35" oy="78"><defs><style type="text/css">@import url("http://cdnjs.cloudflare.com/ajax/libs/KaTeX/0.2.0/katex.min.css")</style></defs><path d=" M35,90 35,563 M130,90 130,563 M225,90 225,563 M320,90 320,563 M415,90 415,563 M510,90 510,563 M35,520 510,520 M35,563 510,563 M35,477 510,477 M35,434 510,434 M35,391 510,391 M35,348 510,348 M35,305 510,305 M35,262 510,262 M35,219 510,219 M35,176 510,176 M35,133 510,133 M35,90 510,90" stroke-width="1" stroke="grey" fill="none"></path><path d="M 524.352 512.824 L 545.880 520 L 524.352 527.176 L 527.94 520 z" stroke-width="1" stroke="black" fill="black"></path><path d="M 27.824 75.648 L 35 54.120 L 42.176 75.648 L 35 72.06 z" stroke-width="1" stroke="black" fill="black"></path><path d="M17.060,520 527.94,520 M35,72.06 35,580.94 M35,525 35,515 M130,525 130,515 M225,525 225,515 M320,525 320,515 M415,525 415,515 M510,525 510,515 M40,520 30,520 M40,563 30,563 M40,477 30,477 M40,434 30,434 M40,391 30,391 M40,348 30,348 M40,305 30,305 M40,262 30,262 M40,219 30,219 M40,176 30,176 M40,133 30,133 M40,90 30,90" stroke-width="2" stroke="black" fill="none"></path><text id="null" x="35" y="45.453" font-style="italic" font-family="KaTeX_Main, serif" font-size="20" font-weight="normal" text-anchor="middle" fill="black" stroke-width="0px">P$in ¥</text><text id="null" x="554.546" y="526.666" font-style="italic" font-family="KaTeX_Main, serif" font-size="20" font-weight="normal" text-anchor="start" fill="black" stroke-width="0px">#$</text><path id="null" d="M20.75,532.9 21.541,532.183 22.333,531.466 23.124,530.750 23.916,530.033 24.708,529.316 25.499,528.600 26.291,527.883 27.083,527.166 27.874,526.450 28.666,525.733 29.458,525.016 30.249,524.300 31.041,523.583 31.833,522.866 32.624,522.150 33.416,521.433 34.208,520.716 34.999,520.000 35.791,519.283 36.583,518.566 37.374,517.850 38.166,517.133 38.958,516.416 39.749,515.700 40.541,514.983 41.333,514.266 42.124,513.550 42.916,512.833 43.708,512.116 44.499,511.400 45.291,510.683 46.083,509.966 46.874,509.250 47.666,508.533 48.458,507.816 49.249,507.100 50.041,506.383 50.833,505.666 51.624,504.950 52.416,504.233 53.208,503.516 53.999,502.800 54.791,502.083 55.583,501.366 56.374,500.650 57.166,499.933 57.958,499.216 58.749,498.500 59.541,497.783 60.333,497.066 61.124,496.350 61.916,495.633 62.708,494.916 63.499,494.200 64.291,493.483 65.083,492.766 65.874,492.050 66.666,491.333 67.458,490.616 68.249,489.900 69.041,489.183 69.833,488.466 70.624,487.750 71.416,487.033 72.208,486.316 72.999,485.600 73.791,484.883 74.583,484.166 75.374,483.450 76.166,482.733 76.958,482.016 77.749,481.300 78.541,480.583 79.333,479.866 80.124,479.150 80.916,478.433 81.708,477.716 82.499,477.000 83.291,476.283 84.083,475.566 84.874,474.850 85.666,474.133 86.458,473.416 87.249,472.700 88.041,471.983 88.833,471.266 89.624,470.550 90.416,469.833 91.208,469.116 91.999,468.400 92.791,467.683 93.583,466.966 94.374,466.250 95.166,465.533 95.958,464.816 96.749,464.100 97.541,463.383 98.333,462.666 99.124,461.950 99.916,461.233 100.708,460.516 101.499,459.800 102.291,459.083 103.083,458.366 103.874,457.650 104.666,456.933 105.458,456.216 106.249,455.500 107.041,454.783 107.833,454.066 108.624,453.350 109.416,452.633 110.208,451.916 110.999,451.200 111.791,450.483 112.583,449.766 113.374,449.050 114.166,448.333 114.958,447.616 115.749,446.900 116.541,446.183 117.333,445.466 118.124,444.750 118.916,444.033 119.708,443.316 120.499,442.600 121.291,441.883 122.083,441.166 122.874,440.450 123.666,439.733 124.458,439.016 125.249,438.300 126.041,437.583 126.833,436.866 127.624,436.150 128.416,435.433 129.208,434.716 129.999,434.000 130.791,433.283 131.583,432.566 132.374,431.850 133.166,431.133 133.958,430.416 134.749,429.700 135.541,428.983 136.333,428.266 137.124,427.550 137.916,426.833 138.708,426.116 139.499,425.400 140.291,424.683 141.083,423.966 141.874,423.250 142.666,422.533 143.458,421.816 144.249,421.100 145.041,420.383 145.833,419.666 146.624,418.950 147.416,418.233 148.208,417.516 148.999,416.800 149.791,416.083 150.583,415.366 151.374,414.650 152.166,413.933 152.958,413.216 153.749,412.500 154.541,411.783 155.333,411.066 156.124,410.350 156.916,409.633 157.708,408.916 158.499,408.200 159.291,407.483 160.083,406.766 160.874,406.050 161.666,405.333 162.458,404.616 163.249,403.900 164.041,403.183 164.833,402.466 165.624,401.750 166.416,401.033 167.208,400.316 167.999,399.600 168.791,398.883 169.583,398.166 170.374,397.450 171.166,396.733 171.958,396.016 172.749,395.300 173.541,394.583 174.333,393.866 175.124,393.150 175.916,392.433 176.708,391.716 177.499,391.000 178.291,390.283 179.083,389.566 179.874,388.850 180.666,388.133 181.458,387.416 182.249,386.700 183.041,385.983 183.833,385.266 184.624,384.550 185.416,383.833 186.208,383.116 186.999,382.400 187.791,381.683 188.583,380.966 189.374,380.250 190.166,379.533 190.958,378.816 191.749,378.100 192.541,377.383 193.333,376.666 194.124,375.950 194.916,375.233 195.708,374.516 196.499,373.800 197.291,373.083 198.083,372.366 198.874,371.650 199.666,370.933 200.458,370.216 201.249,369.500 202.041,368.783 202.833,368.066 203.624,367.350 204.416,366.633 205.208,365.916 205.999,365.200 206.791,364.483 207.583,363.766 208.374,363.050 209.166,362.333 209.958,361.616 210.749,360.900 211.541,360.183 212.333,359.466 213.124,358.750 213.916,358.033 214.708,357.316 215.499,356.600 216.291,355.883 217.083,355.166 217.874,354.450 218.666,353.733 219.458,353.016 220.249,352.300 221.041,351.583 221.833,350.866 222.624,350.150 223.416,349.433 224.208,348.716 224.999,348.000 225.791,347.283 226.583,346.566 227.374,345.850 228.166,345.133 228.958,344.416 229.749,343.700 230.541,342.983 231.333,342.266 232.124,341.550 232.916,340.833 233.708,340.116 234.499,339.400 235.291,338.683 236.083,337.966 236.874,337.250 237.666,336.533 238.458,335.816 239.249,335.100 240.041,334.383 240.833,333.666 241.624,332.950 242.416,332.233 243.208,331.516 243.999,330.800 244.791,330.083 245.583,329.366 246.374,328.650 247.166,327.933 247.958,327.216 248.749,326.500 249.541,325.783 250.333,325.066 251.124,324.350 251.916,323.633 252.708,322.916 253.499,322.200 254.291,321.483 255.083,320.766 255.874,320.050 256.666,319.333 257.458,318.616 258.249,317.900 259.041,317.183 259.833,316.466 260.624,315.750 261.416,315.033 262.208,314.316 262.999,313.600 263.791,312.883 264.583,312.166 265.374,311.450 266.166,310.733 266.958,310.016 267.749,309.300 268.541,308.583 269.333,307.866 270.124,307.150 270.916,306.433 271.708,305.716 272.499,305.000 273.291,304.283 274.083,303.566 274.874,302.850 275.666,302.133 276.458,301.416 277.249,300.700 278.041,299.983 278.833,299.266 279.624,298.550 280.416,297.833 281.208,297.116 281.999,296.400 282.791,295.683 283.583,294.966 284.374,294.250 285.166,293.533 285.958,292.816 286.749,292.100 287.541,291.383 288.333,290.666 289.124,289.950 289.916,289.233 290.708,288.516 291.499,287.800 292.291,287.083 293.083,286.366 293.874,285.650 294.666,284.933 295.458,284.216 296.249,283.500 297.041,282.783 297.833,282.066 298.624,281.350 299.416,280.633 300.208,279.916 300.999,279.200 301.791,278.483 302.583,277.766 303.374,277.050 304.166,276.333 304.958,275.616 305.749,274.900 306.541,274.183 307.333,273.466 308.124,272.750 308.916,272.033 309.708,271.316 310.499,270.600 311.291,269.883 312.083,269.166 312.874,268.450 313.666,267.733 314.458,267.016 315.249,266.300 316.041,265.583 316.833,264.866 317.624,264.150 318.416,263.433 319.208,262.716 319.999,262.000 320.791,261.283 321.583,260.566 322.374,259.850 323.166,259.133 323.958,258.416 324.749,257.700 325.541,256.983 326.333,256.266 327.124,255.550 327.916,254.833 328.708,254.116 329.499,253.400 330.291,252.683 331.083,251.966 331.874,251.250 332.666,250.533 333.458,249.816 334.249,249.100 335.041,248.383 335.833,247.666 336.624,246.950 337.416,246.233 338.208,245.516 338.999,244.800 339.791,244.083 340.583,243.366 341.374,242.650 342.166,241.933 342.958,241.216 343.749,240.500 344.541,239.783 345.333,239.066 346.124,238.350 346.916,237.633 347.708,236.916 348.499,236.200 349.291,235.483 350.083,234.766 350.874,234.050 351.666,233.333 352.458,232.616 353.249,231.900 354.041,231.183 354.832,230.466 355.624,229.750 356.416,229.033 357.207,228.316 357.999,227.600 358.791,226.883 359.582,226.166 360.374,225.450 361.166,224.733 361.957,224.016 362.749,223.300 363.541,222.583 364.332,221.866 365.124,221.150 365.916,220.433 366.707,219.716 367.499,219.000 368.291,218.283 369.082,217.566 369.874,216.850 370.666,216.133 371.457,215.416 372.249,214.700 373.041,213.983 373.832,213.266 374.624,212.550 375.416,211.833 376.207,211.116 376.999,210.400 377.791,209.683 378.582,208.966 379.374,208.250 380.166,207.533 380.957,206.816 381.749,206.100 382.541,205.383 383.332,204.666 384.124,203.950 384.916,203.233 385.707,202.516 386.499,201.800 387.291,201.083 388.082,200.366 388.874,199.650 389.666,198.933 390.457,198.217 391.249,197.500 392.041,196.783 392.832,196.067 393.624,195.350 394.416,194.633 395.207,193.917 395.999,193.200 396.791,192.483 397.582,191.767 398.374,191.050 399.166,190.333 399.957,189.617 400.749,188.900 401.541,188.183 402.332,187.467 403.124,186.750 403.916,186.033 404.707,185.317 405.499,184.600 406.291,183.883 407.082,183.167 407.874,182.450 408.666,181.733 409.457,181.017 410.249,180.300 411.041,179.583 411.832,178.867 412.624,178.150 413.416,177.433 414.207,176.717 414.999,176.000 415.791,175.283 416.582,174.567 417.374,173.850 418.166,173.133 418.957,172.417 419.749,171.700 420.541,170.983 421.332,170.267 422.124,169.550 422.916,168.833 423.707,168.117 424.499,167.400 425.291,166.683 426.082,165.967 426.874,165.250 427.666,164.533 428.457,163.817 429.249,163.100 430.041,162.383 430.832,161.667 431.624,160.950 432.416,160.233 433.207,159.517 433.999,158.800 434.791,158.083 435.582,157.367 436.374,156.650 437.166,155.933 437.957,155.217 438.749,154.500 439.541,153.783 440.332,153.067 441.124,152.350 441.916,151.633 442.707,150.917 443.499,150.200 444.291,149.483 445.082,148.767 445.874,148.050 446.666,147.333 447.457,146.617 448.249,145.900 449.041,145.183 449.832,144.467 450.624,143.750 451.416,143.033 452.207,142.317 452.999,141.600 453.791,140.883 454.582,140.167 455.374,139.450 456.166,138.733 456.957,138.017 457.749,137.300 458.541,136.583 459.332,135.867 460.124,135.150 460.916,134.433 461.707,133.717 462.499,133.000 463.291,132.283 464.082,131.567 464.874,130.850 465.666,130.133 466.457,129.417 467.249,128.700 468.041,127.983 468.832,127.267 469.624,126.550 470.416,125.833 471.207,125.117 471.999,124.400 472.791,123.683 473.582,122.967 474.374,122.250 475.166,121.533 475.957,120.817 476.749,120.100 477.541,119.383 478.332,118.667 479.124,117.950 479.916,117.233 480.707,116.517 481.499,115.800 482.291,115.083 483.082,114.367 483.874,113.650 484.666,112.933 485.457,112.217 486.249,111.500 487.041,110.783 487.832,110.067 488.624,109.350 489.416,108.633 490.207,107.917 490.999,107.200 491.791,106.483 492.582,105.767 493.374,105.050 494.166,104.333 494.957,103.617 495.749,102.900 496.541,102.183 497.332,101.467 498.124,100.750 498.916,100.033 499.707,99.317 500.499,98.600 501.291,97.883 502.082,97.167 502.874,96.450 503.666,95.733 504.457,95.017 505.249,94.300 506.041,93.583 506.832,92.867 507.624,92.150 508.416,91.433 509.207,90.717 509.999,90.000 " stroke-width="5" stroke="black" fill="none"></path><path d="M 502.523 87.088 L 523.299 77.960 L 512.155 97.728 L 509.999 90.000 z" stroke-width="1" stroke="black" fill="black"></path><circle id="undefined" cx="20.75" cy="532.9" r="7.6" stroke-width="5" stroke="black" fill="black"></circle><path id="null" d="M20.75,120.099 21.541,120.816 22.333,121.533 23.124,122.249 23.916,122.966 24.708,123.683 25.499,124.399 26.291,125.116 27.083,125.833 27.874,126.549 28.666,127.266 29.458,127.983 30.249,128.699 31.041,129.416 31.833,130.133 32.624,130.849 33.416,131.566 34.208,132.283 34.999,132.999 35.791,133.716 36.583,134.433 37.374,135.149 38.166,135.866 38.958,136.583 39.749,137.299 40.541,138.016 41.333,138.733 42.124,139.449 42.916,140.166 43.708,140.883 44.499,141.599 45.291,142.316 46.083,143.033 46.874,143.749 47.666,144.466 48.458,145.183 49.249,145.899 50.041,146.616 50.833,147.333 51.624,148.049 52.416,148.766 53.208,149.483 53.999,150.199 54.791,150.916 55.583,151.633 56.374,152.349 57.166,153.066 57.958,153.783 58.749,154.499 59.541,155.216 60.333,155.933 61.124,156.649 61.916,157.366 62.708,158.083 63.499,158.799 64.291,159.516 65.083,160.233 65.874,160.949 66.666,161.666 67.458,162.383 68.249,163.099 69.041,163.816 69.833,164.533 70.624,165.249 71.416,165.966 72.208,166.683 72.999,167.399 73.791,168.116 74.583,168.833 75.374,169.549 76.166,170.266 76.958,170.983 77.749,171.699 78.541,172.416 79.333,173.133 80.124,173.849 80.916,174.566 81.708,175.283 82.499,175.999 83.291,176.716 84.083,177.433 84.874,178.149 85.666,178.866 86.458,179.583 87.249,180.299 88.041,181.016 88.833,181.733 89.624,182.449 90.416,183.166 91.208,183.883 91.999,184.599 92.791,185.316 93.583,186.033 94.374,186.749 95.166,187.466 95.958,188.183 96.749,188.899 97.541,189.616 98.333,190.333 99.124,191.049 99.916,191.766 100.708,192.483 101.499,193.199 102.291,193.916 103.083,194.633 103.874,195.349 104.666,196.066 105.458,196.783 106.249,197.499 107.041,198.216 107.833,198.933 108.624,199.649 109.416,200.366 110.208,201.083 110.999,201.799 111.791,202.516 112.583,203.233 113.374,203.949 114.166,204.666 114.958,205.383 115.749,206.099 116.541,206.816 117.333,207.533 118.124,208.249 118.916,208.966 119.708,209.683 120.499,210.399 121.291,211.116 122.083,211.833 122.874,212.549 123.666,213.266 124.458,213.983 125.249,214.699 126.041,215.416 126.833,216.133 127.624,216.849 128.416,217.566 129.208,218.283 129.999,218.999 130.791,219.716 131.583,220.433 132.374,221.149 133.166,221.866 133.958,222.583 134.749,223.299 135.541,224.016 136.333,224.733 137.124,225.449 137.916,226.166 138.708,226.883 139.499,227.599 140.291,228.316 141.083,229.033 141.874,229.749 142.666,230.466 143.458,231.183 144.249,231.899 145.041,232.616 145.833,233.333 146.624,234.049 147.416,234.766 148.208,235.483 148.999,236.199 149.791,236.916 150.583,237.633 151.374,238.349 152.166,239.066 152.958,239.783 153.749,240.499 154.541,241.216 155.333,241.933 156.124,242.649 156.916,243.366 157.708,244.083 158.499,244.799 159.291,245.516 160.083,246.233 160.874,246.949 161.666,247.666 162.458,248.383 163.249,249.099 164.041,249.816 164.833,250.533 165.624,251.249 166.416,251.966 167.208,252.683 167.999,253.399 168.791,254.116 169.583,254.833 170.374,255.549 171.166,256.266 171.958,256.983 172.749,257.699 173.541,258.416 174.333,259.133 175.124,259.849 175.916,260.566 176.708,261.283 177.499,261.999 178.291,262.716 179.083,263.433 179.874,264.149 180.666,264.866 181.458,265.583 182.249,266.299 183.041,267.016 183.833,267.733 184.624,268.449 185.416,269.166 186.208,269.883 186.999,270.599 187.791,271.316 188.583,272.033 189.374,272.749 190.166,273.466 190.958,274.183 191.749,274.899 192.541,275.616 193.333,276.333 194.124,277.049 194.916,277.766 195.708,278.483 196.499,279.199 197.291,279.916 198.083,280.633 198.874,281.349 199.666,282.066 200.458,282.783 201.249,283.499 202.041,284.216 202.833,284.933 203.624,285.649 204.416,286.366 205.208,287.083 205.999,287.799 206.791,288.516 207.583,289.233 208.374,289.949 209.166,290.666 209.958,291.383 210.749,292.099 211.541,292.816 212.333,293.533 213.124,294.249 213.916,294.966 214.708,295.683 215.499,296.399 216.291,297.116 217.083,297.833 217.874,298.549 218.666,299.266 219.458,299.983 220.249,300.699 221.041,301.416 221.833,302.133 222.624,302.849 223.416,303.566 224.208,304.283 224.999,304.999 225.791,305.716 226.583,306.433 227.374,307.149 228.166,307.866 228.958,308.583 229.749,309.299 230.541,310.016 231.333,310.733 232.124,311.449 232.916,312.166 233.708,312.883 234.499,313.599 235.291,314.316 236.083,315.033 236.874,315.749 237.666,316.466 238.458,317.183 239.249,317.899 240.041,318.616 240.833,319.333 241.624,320.049 242.416,320.766 243.208,321.483 243.999,322.199 244.791,322.916 245.583,323.633 246.374,324.349 247.166,325.066 247.958,325.783 248.749,326.499 249.541,327.216 250.333,327.933 251.124,328.649 251.916,329.366 252.708,330.083 253.499,330.799 254.291,331.516 255.083,332.233 255.874,332.949 256.666,333.666 257.458,334.383 258.249,335.099 259.041,335.816 259.833,336.533 260.624,337.249 261.416,337.966 262.208,338.683 262.999,339.399 263.791,340.116 264.583,340.833 265.374,341.549 266.166,342.266 266.958,342.983 267.749,343.699 268.541,344.416 269.333,345.133 270.124,345.849 270.916,346.566 271.708,347.283 272.499,347.999 273.291,348.716 274.083,349.433 274.874,350.149 275.666,350.866 276.458,351.583 277.249,352.299 278.041,353.016 278.833,353.733 279.624,354.449 280.416,355.166 281.208,355.883 281.999,356.599 282.791,357.316 283.583,358.033 284.374,358.749 285.166,359.466 285.958,360.183 286.749,360.899 287.541,361.616 288.333,362.333 289.124,363.049 289.916,363.766 290.708,364.483 291.499,365.199 292.291,365.916 293.083,366.633 293.874,367.349 294.666,368.066 295.458,368.783 296.249,369.499 297.041,370.216 297.833,370.933 298.624,371.649 299.416,372.366 300.208,373.083 300.999,373.799 301.791,374.516 302.583,375.233 303.374,375.949 304.166,376.666 304.958,377.383 305.749,378.099 306.541,378.816 307.333,379.533 308.124,380.249 308.916,380.966 309.708,381.683 310.499,382.399 311.291,383.116 312.083,383.833 312.874,384.549 313.666,385.266 314.458,385.983 315.249,386.699 316.041,387.416 316.833,388.133 317.624,388.849 318.416,389.566 319.208,390.283 319.999,390.999 320.791,391.716 321.583,392.433 322.374,393.149 323.166,393.866 323.958,394.583 324.749,395.299 325.541,396.016 326.333,396.733 327.124,397.449 327.916,398.166 328.708,398.883 329.499,399.599 330.291,400.316 331.083,401.033 331.874,401.749 332.666,402.466 333.458,403.183 334.249,403.899 335.041,404.616 335.833,405.333 336.624,406.049 337.416,406.766 338.208,407.483 338.999,408.199 339.791,408.916 340.583,409.633 341.374,410.349 342.166,411.066 342.958,411.783 343.749,412.499 344.541,413.216 345.333,413.933 346.124,414.649 346.916,415.366 347.708,416.083 348.499,416.799 349.291,417.516 350.083,418.233 350.874,418.949 351.666,419.666 352.458,420.383 353.249,421.099 354.041,421.816 354.832,422.533 355.624,423.249 356.416,423.966 357.207,424.683 357.999,425.399 358.791,426.116 359.582,426.833 360.374,427.549 361.166,428.266 361.957,428.983 362.749,429.699 363.541,430.416 364.332,431.133 365.124,431.849 365.916,432.566 366.707,433.283 367.499,433.999 368.291,434.716 369.082,435.433 369.874,436.149 370.666,436.866 371.457,437.583 372.249,438.299 373.041,439.016 373.832,439.733 374.624,440.449 375.416,441.166 376.207,441.883 376.999,442.599 377.791,443.316 378.582,444.033 379.374,444.749 380.166,445.466 380.957,446.183 381.749,446.899 382.541,447.616 383.332,448.333 384.124,449.049 384.916,449.766 385.707,450.483 386.499,451.199 387.291,451.916 388.082,452.633 388.874,453.349 389.666,454.066 390.457,454.782 391.249,455.499 392.041,456.216 392.832,456.932 393.624,457.649 394.416,458.366 395.207,459.082 395.999,459.799 396.791,460.516 397.582,461.232 398.374,461.949 399.166,462.666 399.957,463.382 400.749,464.099 401.541,464.816 402.332,465.532 403.124,466.249 403.916,466.966 404.707,467.682 405.499,468.399 406.291,469.116 407.082,469.832 407.874,470.549 408.666,471.266 409.457,471.982 410.249,472.699 411.041,473.416 411.832,474.132 412.624,474.849 413.416,475.566 414.207,476.282 414.999,476.999 415.791,477.716 416.582,478.432 417.374,479.149 418.166,479.866 418.957,480.582 419.749,481.299 420.541,482.016 421.332,482.732 422.124,483.449 422.916,484.166 423.707,484.882 424.499,485.599 425.291,486.316 426.082,487.032 426.874,487.749 427.666,488.466 428.457,489.182 429.249,489.899 430.041,490.616 430.832,491.332 431.624,492.049 432.416,492.766 433.207,493.482 433.999,494.199 434.791,494.916 435.582,495.632 436.374,496.349 437.166,497.066 437.957,497.782 438.749,498.499 439.541,499.216 440.332,499.932 441.124,500.649 441.916,501.366 442.707,502.082 443.499,502.799 444.291,503.516 445.082,504.232 445.874,504.949 446.666,505.666 447.457,506.382 448.249,507.099 449.041,507.816 449.832,508.532 450.624,509.249 451.416,509.966 452.207,510.682 452.999,511.399 453.791,512.116 454.582,512.832 455.374,513.549 456.166,514.266 456.957,514.982 457.749,515.699 458.541,516.416 459.332,517.132 460.124,517.849 460.916,518.566 461.707,519.282 462.499,519.999 463.291,520.716 464.082,521.432 464.874,522.149 465.666,522.866 466.457,523.582 467.249,524.299 468.041,525.016 468.832,525.732 469.624,526.449 470.416,527.166 471.207,527.882 471.999,528.599 472.791,529.316 473.582,530.032 474.374,530.749 475.166,531.466 475.957,532.182 476.749,532.899 477.541,533.616 478.332,534.332 479.124,535.049 479.916,535.766 480.707,536.482 481.499,537.199 482.291,537.916 483.082,538.632 483.874,539.349 484.666,540.066 485.457,540.782 486.249,541.499 487.041,542.216 487.832,542.932 488.624,543.649 489.416,544.366 490.207,545.082 490.999,545.799 491.791,546.516 492.582,547.232 493.374,547.949 494.166,548.666 494.957,549.382 495.749,550.099 496.541,550.816 497.332,551.532 498.124,552.249 498.916,552.966 499.707,553.682 500.499,554.399 501.291,555.116 502.082,555.832 502.874,556.549 503.666,557.266 504.457,557.982 505.249,558.699 506.041,559.416 506.832,560.132 507.624,560.849 508.416,561.566 509.207,562.282 509.999,562.999 " stroke-width="5" stroke="black" fill="none"></path><path d="M 512.155 555.271 L 523.299 575.039 L 502.523 565.911 L 509.999 562.999 z" stroke-width="1" stroke="black" fill="black"></path><circle id="undefined" cx="20.75" cy="120.099" r="7.6" stroke-width="5" stroke="black" fill="black"></circle></svg>