<?xml version="1.0" encoding="utf-8"?><!DOCTYPE svg PUBLIC "-//W3C//DTD SVG 1.1//EN" "http://www.w3.org/Graphics/SVG/1.1/DTD/svg11.dtd"><svg xmlns="http://www.w3.org/2000/svg" xmlns:xlink="http://www.w3.org/1999/xlink" id="preview" width="600" height="600" viewBox="0 0 600 600" xunitlength="94" yunitlength="47" xmin="0" xmax="5" ymin="0" ymax="10" ox="40" oy="40"><defs><style type="text/css">@import url("http://cdnjs.cloudflare.com/ajax/libs/KaTeX/0.2.0/katex.min.css")</style></defs><path d=" M40,90 40,560 M134,90 134,560 M228,90 228,560 M322,90 322,560 M416,90 416,560 M510,90 510,560 M40,560 510,560 M40,513 510,513 M40,466 510,466 M40,419 510,419 M40,372 510,372 M40,325 510,325 M40,278 510,278 M40,231 510,231 M40,184 510,184 M40,137 510,137 M40,90 510,90" stroke-width="1" stroke="grey" fill="none"></path><path d="M 524.4 552.8 L 546 560 L 524.4 567.2 L 528 560 z" stroke-width="1" stroke="black" fill="black"></path><path d="M 32.8 75.6 L 40 54 L 47.2 75.6 L 40 72 z" stroke-width="1" stroke="black" fill="black"></path><path d="M22,560 528,560 M40,72 40,578 M40,567.25 40,552.75 M134,567.25 134,552.75 M228,567.25 228,552.75 M322,567.25 322,552.75 M416,567.25 416,552.75 M510,567.25 510,552.75 M47.25,560 32.75,560 M47.25,513 32.75,513 M47.25,466 32.75,466 M47.25,419 32.75,419 M47.25,372 32.75,372 M47.25,325 32.75,325 M47.25,278 32.75,278 M47.25,231 32.75,231 M47.25,184 32.75,184 M47.25,137 32.75,137 M47.25,90 32.75,90" stroke-width="2" stroke="black" fill="none"></path><text id="null" x="40" y="42.333" font-style="italic" font-family="KaTeX_Main, serif" font-size="29" font-weight="normal" text-anchor="middle" fill="black" stroke-width="0px">G2</text><text id="null" x="557.666" y="569.666" font-style="italic" font-family="KaTeX_Main, serif" font-size="29" font-weight="normal" text-anchor="start" fill="black" stroke-width="0px">G1</text><path id="null" d="M509.478,571.070 509.534,570.455 509.587,569.840 509.637,569.226 509.684,568.611 509.727,567.996 509.768,567.381 509.805,566.766 509.838,566.151 509.869,565.536 509.896,564.921 509.921,564.306 509.942,563.691 509.959,563.076 509.974,562.460 509.985,561.845 509.993,561.230 509.998,560.615 509.999,560.000 509.998,559.384 509.993,558.769 509.985,558.154 509.974,557.539 509.959,556.923 509.942,556.308 509.921,555.693 509.896,555.078 509.869,554.463 509.838,553.848 509.805,553.233 509.768,552.618 509.727,552.003 509.684,551.388 509.637,550.773 509.587,550.159 509.534,549.544 509.478,548.930 509.418,548.315 509.355,547.701 509.289,547.086 509.220,546.472 509.148,545.858 509.072,545.244 508.993,544.630 508.911,544.016 508.826,543.402 508.737,542.789 508.646,542.175 508.551,541.562 508.453,540.948 508.351,540.335 508.247,539.722 508.139,539.109 508.028,538.497 507.914,537.884 507.796,537.272 507.676,536.659 507.552,536.047 507.425,535.435 507.295,534.824 507.161,534.212 507.025,533.601 506.885,532.989 506.742,532.378 506.595,531.767 506.446,531.157 506.293,530.546 506.138,529.936 505.979,529.326 505.816,528.716 505.651,528.106 505.482,527.497 505.311,526.888 505.136,526.279 504.958,525.670 504.776,525.062 504.592,524.453 504.404,523.845 504.213,523.237 504.019,522.630 503.822,522.023 503.621,521.416 503.418,520.809 503.211,520.202 503.001,519.596 502.788,518.990 502.571,518.385 502.352,517.779 502.129,517.174 501.904,516.569 501.675,515.965 501.442,515.361 501.207,514.757 500.969,514.153 500.727,513.550 500.482,512.947 500.234,512.345 499.983,511.742 499.729,511.140 499.471,510.539 499.211,509.937 498.947,509.336 498.680,508.736 498.410,508.136 498.137,507.536 497.861,506.936 497.582,506.337 497.299,505.738 497.013,505.140 496.725,504.542 496.433,503.944 496.138,503.347 495.839,502.750 495.538,502.154 495.234,501.557 494.926,500.962 494.615,500.366 494.302,499.772 493.985,499.177 493.665,498.583 493.342,497.989 493.015,497.396 492.686,496.803 492.354,496.211 492.018,495.619 491.679,495.028 491.338,494.437 490.993,493.846 490.645,493.256 490.294,492.666 489.940,492.077 489.583,491.488 489.222,490.900 488.859,490.312 488.493,489.725 488.123,489.138 487.750,488.552 487.375,487.966 486.996,487.381 486.614,486.796 486.230,486.211 485.842,485.627 485.451,485.044 485.057,484.461 484.660,483.879 484.260,483.297 483.856,482.716 483.450,482.135 483.041,481.555 482.629,480.975 482.214,480.396 481.795,479.818 481.374,479.240 480.949,478.662 480.522,478.085 480.092,477.509 479.658,476.933 479.222,476.358 478.782,475.783 478.340,475.209 477.894,474.636 477.446,474.063 476.995,473.490 476.540,472.919 476.083,472.347 475.622,471.777 475.159,471.207 474.692,470.638 474.223,470.069 473.751,469.501 473.275,468.933 472.797,468.367 472.316,467.800 471.831,467.235 471.344,466.670 470.854,466.106 470.361,465.542 469.865,464.979 469.366,464.416 468.864,463.855 468.359,463.294 467.851,462.733 467.341,462.174 466.827,461.615 466.310,461.056 465.791,460.498 465.268,459.941 464.743,459.385 464.215,458.829 463.684,458.275 463.149,457.720 462.612,457.167 462.073,456.614 461.530,456.062 460.984,455.510 460.436,454.960 459.884,454.410 459.330,453.860 458.773,453.312 458.213,452.764 457.650,452.217 457.084,451.671 456.515,451.125 455.944,450.580 455.369,450.036 454.792,449.493 454.212,448.950 453.629,448.408 453.044,447.867 452.455,447.327 451.864,446.787 451.270,446.249 450.673,445.711 450.073,445.174 449.470,444.637 448.865,444.102 448.256,443.567 447.645,443.033 447.032,442.500 446.415,441.967 445.796,441.436 445.173,440.905 444.548,440.375 443.921,439.846 443.290,439.317 442.657,438.790 442.021,438.263 441.382,437.737 440.741,437.212 440.096,436.688 439.449,436.165 438.799,435.643 438.147,435.121 437.492,434.600 436.834,434.080 436.173,433.561 435.510,433.043 434.844,432.526 434.175,432.009 433.503,431.494 432.829,430.979 432.152,430.465 431.473,429.953 430.790,429.441 430.105,428.930 429.418,428.419 428.728,427.910 428.035,427.402 427.339,426.894 426.641,426.388 425.940,425.882 425.236,425.377 424.530,424.873 423.821,424.371 423.110,423.869 422.396,423.368 421.679,422.867 420.960,422.368 420.238,421.870 419.513,421.373 418.786,420.877 418.056,420.381 417.324,419.887 416.589,419.393 415.851,418.901 415.111,418.409 414.369,417.919 413.624,417.429 412.876,416.941 412.125,416.453 411.373,415.966 410.617,415.481 409.859,414.996 409.099,414.513 408.336,414.030 407.570,413.548 406.802,413.068 406.031,412.588 405.258,412.109 404.483,411.632 403.705,411.155 402.924,410.680 402.141,410.205 401.355,409.731 400.567,409.259 399.777,408.788 398.984,408.317 398.188,407.848 397.391,407.379 396.590,406.912 395.787,406.446 394.982,405.981 394.175,405.516 393.364,405.053 392.552,404.591 391.737,404.130 390.920,403.671 390.100,403.212 389.278,402.754 388.453,402.297 387.626,401.842 386.797,401.387 385.965,400.934 385.131,400.481 384.295,400.030 383.456,399.580 382.615,399.131 381.772,398.683 380.926,398.236 380.078,397.791 379.227,397.346 378.374,396.903 377.519,396.460 376.662,396.019 375.802,395.579 374.940,395.140 374.076,394.702 373.209,394.265 372.340,393.830 371.469,393.395 370.595,392.962 369.720,392.530 368.842,392.099 367.961,391.669 367.079,391.240 366.194,390.812 365.307,390.386 364.418,389.961 363.526,389.537 362.633,389.114 361.737,388.692 360.839,388.271 359.939,387.852 359.036,387.434 358.132,387.017 357.225,386.601 356.316,386.186 355.405,385.773 354.491,385.361 353.576,384.950 352.658,384.540 351.738,384.131 350.816,383.724 349.892,383.317 348.966,382.912 348.038,382.508 347.108,382.106 346.175,381.704 345.240,381.304 344.304,380.905 343.365,380.508 342.424,380.111 341.481,379.716 340.536,379.322 339.589,378.929 338.640,378.537 337.689,378.147 336.736,377.758 335.780,377.370 334.823,376.984 333.864,376.598 332.903,376.214 331.939,375.832 330.974,375.450 330.007,375.070 329.037,374.691 328.066,374.313 327.093,373.937 326.118,373.562 325.141,373.188 324.161,372.815 323.180,372.444 322.197,372.074 321.212,371.705 320.226,371.338 319.237,370.971 318.246,370.606 317.253,370.243 316.259,369.881 315.263,369.520 314.264,369.160 313.264,368.802 312.262,368.445 311.258,368.089 310.252,367.734 309.245,367.381 308.235,367.030 307.224,366.679 306.211,366.330 305.196,365.982 304.179,365.636 303.160,365.291 302.140,364.947 301.118,364.604 300.094,364.263 299.068,363.923 298.041,363.585 297.011,363.248 295.980,362.912 294.947,362.578 293.913,362.245 292.877,361.913 291.839,361.583 290.799,361.254 289.757,360.926 288.714,360.600 287.669,360.275 286.623,359.951 285.574,359.629 284.524,359.308 283.473,358.989 282.419,358.671 281.364,358.354 280.308,358.039 279.249,357.725 278.189,357.413 277.128,357.102 276.065,356.792 275.000,356.484 273.934,356.177 272.866,355.871 271.796,355.567 270.725,355.264 269.652,354.963 268.578,354.663 267.502,354.365 266.424,354.068 265.345,353.772 264.265,353.478 263.182,353.185 262.099,352.893 261.014,352.603 259.927,352.315 258.839,352.028 257.749,351.742 256.658,351.457 255.565,351.175 254.471,350.893 253.376,350.613 252.278,350.334 251.180,350.057 250.080,349.782 248.979,349.507 247.876,349.235 246.771,348.963 245.666,348.693 244.559,348.425 243.450,348.158 242.340,347.892 241.229,347.628 240.116,347.365 239.002,347.104 237.887,346.844 236.770,346.586 235.652,346.329 234.533,346.074 233.412,345.820 232.290,345.567 231.166,345.316 230.042,345.067 228.915,344.819 227.788,344.572 226.660,344.327 225.530,344.084 224.398,343.842 223.266,343.601 222.132,343.362 220.997,343.124 219.861,342.888 218.724,342.653 217.585,342.420 216.445,342.188 215.304,341.958 214.162,341.729 213.019,341.502 211.874,341.276 210.728,341.052 209.581,340.829 208.433,340.608 207.284,340.388 206.133,340.170 204.982,339.954 203.829,339.738 202.675,339.525 201.520,339.312 200.364,339.102 199.207,338.893 198.049,338.685 196.889,338.479 195.729,338.274 194.567,338.071 193.405,337.870 192.241,337.670 191.077,337.471 189.911,337.274 188.744,337.079 187.577,336.885 186.408,336.692 185.238,336.501 184.067,336.312 182.896,336.124 181.723,335.938 180.549,335.753 179.375,335.570 178.199,335.388 177.023,335.208 175.845,335.030 174.667,334.852 173.487,334.677 172.307,334.503 171.126,334.331 169.944,334.160 168.761,333.990 167.577,333.823 166.392,333.656 165.207,333.492 164.020,333.329 162.833,333.167 161.645,333.007 160.456,332.849 159.266,332.692 158.076,332.536 156.884,332.383 155.692,332.230 154.499,332.080 153.305,331.931 152.111,331.783 150.916,331.637 149.719,331.493 148.523,331.350 147.325,331.209 146.127,331.069 144.928,330.931 143.728,330.794 142.527,330.659 141.326,330.526 140.124,330.394 138.922,330.264 137.719,330.135 136.515,330.008 135.310,329.882 134.105,329.758 132.899,329.636 131.693,329.515 130.485,329.396 129.278,329.278 128.069,329.162 126.860,329.048 125.651,328.935 124.441,328.823 123.230,328.714 122.019,328.605 120.807,328.499 119.594,328.394 118.381,328.290 117.168,328.189 115.954,328.088 114.739,327.990 113.524,327.893 112.309,327.797 111.093,327.703 109.876,327.611 108.659,327.521 107.442,327.431 106.224,327.344 105.005,327.258 103.787,327.174 102.567,327.091 101.348,327.010 100.127,326.930 98.907,326.853 97.686,326.776 96.465,326.702 95.243,326.628 94.021,326.557 92.798,326.487 91.575,326.419 90.352,326.352 89.129,326.287 87.905,326.223 86.680,326.161 85.456,326.101 84.231,326.042 83.006,325.985 81.781,325.930 80.555,325.876 79.329,325.824 78.103,325.773 76.876,325.724 75.649,325.676 74.422,325.631 73.195,325.586 71.967,325.544 70.740,325.503 69.512,325.463 68.284,325.425 67.055,325.389 65.827,325.355 64.598,325.322 63.369,325.290 62.140,325.260 60.911,325.232 59.682,325.206 58.452,325.181 57.223,325.157 55.993,325.136 54.763,325.115 53.533,325.097 52.303,325.080 51.073,325.065 49.843,325.051 48.613,325.039 47.383,325.028 46.152,325.020 44.922,325.012 43.692,325.007 42.461,325.003 41.231,325.000 40.000,325.000 " stroke-width="5" stroke="red" fill="none"></path><circle id="undefined" cx="509.478" cy="571.070" r="7.5" stroke-width="5" stroke="red" fill="red"></circle><circle id="undefined" cx="40.000" cy="325.000" r="7.5" stroke-width="5" stroke="red" fill="red"></circle></svg>