<?xml version="1.0" encoding="utf-8"?><!DOCTYPE svg PUBLIC "-//W3C//DTD SVG 1.1//EN" "http://www.w3.org/Graphics/SVG/1.1/DTD/svg11.dtd"><svg xmlns="http://www.w3.org/2000/svg" xmlns:xlink="http://www.w3.org/1999/xlink" id="preview" width="600" height="603" viewBox="0 0 600 603" xunitlength="94" yunitlength="43" xmin="0" xmax="5" ymin="-1" ymax="10" ox="40" oy="83"><defs><style type="text/css">@import url("http://cdnjs.cloudflare.com/ajax/libs/KaTeX/0.2.0/katex.min.css")</style></defs><path d=" M40,90 40,563 M134,90 134,563 M228,90 228,563 M322,90 322,563 M416,90 416,563 M510,90 510,563 M40,520 510,520 M40,563 510,563 M40,477 510,477 M40,434 510,434 M40,391 510,391 M40,348 510,348 M40,305 510,305 M40,262 510,262 M40,219 510,219 M40,176 510,176 M40,133 510,133 M40,90 510,90" stroke-width="1" stroke="grey" fill="none"></path><path d="M 524.4 512.8 L 546 520 L 524.4 527.2 L 528 520 z" stroke-width="1" stroke="black" fill="black"></path><path d="M 32.8 75.6 L 40 54 L 47.2 75.6 L 40 72 z" stroke-width="1" stroke="black" fill="black"></path><path d="M22,520 528,520 M40,72 40,581 M40,526.5 40,513.5 M134,526.5 134,513.5 M228,526.5 228,513.5 M322,526.5 322,513.5 M416,526.5 416,513.5 M510,526.5 510,513.5 M46.5,520 33.5,520 M46.5,563 33.5,563 M46.5,477 33.5,477 M46.5,434 33.5,434 M46.5,391 33.5,391 M46.5,348 33.5,348 M46.5,305 33.5,305 M46.5,262 33.5,262 M46.5,219 33.5,219 M46.5,176 33.5,176 M46.5,133 33.5,133 M46.5,90 33.5,90" stroke-width="2" stroke="black" fill="none"></path><text id="null" x="40" y="43.333" font-style="italic" font-family="KaTeX_Main, serif" font-size="26" font-weight="normal" text-anchor="middle" fill="black" stroke-width="0px">P</text><text id="null" x="556.666" y="528.666" font-style="italic" font-family="KaTeX_Main, serif" font-size="26" font-weight="normal" text-anchor="start" fill="black" stroke-width="0px">Q</text><path id="null" d="M25.9,305 26.683,305 27.466,305 28.249,305 29.033,305 29.816,305 30.599,305 31.383,305 32.166,305 32.949,305 33.733,305 34.516,305 35.299,305 36.083,305 36.866,305 37.649,305 38.433,305 39.216,305 39.999,305 40.783,305 41.566,305 42.349,305 43.133,305 43.916,305 44.699,305 45.483,305 46.266,305 47.049,305 47.833,305 48.616,305 49.399,305 50.183,305 50.966,305 51.749,305 52.533,305 53.316,305 54.099,305 54.883,305 55.666,305 56.449,305 57.233,305 58.016,305 58.799,305 59.583,305 60.366,305 61.149,305 61.933,305 62.716,305 63.499,305 64.283,305 65.066,305 65.849,305 66.633,305 67.416,305 68.199,305 68.983,305 69.766,305 70.549,305 71.333,305 72.116,305 72.899,305 73.683,305 74.466,305 75.249,305 76.033,305 76.816,305 77.599,305 78.383,305 79.166,305 79.949,305 80.733,305 81.516,305 82.299,305 83.083,305 83.866,305 84.649,305 85.433,305 86.216,305 86.999,305 87.783,305 88.566,305 89.349,305 90.133,305 90.916,305 91.699,305 92.483,305 93.266,305 94.049,305 94.833,305 95.616,305 96.399,305 97.183,305 97.966,305 98.749,305 99.533,305 100.316,305 101.099,305 101.883,305 102.666,305 103.449,305 104.233,305 105.016,305 105.799,305 106.583,305 107.366,305 108.149,305 108.933,305 109.716,305 110.499,305 111.283,305 112.066,305 112.849,305 113.633,305 114.416,305 115.199,305 115.983,305 116.766,305 117.549,305 118.333,305 119.116,305 119.899,305 120.683,305 121.466,305 122.249,305 123.033,305 123.816,305 124.599,305 125.383,305 126.166,305 126.949,305 127.733,305 128.516,305 129.299,305 130.083,305 130.866,305 131.649,305 132.433,305 133.216,305 133.999,305 134.783,305 135.566,305 136.349,305 137.133,305 137.916,305 138.699,305 139.483,305 140.266,305 141.049,305 141.833,305 142.616,305 143.399,305 144.183,305 144.966,305 145.749,305 146.533,305 147.316,305 148.099,305 148.883,305 149.666,305 150.449,305 151.233,305 152.016,305 152.799,305 153.583,305 154.366,305 155.149,305 155.933,305 156.716,305 157.499,305 158.283,305 159.066,305 159.849,305 160.633,305 161.416,305 162.199,305 162.983,305 163.766,305 164.549,305 165.333,305 166.116,305 166.899,305 167.683,305 168.466,305 169.249,305 170.033,305 170.816,305 171.599,305 172.383,305 173.166,305 173.949,305 174.733,305 175.516,305 176.299,305 177.083,305 177.866,305 178.649,305 179.433,305 180.216,305 180.999,305 181.783,305 182.566,305 183.349,305 184.133,305 184.916,305 185.699,305 186.483,305 187.266,305 188.049,305 188.833,305 189.616,305 190.399,305 191.183,305 191.966,305 192.749,305 193.533,305 194.316,305 195.099,305 195.883,305 196.666,305 197.449,305 198.233,305 199.016,305 199.799,305 200.583,305 201.366,305 202.149,305 202.933,305 203.716,305 204.499,305 205.283,305 206.066,305 206.849,305 207.633,305 208.416,305 209.199,305 209.983,305 210.766,305 211.549,305 212.333,305 213.116,305 213.899,305 214.683,305 215.466,305 216.249,305 217.033,305 217.816,305 218.599,305 219.383,305 220.166,305 220.949,305 221.733,305 222.516,305 223.299,305 224.083,305 224.866,305 225.649,305 226.433,305 227.216,305 227.999,305 228.783,305 229.566,305 230.349,305 231.133,305 231.916,305 232.699,305 233.483,305 234.266,305 235.049,305 235.833,305 236.616,305 237.399,305 238.183,305 238.966,305 239.749,305 240.533,305 241.316,305 242.099,305 242.883,305 243.666,305 244.449,305 245.233,305 246.016,305 246.799,305 247.583,305 248.366,305 249.149,305 249.933,305 250.716,305 251.499,305 252.283,305 253.066,305 253.849,305 254.633,305 255.416,305 256.199,305 256.983,305 257.766,305 258.549,305 259.333,305 260.116,305 260.899,305 261.683,305 262.466,305 263.249,305 264.033,305 264.816,305 265.599,305 266.383,305 267.166,305 267.949,305 268.733,305 269.516,305 270.299,305 271.083,305 271.866,305 272.649,305 273.433,305 274.216,305 274.999,305 275.783,305 276.566,305 277.349,305 278.133,305 278.916,305 279.699,305 280.483,305 281.266,305 282.049,305 282.833,305 283.616,305 284.399,305 285.183,305 285.966,305 286.749,305 287.533,305 288.316,305 289.099,305 289.883,305 290.666,305 291.449,305 292.233,305 293.016,305 293.799,305 294.583,305 295.366,305 296.149,305 296.933,305 297.716,305 298.499,305 299.283,305 300.066,305 300.849,305 301.633,305 302.416,305 303.199,305 303.983,305 304.766,305 305.549,305 306.333,305 307.116,305 307.899,305 308.683,305 309.466,305 310.249,305 311.033,305 311.816,305 312.599,305 313.383,305 314.166,305 314.949,305 315.733,305 316.516,305 317.299,305 318.083,305 318.866,305 319.649,305 320.433,305 321.216,305 321.999,305 322.783,305 323.566,305 324.349,305 325.133,305 325.916,305 326.699,305 327.483,305 328.266,305 329.049,305 329.833,305 330.616,305 331.399,305 332.183,305 332.966,305 333.749,305 334.533,305 335.316,305 336.099,305 336.883,305 337.666,305 338.449,305 339.233,305 340.016,305 340.799,305 341.583,305 342.366,305 343.149,305 343.933,305 344.716,305 345.499,305 346.283,305 347.066,305 347.849,305 348.633,305 349.416,305 350.199,305 350.983,305 351.766,305 352.549,305 353.333,305 354.116,305 354.899,305 355.683,305 356.466,305 357.249,305 358.033,305 358.816,305 359.599,305 360.382,305 361.166,305 361.949,305 362.732,305 363.516,305 364.299,305 365.082,305 365.866,305 366.649,305 367.432,305 368.216,305 368.999,305 369.782,305 370.566,305 371.349,305 372.132,305 372.916,305 373.699,305 374.482,305 375.266,305 376.049,305 376.832,305 377.616,305 378.399,305 379.182,305 379.966,305 380.749,305 381.532,305 382.316,305 383.099,305 383.882,305 384.666,305 385.449,305 386.232,305 387.016,305 387.799,305 388.582,305 389.366,305 390.149,305 390.932,305 391.716,305 392.499,305 393.282,305 394.066,305 394.849,305 395.632,305 396.416,305 397.199,305 397.982,305 398.766,305 399.549,305 400.332,305 401.116,305 401.899,305 402.682,305 403.466,305 404.249,305 405.032,305 405.816,305 406.599,305 407.382,305 408.166,305 408.949,305 409.732,305 410.516,305 411.299,305 412.082,305 412.866,305 413.649,305 414.432,305 415.216,305 415.999,305 416.782,305 417.566,305 418.349,305 419.132,305 419.916,305 420.699,305 421.482,305 422.266,305 423.049,305 423.832,305 424.616,305 425.399,305 426.182,305 426.966,305 427.749,305 428.532,305 429.316,305 430.099,305 430.882,305 431.666,305 432.449,305 433.232,305 434.016,305 434.799,305 435.582,305 436.366,305 437.149,305 437.932,305 438.716,305 439.499,305 440.282,305 441.066,305 441.849,305 442.632,305 443.416,305 444.199,305 444.982,305 445.766,305 446.549,305 447.332,305 448.116,305 448.899,305 449.682,305 450.466,305 451.249,305 452.032,305 452.816,305 453.599,305 454.382,305 455.166,305 455.949,305 456.732,305 457.516,305 458.299,305 459.082,305 459.866,305 460.649,305 461.432,305 462.216,305 462.999,305 463.782,305 464.566,305 465.349,305 466.132,305 466.916,305 467.699,305 468.482,305 469.266,305 470.049,305 470.832,305 471.616,305 472.399,305 473.182,305 473.966,305 474.749,305 475.532,305 476.316,305 477.099,305 477.882,305 478.666,305 479.449,305 480.232,305 481.016,305 481.799,305 482.582,305 483.366,305 484.149,305 484.932,305 485.716,305 486.499,305 487.282,305 488.066,305 488.849,305 489.632,305 490.416,305 491.199,305 491.982,305 492.766,305 493.549,305 494.332,305 495.116,305 495.899,305 496.682,305 497.466,305 498.249,305 499.032,305 499.816,305 500.599,305 501.382,305 502.166,305 502.949,305 503.732,305 504.516,305 505.299,305 506.082,305 506.866,305 507.649,305 508.432,305 509.216,305 509.999,305 510.782,305 511.566,305 512.349,305 513.132,305 513.916,305 514.699,305 515.482,305 516.266,305 517.049,305 517.832,305 518.616,305 519.399,305 520.182,305 520.966,305 521.749,305 522.532,305 523.316,305 524.099,305 " stroke-width="5" stroke="black" fill="none"></path><path id="null" d="M87,133 87.704,133.644 88.409,134.289 89.114,134.934 89.819,135.579 90.524,136.224 91.229,136.869 91.934,137.514 92.639,138.159 93.344,138.804 94.049,139.449 94.754,140.094 95.459,140.739 96.164,141.384 96.869,142.029 97.574,142.674 98.279,143.319 98.984,143.964 99.689,144.609 100.394,145.254 101.099,145.899 101.804,146.544 102.509,147.189 103.214,147.834 103.919,148.479 104.624,149.124 105.329,149.769 106.034,150.414 106.739,151.059 107.444,151.704 108.149,152.349 108.854,152.994 109.559,153.639 110.264,154.284 110.969,154.929 111.674,155.574 112.379,156.219 113.084,156.864 113.789,157.509 114.494,158.154 115.199,158.799 115.904,159.444 116.609,160.089 117.314,160.734 118.019,161.379 118.724,162.024 119.429,162.669 120.134,163.314 120.839,163.959 121.544,164.604 122.249,165.249 122.954,165.894 123.659,166.539 124.364,167.184 125.069,167.829 125.774,168.474 126.479,169.119 127.184,169.764 127.889,170.409 128.594,171.054 129.299,171.699 130.004,172.344 130.709,172.989 131.414,173.634 132.119,174.279 132.824,174.924 133.529,175.569 134.234,176.214 134.939,176.859 135.644,177.504 136.349,178.149 137.054,178.794 137.759,179.439 138.464,180.084 139.169,180.729 139.874,181.374 140.579,182.019 141.284,182.664 141.989,183.309 142.694,183.954 143.399,184.599 144.104,185.244 144.809,185.889 145.514,186.534 146.219,187.179 146.924,187.824 147.629,188.469 148.334,189.114 149.039,189.759 149.744,190.404 150.449,191.049 151.154,191.694 151.859,192.339 152.564,192.984 153.269,193.629 153.974,194.274 154.679,194.919 155.384,195.564 156.089,196.209 156.794,196.854 157.499,197.499 158.204,198.144 158.909,198.789 159.614,199.434 160.319,200.079 161.024,200.724 161.729,201.369 162.434,202.014 163.139,202.659 163.844,203.304 164.549,203.949 165.254,204.594 165.959,205.239 166.664,205.884 167.369,206.529 168.074,207.174 168.779,207.819 169.484,208.464 170.189,209.109 170.894,209.754 171.599,210.399 172.304,211.044 173.009,211.689 173.714,212.334 174.419,212.979 175.124,213.624 175.829,214.269 176.534,214.914 177.239,215.559 177.944,216.204 178.649,216.849 179.354,217.494 180.059,218.139 180.764,218.784 181.469,219.429 182.174,220.074 182.879,220.719 183.584,221.364 184.289,222.009 184.994,222.654 185.699,223.299 186.404,223.944 187.109,224.589 187.814,225.234 188.519,225.879 189.224,226.524 189.929,227.169 190.634,227.814 191.339,228.459 192.044,229.104 192.749,229.749 193.454,230.394 194.159,231.039 194.864,231.684 195.569,232.329 196.274,232.974 196.979,233.619 197.684,234.264 198.389,234.909 199.094,235.554 199.799,236.199 200.504,236.844 201.209,237.489 201.914,238.134 202.619,238.779 203.324,239.424 204.029,240.069 204.734,240.714 205.439,241.359 206.144,242.004 206.849,242.649 207.554,243.294 208.259,243.939 208.964,244.584 209.669,245.229 210.374,245.874 211.079,246.519 211.784,247.164 212.489,247.809 213.194,248.454 213.899,249.099 214.604,249.744 215.309,250.389 216.014,251.034 216.719,251.679 217.424,252.324 218.129,252.969 218.834,253.614 219.539,254.259 220.244,254.904 220.949,255.549 221.654,256.194 222.359,256.839 223.064,257.484 223.769,258.129 224.474,258.774 225.179,259.419 225.884,260.064 226.589,260.709 227.294,261.354 227.999,261.999 228.704,262.644 229.409,263.289 230.114,263.934 230.819,264.579 231.524,265.224 232.229,265.869 232.934,266.514 233.639,267.159 234.344,267.804 235.049,268.449 235.754,269.094 236.459,269.739 237.164,270.384 237.869,271.029 238.574,271.674 239.279,272.319 239.984,272.964 240.689,273.609 241.394,274.254 242.099,274.899 242.804,275.544 243.509,276.189 244.214,276.834 244.919,277.479 245.624,278.124 246.329,278.769 247.034,279.414 247.739,280.059 248.444,280.704 249.149,281.349 249.854,281.994 250.559,282.639 251.264,283.284 251.969,283.929 252.674,284.574 253.379,285.219 254.084,285.864 254.789,286.509 255.494,287.154 256.199,287.799 256.904,288.444 257.609,289.089 258.314,289.734 259.019,290.379 259.724,291.024 260.429,291.669 261.134,292.314 261.839,292.959 262.544,293.604 263.249,294.249 263.954,294.894 264.659,295.539 265.364,296.184 266.069,296.829 266.774,297.474 267.479,298.119 268.184,298.764 268.889,299.409 269.594,300.054 270.299,300.699 271.004,301.344 271.709,301.989 272.414,302.634 273.119,303.279 273.824,303.924 274.529,304.569 275.234,305.214 275.939,305.859 276.644,306.504 277.349,307.149 278.054,307.794 278.759,308.439 279.464,309.084 280.169,309.729 280.874,310.374 281.579,311.019 282.284,311.664 282.989,312.309 283.694,312.954 284.399,313.599 285.104,314.244 285.809,314.889 286.514,315.534 287.219,316.179 287.924,316.824 288.629,317.469 289.334,318.114 290.039,318.759 290.744,319.404 291.449,320.049 292.154,320.694 292.859,321.339 293.564,321.984 294.269,322.629 294.974,323.274 295.679,323.919 296.384,324.564 297.089,325.209 297.794,325.854 298.499,326.499 299.204,327.144 299.909,327.789 300.614,328.434 301.319,329.079 302.024,329.724 302.729,330.369 303.434,331.014 304.139,331.659 304.844,332.304 305.549,332.949 306.254,333.594 306.959,334.239 307.664,334.884 308.369,335.529 309.074,336.174 309.779,336.819 310.484,337.464 311.189,338.109 311.894,338.754 312.599,339.399 313.304,340.044 314.009,340.689 314.714,341.334 315.419,341.979 316.124,342.624 316.829,343.269 317.534,343.914 318.239,344.559 318.944,345.204 319.649,345.849 320.354,346.494 321.059,347.139 321.764,347.784 322.469,348.429 323.174,349.074 323.879,349.719 324.584,350.364 325.289,351.009 325.994,351.654 326.699,352.299 327.404,352.944 328.109,353.589 328.814,354.234 329.519,354.879 330.224,355.524 330.929,356.169 331.634,356.814 332.339,357.459 333.044,358.104 333.749,358.749 334.454,359.394 335.159,360.039 335.864,360.684 336.569,361.329 337.274,361.974 337.979,362.619 338.684,363.264 339.389,363.909 340.094,364.554 340.799,365.199 341.504,365.844 342.209,366.489 342.914,367.134 343.619,367.779 344.324,368.424 345.029,369.069 345.734,369.714 346.439,370.359 347.144,371.004 347.849,371.649 348.554,372.294 349.259,372.939 349.964,373.584 350.669,374.229 351.374,374.874 352.079,375.519 352.784,376.164 353.489,376.809 354.194,377.454 354.899,378.099 355.604,378.744 356.309,379.389 357.014,380.034 357.719,380.679 358.424,381.324 359.129,381.969 359.834,382.614 360.539,383.259 361.244,383.904 361.949,384.549 362.654,385.194 363.359,385.839 364.064,386.484 364.769,387.129 365.474,387.774 366.179,388.419 366.884,389.064 367.589,389.709 368.294,390.354 368.999,390.999 369.704,391.644 370.409,392.289 371.114,392.934 371.819,393.579 372.524,394.224 373.229,394.869 373.934,395.514 374.639,396.159 375.344,396.804 376.049,397.449 376.754,398.094 377.459,398.739 378.164,399.384 378.869,400.029 379.574,400.674 380.279,401.319 380.984,401.964 381.689,402.609 382.394,403.254 383.099,403.899 383.804,404.544 384.509,405.189 385.214,405.834 385.919,406.479 386.624,407.124 387.329,407.769 388.034,408.414 388.739,409.059 389.444,409.704 390.149,410.349 390.854,410.994 391.559,411.639 392.264,412.284 392.969,412.929 393.674,413.574 394.379,414.219 395.084,414.864 395.789,415.509 396.494,416.154 397.199,416.799 397.904,417.444 398.609,418.089 399.314,418.734 400.019,419.379 400.724,420.024 401.429,420.669 402.134,421.314 402.839,421.959 403.544,422.604 404.249,423.249 404.954,423.894 405.659,424.539 406.364,425.184 407.069,425.829 407.774,426.474 408.479,427.119 409.184,427.764 409.889,428.409 410.594,429.054 411.299,429.699 412.004,430.344 412.709,430.989 413.414,431.634 414.119,432.279 414.824,432.924 415.529,433.569 416.234,434.214 416.939,434.859 417.644,435.504 418.349,436.149 419.054,436.794 419.759,437.439 420.464,438.084 421.169,438.729 421.874,439.374 422.579,440.019 423.284,440.664 423.989,441.309 424.694,441.954 425.399,442.599 426.104,443.244 426.809,443.889 427.514,444.534 428.219,445.179 428.924,445.824 429.629,446.469 430.334,447.114 431.039,447.759 431.744,448.404 432.449,449.049 433.154,449.694 433.859,450.339 434.564,450.984 435.269,451.629 435.974,452.274 436.679,452.919 437.384,453.564 438.089,454.209 438.794,454.854 439.499,455.499 440.204,456.144 440.909,456.789 441.614,457.434 442.319,458.079 443.024,458.724 443.729,459.369 444.434,460.014 445.139,460.659 445.844,461.304 446.549,461.949 447.254,462.594 447.959,463.239 448.664,463.884 449.369,464.529 450.074,465.174 450.779,465.819 451.484,466.464 452.189,467.109 452.894,467.754 453.599,468.399 454.304,469.044 455.009,469.689 455.714,470.334 456.419,470.979 457.124,471.624 457.829,472.269 458.534,472.914 459.239,473.559 459.944,474.204 460.649,474.849 461.354,475.494 462.059,476.139 462.764,476.784 463.469,477.429 464.174,478.074 464.879,478.719 465.584,479.364 466.289,480.009 466.994,480.654 467.699,481.299 468.404,481.944 469.109,482.589 469.814,483.234 470.519,483.879 471.224,484.524 471.929,485.169 472.634,485.814 473.339,486.459 474.044,487.104 474.749,487.749 475.454,488.394 476.159,489.039 476.864,489.684 477.569,490.329 478.274,490.974 478.979,491.619 479.684,492.264 480.389,492.909 481.094,493.554 481.799,494.199 482.504,494.844 483.209,495.489 483.914,496.134 484.619,496.779 485.324,497.424 486.029,498.069 486.734,498.714 487.439,499.359 488.144,500.004 488.849,500.649 489.554,501.294 490.259,501.939 490.964,502.584 491.669,503.229 492.374,503.874 493.079,504.519 493.784,505.164 494.489,505.809 495.194,506.454 495.899,507.099 496.604,507.744 497.309,508.389 498.014,509.034 498.719,509.679 499.424,510.324 500.129,510.969 500.834,511.614 501.539,512.259 502.244,512.904 502.949,513.549 503.654,514.194 504.359,514.839 505.064,515.484 505.769,516.129 506.474,516.774 507.179,517.419 507.884,518.064 508.589,518.709 509.294,519.354 509.999,519.999 " stroke-width="5" stroke="black" fill="none"></path><path d="M 512.203 512.257 L 523.280 532.149 L 502.483 522.881 L 509.999 519.999 z" stroke-width="1" stroke="black" fill="black"></path></svg>