<?xml version="1.0" encoding="utf-8"?><!DOCTYPE svg PUBLIC "-//W3C//DTD SVG 1.1//EN" "http://www.w3.org/Graphics/SVG/1.1/DTD/svg11.dtd"><svg xmlns="http://www.w3.org/2000/svg" xmlns:xlink="http://www.w3.org/1999/xlink" id="preview" width="600" height="603" viewBox="0 0 600 603" xunitlength="94" yunitlength="43" xmin="0" xmax="5" ymin="-1" ymax="10" ox="40" oy="83"><defs><style type="text/css">@import url("http://cdnjs.cloudflare.com/ajax/libs/KaTeX/0.2.0/katex.min.css")</style></defs><path d=" M40,90 40,563 M134,90 134,563 M228,90 228,563 M322,90 322,563 M416,90 416,563 M510,90 510,563 M40,520 510,520 M40,563 510,563 M40,477 510,477 M40,434 510,434 M40,391 510,391 M40,348 510,348 M40,305 510,305 M40,262 510,262 M40,219 510,219 M40,176 510,176 M40,133 510,133 M40,90 510,90" stroke-width="1" stroke="grey" fill="none"></path><path d="M 524.4 512.8 L 546 520 L 524.4 527.2 L 528 520 z" stroke-width="1" stroke="black" fill="black"></path><path d="M 32.8 75.6 L 40 54 L 47.2 75.6 L 40 72 z" stroke-width="1" stroke="black" fill="black"></path><path d="M22,520 528,520 M40,72 40,581 M40,525 40,515 M134,525 134,515 M228,525 228,515 M322,525 322,515 M416,525 416,515 M510,525 510,515 M45,520 35,520 M45,563 35,563 M45,477 35,477 M45,434 35,434 M45,391 35,391 M45,348 35,348 M45,305 35,305 M45,262 35,262 M45,219 35,219 M45,176 35,176 M45,133 35,133 M45,90 35,90" stroke-width="2" stroke="black" fill="none"></path><text id="null" x="40" y="45.333" font-style="italic" font-family="KaTeX_Main, serif" font-size="20" font-weight="normal" text-anchor="middle" fill="black" stroke-width="0px">PL</text><text id="null" x="554.666" y="526.666" font-style="italic" font-family="KaTeX_Main, serif" font-size="20" font-weight="normal" text-anchor="start" fill="black" stroke-width="0px">GDP</text><path id="null" d="M25.9,532.9 26.683,532.183 27.466,531.466 28.249,530.750 29.033,530.033 29.816,529.316 30.599,528.600 31.383,527.883 32.166,527.166 32.949,526.450 33.733,525.733 34.516,525.016 35.299,524.300 36.083,523.583 36.866,522.866 37.649,522.150 38.433,521.433 39.216,520.716 39.999,520.000 40.783,519.283 41.566,518.566 42.349,517.850 43.133,517.133 43.916,516.416 44.699,515.700 45.483,514.983 46.266,514.266 47.049,513.550 47.833,512.833 48.616,512.116 49.399,511.400 50.183,510.683 50.966,509.966 51.749,509.250 52.533,508.533 53.316,507.816 54.099,507.100 54.883,506.383 55.666,505.666 56.449,504.950 57.233,504.233 58.016,503.516 58.799,502.800 59.583,502.083 60.366,501.366 61.149,500.650 61.933,499.933 62.716,499.216 63.499,498.500 64.283,497.783 65.066,497.066 65.849,496.350 66.633,495.633 67.416,494.916 68.199,494.200 68.983,493.483 69.766,492.766 70.549,492.050 71.333,491.333 72.116,490.616 72.899,489.900 73.683,489.183 74.466,488.466 75.249,487.750 76.033,487.033 76.816,486.316 77.599,485.600 78.383,484.883 79.166,484.166 79.949,483.450 80.733,482.733 81.516,482.016 82.299,481.300 83.083,480.583 83.866,479.866 84.649,479.150 85.433,478.433 86.216,477.716 86.999,477.000 87.783,476.283 88.566,475.566 89.349,474.850 90.133,474.133 90.916,473.416 91.699,472.700 92.483,471.983 93.266,471.266 94.049,470.550 94.833,469.833 95.616,469.116 96.399,468.400 97.183,467.683 97.966,466.966 98.749,466.250 99.533,465.533 100.316,464.816 101.099,464.100 101.883,463.383 102.666,462.666 103.449,461.950 104.233,461.233 105.016,460.516 105.799,459.800 106.583,459.083 107.366,458.366 108.149,457.650 108.933,456.933 109.716,456.216 110.499,455.500 111.283,454.783 112.066,454.066 112.849,453.350 113.633,452.633 114.416,451.916 115.199,451.200 115.983,450.483 116.766,449.766 117.549,449.050 118.333,448.333 119.116,447.616 119.899,446.900 120.683,446.183 121.466,445.466 122.249,444.750 123.033,444.033 123.816,443.316 124.599,442.600 125.383,441.883 126.166,441.166 126.949,440.450 127.733,439.733 128.516,439.016 129.299,438.300 130.083,437.583 130.866,436.866 131.649,436.150 132.433,435.433 133.216,434.716 133.999,434.000 134.783,433.283 135.566,432.566 136.349,431.850 137.133,431.133 137.916,430.416 138.699,429.700 139.483,428.983 140.266,428.266 141.049,427.550 141.833,426.833 142.616,426.116 143.399,425.400 144.183,424.683 144.966,423.966 145.749,423.250 146.533,422.533 147.316,421.816 148.099,421.100 148.883,420.383 149.666,419.666 150.449,418.950 151.233,418.233 152.016,417.516 152.799,416.800 153.583,416.083 154.366,415.366 155.149,414.650 155.933,413.933 156.716,413.216 157.499,412.500 158.283,411.783 159.066,411.066 159.849,410.350 160.633,409.633 161.416,408.916 162.199,408.200 162.983,407.483 163.766,406.766 164.549,406.050 165.333,405.333 166.116,404.616 166.899,403.900 167.683,403.183 168.466,402.466 169.249,401.750 170.033,401.033 170.816,400.316 171.599,399.600 172.383,398.883 173.166,398.166 173.949,397.450 174.733,396.733 175.516,396.016 176.299,395.300 177.083,394.583 177.866,393.866 178.649,393.150 179.433,392.433 180.216,391.716 180.999,391.000 181.783,390.283 182.566,389.566 183.349,388.850 184.133,388.133 184.916,387.416 185.699,386.700 186.483,385.983 187.266,385.266 188.049,384.550 188.833,383.833 189.616,383.116 190.399,382.400 191.183,381.683 191.966,380.966 192.749,380.250 193.533,379.533 194.316,378.816 195.099,378.100 195.883,377.383 196.666,376.666 197.449,375.950 198.233,375.233 199.016,374.516 199.799,373.800 200.583,373.083 201.366,372.366 202.149,371.650 202.933,370.933 203.716,370.216 204.499,369.500 205.283,368.783 206.066,368.066 206.849,367.350 207.633,366.633 208.416,365.916 209.199,365.200 209.983,364.483 210.766,363.766 211.549,363.050 212.333,362.333 213.116,361.616 213.899,360.900 214.683,360.183 215.466,359.466 216.249,358.750 217.033,358.033 217.816,357.316 218.599,356.600 219.383,355.883 220.166,355.166 220.949,354.450 221.733,353.733 222.516,353.016 223.299,352.300 224.083,351.583 224.866,350.866 225.649,350.150 226.433,349.433 227.216,348.716 227.999,348.000 228.783,347.283 229.566,346.566 230.349,345.850 231.133,345.133 231.916,344.416 232.699,343.700 233.483,342.983 234.266,342.266 235.049,341.550 235.833,340.833 236.616,340.116 237.399,339.400 238.183,338.683 238.966,337.966 239.749,337.250 240.533,336.533 241.316,335.816 242.099,335.100 242.883,334.383 243.666,333.666 244.449,332.950 245.233,332.233 246.016,331.516 246.799,330.800 247.583,330.083 248.366,329.366 249.149,328.650 249.933,327.933 250.716,327.216 251.499,326.500 252.283,325.783 253.066,325.066 253.849,324.350 254.633,323.633 255.416,322.916 256.199,322.200 256.983,321.483 257.766,320.766 258.549,320.050 259.333,319.333 260.116,318.616 260.899,317.900 261.683,317.183 262.466,316.466 263.249,315.750 264.033,315.033 264.816,314.316 265.599,313.600 266.383,312.883 267.166,312.166 267.949,311.450 268.733,310.733 269.516,310.016 270.299,309.300 271.083,308.583 271.866,307.866 272.649,307.150 273.433,306.433 274.216,305.716 274.999,305.000 275.783,304.283 276.566,303.566 277.349,302.850 278.133,302.133 278.916,301.416 279.699,300.700 280.483,299.983 281.266,299.266 282.049,298.550 282.833,297.833 283.616,297.116 284.399,296.400 285.183,295.683 285.966,294.966 286.749,294.250 287.533,293.533 288.316,292.816 289.099,292.100 289.883,291.383 290.666,290.666 291.449,289.950 292.233,289.233 293.016,288.516 293.799,287.800 294.583,287.083 295.366,286.366 296.149,285.650 296.933,284.933 297.716,284.216 298.499,283.500 299.283,282.783 300.066,282.066 300.849,281.350 301.633,280.633 302.416,279.916 303.199,279.200 303.983,278.483 304.766,277.766 305.549,277.050 306.333,276.333 307.116,275.616 307.899,274.900 308.683,274.183 309.466,273.466 310.249,272.750 311.033,272.033 311.816,271.316 312.599,270.600 313.383,269.883 314.166,269.166 314.949,268.450 315.733,267.733 316.516,267.016 317.299,266.300 318.083,265.583 318.866,264.866 319.649,264.150 320.433,263.433 321.216,262.716 321.999,262.000 322.783,261.283 323.566,260.566 324.349,259.850 325.133,259.133 325.916,258.416 326.699,257.700 327.483,256.983 328.266,256.266 329.049,255.550 329.833,254.833 330.616,254.116 331.399,253.400 332.183,252.683 332.966,251.966 333.749,251.250 334.533,250.533 335.316,249.816 336.099,249.100 336.883,248.383 337.666,247.666 338.449,246.950 339.233,246.233 340.016,245.516 340.799,244.800 341.583,244.083 342.366,243.366 343.149,242.650 343.933,241.933 344.716,241.216 345.499,240.500 346.283,239.783 347.066,239.066 347.849,238.350 348.633,237.633 349.416,236.916 350.199,236.200 350.983,235.483 351.766,234.766 352.549,234.050 353.333,233.333 354.116,232.616 354.899,231.900 355.683,231.183 356.466,230.466 357.249,229.750 358.033,229.033 358.816,228.316 359.599,227.600 360.382,226.883 361.166,226.166 361.949,225.450 362.732,224.733 363.516,224.016 364.299,223.300 365.082,222.583 365.866,221.866 366.649,221.150 367.432,220.433 368.216,219.716 368.999,219.000 369.782,218.283 370.566,217.566 371.349,216.850 372.132,216.133 372.916,215.416 373.699,214.700 374.482,213.983 375.266,213.266 376.049,212.550 376.832,211.833 377.616,211.116 378.399,210.400 379.182,209.683 379.966,208.966 380.749,208.250 381.532,207.533 382.316,206.816 383.099,206.100 383.882,205.383 384.666,204.666 385.449,203.950 386.232,203.233 387.016,202.516 387.799,201.800 388.582,201.083 389.366,200.366 390.149,199.650 390.932,198.933 391.716,198.217 392.499,197.500 393.282,196.783 394.066,196.067 394.849,195.350 395.632,194.633 396.416,193.917 397.199,193.200 397.982,192.483 398.766,191.767 399.549,191.050 400.332,190.333 401.116,189.617 401.899,188.900 402.682,188.183 403.466,187.467 404.249,186.750 405.032,186.033 405.816,185.317 406.599,184.600 407.382,183.883 408.166,183.167 408.949,182.450 409.732,181.733 410.516,181.017 411.299,180.300 412.082,179.583 412.866,178.867 413.649,178.150 414.432,177.433 415.216,176.717 415.999,176.000 416.782,175.283 417.566,174.567 418.349,173.850 419.132,173.133 419.916,172.417 420.699,171.700 421.482,170.983 422.266,170.267 423.049,169.550 423.832,168.833 424.616,168.117 425.399,167.400 426.182,166.683 426.966,165.967 427.749,165.250 428.532,164.533 429.316,163.817 430.099,163.100 430.882,162.383 431.666,161.667 432.449,160.950 433.232,160.233 434.016,159.517 434.799,158.800 435.582,158.083 436.366,157.367 437.149,156.650 437.932,155.933 438.716,155.217 439.499,154.500 440.282,153.783 441.066,153.067 441.849,152.350 442.632,151.633 443.416,150.917 444.199,150.200 444.982,149.483 445.766,148.767 446.549,148.050 447.332,147.333 448.116,146.617 448.899,145.900 449.682,145.183 450.466,144.467 451.249,143.750 452.032,143.033 452.816,142.317 453.599,141.600 454.382,140.883 455.166,140.167 455.949,139.450 456.732,138.733 457.516,138.017 458.299,137.300 459.082,136.583 459.866,135.867 460.649,135.150 461.432,134.433 462.216,133.717 462.999,133.000 463.782,132.283 464.566,131.567 465.349,130.850 466.132,130.133 466.916,129.417 467.699,128.700 468.482,127.983 469.266,127.267 470.049,126.550 470.832,125.833 471.616,125.117 472.399,124.400 473.182,123.683 473.966,122.967 474.749,122.250 475.532,121.533 476.316,120.817 477.099,120.100 477.882,119.383 478.666,118.667 479.449,117.950 480.232,117.233 481.016,116.517 481.799,115.800 482.582,115.083 483.366,114.367 484.149,113.650 484.932,112.933 485.716,112.217 486.499,111.500 487.282,110.783 488.066,110.067 488.849,109.350 489.632,108.633 490.416,107.917 491.199,107.200 491.982,106.483 492.766,105.767 493.549,105.050 494.332,104.333 495.116,103.617 495.899,102.900 496.682,102.183 497.466,101.467 498.249,100.750 499.032,100.033 499.816,99.317 500.599,98.600 501.382,97.883 502.166,97.167 502.949,96.450 503.732,95.733 504.516,95.017 505.299,94.300 506.082,93.583 506.866,92.867 507.649,92.150 508.432,91.433 509.216,90.717 509.999,90.000 " stroke-width="5" stroke="black" fill="none"></path><path d="M 502.483 87.118 L 523.280 77.850 L 512.203 97.742 L 509.999 90.000 z" stroke-width="1" stroke="black" fill="black"></path><circle id="undefined" cx="25.9" cy="532.9" r="7.5" stroke-width="5" stroke="black" fill="black"></circle><path id="null" d="M25.9,120.099 26.683,120.816 27.466,121.533 28.249,122.249 29.033,122.966 29.816,123.683 30.599,124.399 31.383,125.116 32.166,125.833 32.949,126.549 33.733,127.266 34.516,127.983 35.299,128.699 36.083,129.416 36.866,130.133 37.649,130.849 38.433,131.566 39.216,132.283 39.999,132.999 40.783,133.716 41.566,134.433 42.349,135.149 43.133,135.866 43.916,136.583 44.699,137.299 45.483,138.016 46.266,138.733 47.049,139.449 47.833,140.166 48.616,140.883 49.399,141.599 50.183,142.316 50.966,143.033 51.749,143.749 52.533,144.466 53.316,145.183 54.099,145.899 54.883,146.616 55.666,147.333 56.449,148.049 57.233,148.766 58.016,149.483 58.799,150.199 59.583,150.916 60.366,151.633 61.149,152.349 61.933,153.066 62.716,153.783 63.499,154.499 64.283,155.216 65.066,155.933 65.849,156.649 66.633,157.366 67.416,158.083 68.199,158.799 68.983,159.516 69.766,160.233 70.549,160.949 71.333,161.666 72.116,162.383 72.899,163.099 73.683,163.816 74.466,164.533 75.249,165.249 76.033,165.966 76.816,166.683 77.599,167.399 78.383,168.116 79.166,168.833 79.949,169.549 80.733,170.266 81.516,170.983 82.299,171.699 83.083,172.416 83.866,173.133 84.649,173.849 85.433,174.566 86.216,175.283 86.999,175.999 87.783,176.716 88.566,177.433 89.349,178.149 90.133,178.866 90.916,179.583 91.699,180.299 92.483,181.016 93.266,181.733 94.049,182.449 94.833,183.166 95.616,183.883 96.399,184.599 97.183,185.316 97.966,186.033 98.749,186.749 99.533,187.466 100.316,188.183 101.099,188.899 101.883,189.616 102.666,190.333 103.449,191.049 104.233,191.766 105.016,192.483 105.799,193.199 106.583,193.916 107.366,194.633 108.149,195.349 108.933,196.066 109.716,196.783 110.499,197.499 111.283,198.216 112.066,198.933 112.849,199.649 113.633,200.366 114.416,201.083 115.199,201.799 115.983,202.516 116.766,203.233 117.549,203.949 118.333,204.666 119.116,205.383 119.899,206.099 120.683,206.816 121.466,207.533 122.249,208.249 123.033,208.966 123.816,209.683 124.599,210.399 125.383,211.116 126.166,211.833 126.949,212.549 127.733,213.266 128.516,213.983 129.299,214.699 130.083,215.416 130.866,216.133 131.649,216.849 132.433,217.566 133.216,218.283 133.999,218.999 134.783,219.716 135.566,220.433 136.349,221.149 137.133,221.866 137.916,222.583 138.699,223.299 139.483,224.016 140.266,224.733 141.049,225.449 141.833,226.166 142.616,226.883 143.399,227.599 144.183,228.316 144.966,229.033 145.749,229.749 146.533,230.466 147.316,231.183 148.099,231.899 148.883,232.616 149.666,233.333 150.449,234.049 151.233,234.766 152.016,235.483 152.799,236.199 153.583,236.916 154.366,237.633 155.149,238.349 155.933,239.066 156.716,239.783 157.499,240.499 158.283,241.216 159.066,241.933 159.849,242.649 160.633,243.366 161.416,244.083 162.199,244.799 162.983,245.516 163.766,246.233 164.549,246.949 165.333,247.666 166.116,248.383 166.899,249.099 167.683,249.816 168.466,250.533 169.249,251.249 170.033,251.966 170.816,252.683 171.599,253.399 172.383,254.116 173.166,254.833 173.949,255.549 174.733,256.266 175.516,256.983 176.299,257.699 177.083,258.416 177.866,259.133 178.649,259.849 179.433,260.566 180.216,261.283 180.999,261.999 181.783,262.716 182.566,263.433 183.349,264.149 184.133,264.866 184.916,265.583 185.699,266.299 186.483,267.016 187.266,267.733 188.049,268.449 188.833,269.166 189.616,269.883 190.399,270.599 191.183,271.316 191.966,272.033 192.749,272.749 193.533,273.466 194.316,274.183 195.099,274.899 195.883,275.616 196.666,276.333 197.449,277.049 198.233,277.766 199.016,278.483 199.799,279.199 200.583,279.916 201.366,280.633 202.149,281.349 202.933,282.066 203.716,282.783 204.499,283.499 205.283,284.216 206.066,284.933 206.849,285.649 207.633,286.366 208.416,287.083 209.199,287.799 209.983,288.516 210.766,289.233 211.549,289.949 212.333,290.666 213.116,291.383 213.899,292.099 214.683,292.816 215.466,293.533 216.249,294.249 217.033,294.966 217.816,295.683 218.599,296.399 219.383,297.116 220.166,297.833 220.949,298.549 221.733,299.266 222.516,299.983 223.299,300.699 224.083,301.416 224.866,302.133 225.649,302.849 226.433,303.566 227.216,304.283 227.999,304.999 228.783,305.716 229.566,306.433 230.349,307.149 231.133,307.866 231.916,308.583 232.699,309.299 233.483,310.016 234.266,310.733 235.049,311.449 235.833,312.166 236.616,312.883 237.399,313.599 238.183,314.316 238.966,315.033 239.749,315.749 240.533,316.466 241.316,317.183 242.099,317.899 242.883,318.616 243.666,319.333 244.449,320.049 245.233,320.766 246.016,321.483 246.799,322.199 247.583,322.916 248.366,323.633 249.149,324.349 249.933,325.066 250.716,325.783 251.499,326.499 252.283,327.216 253.066,327.933 253.849,328.649 254.633,329.366 255.416,330.083 256.199,330.799 256.983,331.516 257.766,332.233 258.549,332.949 259.333,333.666 260.116,334.383 260.899,335.099 261.683,335.816 262.466,336.533 263.249,337.249 264.033,337.966 264.816,338.683 265.599,339.399 266.383,340.116 267.166,340.833 267.949,341.549 268.733,342.266 269.516,342.983 270.299,343.699 271.083,344.416 271.866,345.133 272.649,345.849 273.433,346.566 274.216,347.283 274.999,347.999 275.783,348.716 276.566,349.433 277.349,350.149 278.133,350.866 278.916,351.583 279.699,352.299 280.483,353.016 281.266,353.733 282.049,354.449 282.833,355.166 283.616,355.883 284.399,356.599 285.183,357.316 285.966,358.033 286.749,358.749 287.533,359.466 288.316,360.183 289.099,360.899 289.883,361.616 290.666,362.333 291.449,363.049 292.233,363.766 293.016,364.483 293.799,365.199 294.583,365.916 295.366,366.633 296.149,367.349 296.933,368.066 297.716,368.783 298.499,369.499 299.283,370.216 300.066,370.933 300.849,371.649 301.633,372.366 302.416,373.083 303.199,373.799 303.983,374.516 304.766,375.233 305.549,375.949 306.333,376.666 307.116,377.383 307.899,378.099 308.683,378.816 309.466,379.533 310.249,380.249 311.033,380.966 311.816,381.683 312.599,382.399 313.383,383.116 314.166,383.833 314.949,384.549 315.733,385.266 316.516,385.983 317.299,386.699 318.083,387.416 318.866,388.133 319.649,388.849 320.433,389.566 321.216,390.283 321.999,390.999 322.783,391.716 323.566,392.433 324.349,393.149 325.133,393.866 325.916,394.583 326.699,395.299 327.483,396.016 328.266,396.733 329.049,397.449 329.833,398.166 330.616,398.883 331.399,399.599 332.183,400.316 332.966,401.033 333.749,401.749 334.533,402.466 335.316,403.183 336.099,403.899 336.883,404.616 337.666,405.333 338.449,406.049 339.233,406.766 340.016,407.483 340.799,408.199 341.583,408.916 342.366,409.633 343.149,410.349 343.933,411.066 344.716,411.783 345.499,412.499 346.283,413.216 347.066,413.933 347.849,414.649 348.633,415.366 349.416,416.083 350.199,416.799 350.983,417.516 351.766,418.233 352.549,418.949 353.333,419.666 354.116,420.383 354.899,421.099 355.683,421.816 356.466,422.533 357.249,423.249 358.033,423.966 358.816,424.683 359.599,425.399 360.382,426.116 361.166,426.833 361.949,427.549 362.732,428.266 363.516,428.983 364.299,429.699 365.082,430.416 365.866,431.133 366.649,431.849 367.432,432.566 368.216,433.283 368.999,433.999 369.782,434.716 370.566,435.433 371.349,436.149 372.132,436.866 372.916,437.583 373.699,438.299 374.482,439.016 375.266,439.733 376.049,440.449 376.832,441.166 377.616,441.883 378.399,442.599 379.182,443.316 379.966,444.033 380.749,444.749 381.532,445.466 382.316,446.183 383.099,446.899 383.882,447.616 384.666,448.333 385.449,449.049 386.232,449.766 387.016,450.483 387.799,451.199 388.582,451.916 389.366,452.633 390.149,453.349 390.932,454.066 391.716,454.782 392.499,455.499 393.282,456.216 394.066,456.932 394.849,457.649 395.632,458.366 396.416,459.082 397.199,459.799 397.982,460.516 398.766,461.232 399.549,461.949 400.332,462.666 401.116,463.382 401.899,464.099 402.682,464.816 403.466,465.532 404.249,466.249 405.032,466.966 405.816,467.682 406.599,468.399 407.382,469.116 408.166,469.832 408.949,470.549 409.732,471.266 410.516,471.982 411.299,472.699 412.082,473.416 412.866,474.132 413.649,474.849 414.432,475.566 415.216,476.282 415.999,476.999 416.782,477.716 417.566,478.432 418.349,479.149 419.132,479.866 419.916,480.582 420.699,481.299 421.482,482.016 422.266,482.732 423.049,483.449 423.832,484.166 424.616,484.882 425.399,485.599 426.182,486.316 426.966,487.032 427.749,487.749 428.532,488.466 429.316,489.182 430.099,489.899 430.882,490.616 431.666,491.332 432.449,492.049 433.232,492.766 434.016,493.482 434.799,494.199 435.582,494.916 436.366,495.632 437.149,496.349 437.932,497.066 438.716,497.782 439.499,498.499 440.282,499.216 441.066,499.932 441.849,500.649 442.632,501.366 443.416,502.082 444.199,502.799 444.982,503.516 445.766,504.232 446.549,504.949 447.332,505.666 448.116,506.382 448.899,507.099 449.682,507.816 450.466,508.532 451.249,509.249 452.032,509.966 452.816,510.682 453.599,511.399 454.382,512.116 455.166,512.832 455.949,513.549 456.732,514.266 457.516,514.982 458.299,515.699 459.082,516.416 459.866,517.132 460.649,517.849 461.432,518.566 462.216,519.282 462.999,519.999 463.782,520.716 464.566,521.432 465.349,522.149 466.132,522.866 466.916,523.582 467.699,524.299 468.482,525.016 469.266,525.732 470.049,526.449 470.832,527.166 471.616,527.882 472.399,528.599 473.182,529.316 473.966,530.032 474.749,530.749 475.532,531.466 476.316,532.182 477.099,532.899 477.882,533.616 478.666,534.332 479.449,535.049 480.232,535.766 481.016,536.482 481.799,537.199 482.582,537.916 483.366,538.632 484.149,539.349 484.932,540.066 485.716,540.782 486.499,541.499 487.282,542.216 488.066,542.932 488.849,543.649 489.632,544.366 490.416,545.082 491.199,545.799 491.982,546.516 492.766,547.232 493.549,547.949 494.332,548.666 495.116,549.382 495.899,550.099 496.682,550.816 497.466,551.532 498.249,552.249 499.032,552.966 499.816,553.682 500.599,554.399 501.382,555.116 502.166,555.832 502.949,556.549 503.732,557.266 504.516,557.982 505.299,558.699 506.082,559.416 506.866,560.132 507.649,560.849 508.432,561.566 509.216,562.282 509.999,562.999 " stroke-width="5" stroke="black" fill="none"></path><path d="M 512.203 555.257 L 523.280 575.149 L 502.483 565.881 L 509.999 562.999 z" stroke-width="1" stroke="black" fill="black"></path><circle id="undefined" cx="25.9" cy="120.099" r="7.5" stroke-width="5" stroke="black" fill="black"></circle><path id="null" d="M251.374,577.19 252.283,161.770 252.471,75.81 " stroke-width="5" stroke="black" fill="none"></path></svg>