<?xml version="1.0" encoding="utf-8"?><!DOCTYPE svg PUBLIC "-//W3C//DTD SVG 1.1//EN" "http://www.w3.org/Graphics/SVG/1.1/DTD/svg11.dtd"><svg xmlns="http://www.w3.org/2000/svg" xmlns:xlink="http://www.w3.org/1999/xlink" id="preview" width="600" height="600" viewBox="0 0 600 600" xunitlength="47" yunitlength="47" xmin="0" xmax="10" ymin="0" ymax="10" ox="40" oy="40"><defs><style type="text/css">@import url("http://cdnjs.cloudflare.com/ajax/libs/KaTeX/0.2.0/katex.min.css")</style></defs><path d=" M40,90 40,560 M87,90 87,560 M134,90 134,560 M181,90 181,560 M228,90 228,560 M275,90 275,560 M322,90 322,560 M369,90 369,560 M416,90 416,560 M463,90 463,560 M510,90 510,560 M40,560 510,560 M40,513 510,513 M40,466 510,466 M40,419 510,419 M40,372 510,372 M40,325 510,325 M40,278 510,278 M40,231 510,231 M40,184 510,184 M40,137 510,137 M40,90 510,90" stroke-width="1" stroke="grey" fill="none"></path><path d="M 524.4 552.8 L 546 560 L 524.4 567.2 L 528 560 z" stroke-width="1" stroke="black" fill="black"></path><path d="M 32.8 75.6 L 40 54 L 47.2 75.6 L 40 72 z" stroke-width="1" stroke="black" fill="black"></path><path d="M22,560 528,560 M40,72 40,578 M40,567.25 40,552.75 M87,567.25 87,552.75 M134,567.25 134,552.75 M181,567.25 181,552.75 M228,567.25 228,552.75 M275,567.25 275,552.75 M322,567.25 322,552.75 M369,567.25 369,552.75 M416,567.25 416,552.75 M463,567.25 463,552.75 M510,567.25 510,552.75 M47.25,560 32.75,560 M47.25,513 32.75,513 M47.25,466 32.75,466 M47.25,419 32.75,419 M47.25,372 32.75,372 M47.25,325 32.75,325 M47.25,278 32.75,278 M47.25,231 32.75,231 M47.25,184 32.75,184 M47.25,137 32.75,137 M47.25,90 32.75,90" stroke-width="2" stroke="black" fill="none"></path><text id="null" x="40" y="42.333" font-style="italic" font-family="KaTeX_Main, serif" font-size="29" font-weight="normal" text-anchor="middle" fill="black" stroke-width="0px">y</text><text id="null" x="557.666" y="569.666" font-style="italic" font-family="KaTeX_Main, serif" font-size="29" font-weight="normal" text-anchor="start" fill="black" stroke-width="0px">x</text><path id="null" d="M25.9,75.899 26.683,76.683 27.466,77.466 28.249,78.249 29.033,79.033 29.816,79.816 30.599,80.599 31.383,81.383 32.166,82.166 32.949,82.949 33.733,83.733 34.516,84.516 35.299,85.299 36.083,86.083 36.866,86.866 37.649,87.649 38.433,88.433 39.216,89.216 39.999,89.999 40.783,90.783 41.566,91.566 42.349,92.349 43.133,93.133 43.916,93.916 44.699,94.699 45.483,95.483 46.266,96.266 47.049,97.049 47.833,97.833 48.616,98.616 49.399,99.399 50.183,100.183 50.966,100.966 51.749,101.749 52.533,102.533 53.316,103.316 54.099,104.099 54.883,104.883 55.666,105.666 56.449,106.449 57.233,107.233 58.016,108.016 58.799,108.799 59.583,109.583 60.366,110.366 61.149,111.149 61.933,111.933 62.716,112.716 63.499,113.499 64.283,114.283 65.066,115.066 65.849,115.849 66.633,116.633 67.416,117.416 68.199,118.199 68.983,118.983 69.766,119.766 70.549,120.549 71.333,121.333 72.116,122.116 72.899,122.899 73.683,123.683 74.466,124.466 75.249,125.249 76.033,126.033 76.816,126.816 77.599,127.599 78.383,128.383 79.166,129.166 79.949,129.949 80.733,130.733 81.516,131.516 82.299,132.299 83.083,133.083 83.866,133.866 84.649,134.649 85.433,135.433 86.216,136.216 86.999,136.999 87.783,137.783 88.566,138.566 89.349,139.349 90.133,140.133 90.916,140.916 91.699,141.699 92.483,142.483 93.266,143.266 94.049,144.049 94.833,144.833 95.616,145.616 96.399,146.399 97.183,147.183 97.966,147.966 98.749,148.749 99.533,149.533 100.316,150.316 101.099,151.099 101.883,151.883 102.666,152.666 103.449,153.449 104.233,154.233 105.016,155.016 105.799,155.799 106.583,156.583 107.366,157.366 108.149,158.149 108.933,158.933 109.716,159.716 110.499,160.499 111.283,161.283 112.066,162.066 112.849,162.849 113.633,163.633 114.416,164.416 115.199,165.199 115.983,165.983 116.766,166.766 117.549,167.549 118.333,168.333 119.116,169.116 119.899,169.899 120.683,170.683 121.466,171.466 122.249,172.249 123.033,173.033 123.816,173.816 124.599,174.599 125.383,175.383 126.166,176.166 126.949,176.949 127.733,177.733 128.516,178.516 129.299,179.299 130.083,180.083 130.866,180.866 131.649,181.649 132.433,182.433 133.216,183.216 133.999,183.999 134.783,184.783 135.566,185.566 136.349,186.349 137.133,187.133 137.916,187.916 138.699,188.699 139.483,189.483 140.266,190.266 141.049,191.049 141.833,191.833 142.616,192.616 143.399,193.399 144.183,194.183 144.966,194.966 145.749,195.749 146.533,196.533 147.316,197.316 148.099,198.099 148.883,198.883 149.666,199.666 150.449,200.449 151.233,201.233 152.016,202.016 152.799,202.799 153.583,203.583 154.366,204.366 155.149,205.149 155.933,205.933 156.716,206.716 157.499,207.499 158.283,208.283 159.066,209.066 159.849,209.849 160.633,210.633 161.416,211.416 162.199,212.199 162.983,212.983 163.766,213.766 164.549,214.549 165.333,215.333 166.116,216.116 166.899,216.899 167.683,217.683 168.466,218.466 169.249,219.249 170.033,220.033 170.816,220.816 171.599,221.599 172.383,222.383 173.166,223.166 173.949,223.949 174.733,224.733 175.516,225.516 176.299,226.299 177.083,227.083 177.866,227.866 178.649,228.649 179.433,229.433 180.216,230.216 180.999,230.999 181.783,231.783 182.566,232.566 183.349,233.349 184.133,234.133 184.916,234.916 185.699,235.699 186.483,236.483 187.266,237.266 188.049,238.049 188.833,238.833 189.616,239.616 190.399,240.399 191.183,241.183 191.966,241.966 192.749,242.749 193.533,243.533 194.316,244.316 195.099,245.099 195.883,245.883 196.666,246.666 197.449,247.449 198.233,248.233 199.016,249.016 199.799,249.799 200.583,250.583 201.366,251.366 202.149,252.149 202.933,252.933 203.716,253.716 204.499,254.499 205.283,255.283 206.066,256.066 206.849,256.849 207.633,257.633 208.416,258.416 209.199,259.199 209.983,259.983 210.766,260.766 211.549,261.549 212.333,262.333 213.116,263.116 213.899,263.899 214.683,264.683 215.466,265.466 216.249,266.249 217.033,267.033 217.816,267.816 218.599,268.599 219.383,269.383 220.166,270.166 220.949,270.949 221.733,271.733 222.516,272.516 223.299,273.299 224.083,274.083 224.866,274.866 225.649,275.649 226.433,276.433 227.216,277.216 227.999,277.999 228.783,278.783 229.566,279.566 230.349,280.349 231.133,281.133 231.916,281.916 232.699,282.699 233.483,283.483 234.266,284.266 235.049,285.049 235.833,285.833 236.616,286.616 237.399,287.399 238.183,288.183 238.966,288.966 239.749,289.749 240.533,290.533 241.316,291.316 242.099,292.099 242.883,292.883 243.666,293.666 244.449,294.449 245.233,295.233 246.016,296.016 246.799,296.799 247.583,297.583 248.366,298.366 249.149,299.149 249.933,299.933 250.716,300.716 251.499,301.499 252.283,302.283 253.066,303.066 253.849,303.849 254.633,304.633 255.416,305.416 256.199,306.199 256.983,306.983 257.766,307.766 258.549,308.549 259.333,309.333 260.116,310.116 260.899,310.899 261.683,311.683 262.466,312.466 263.249,313.249 264.033,314.033 264.816,314.816 265.599,315.599 266.383,316.383 267.166,317.166 267.949,317.949 268.733,318.733 269.516,319.516 270.299,320.299 271.083,321.083 271.866,321.866 272.649,322.649 273.433,323.433 274.216,324.216 274.999,324.999 275.783,325.783 276.566,326.566 277.349,327.349 278.133,328.133 278.916,328.916 279.699,329.699 280.483,330.483 281.266,331.266 282.049,332.049 282.833,332.833 283.616,333.616 284.399,334.399 285.183,335.183 285.966,335.966 286.749,336.749 287.533,337.533 288.316,338.316 289.099,339.099 289.883,339.883 290.666,340.666 291.449,341.449 292.233,342.233 293.016,343.016 293.799,343.799 294.583,344.583 295.366,345.366 296.149,346.149 296.933,346.933 297.716,347.716 298.499,348.499 299.283,349.283 300.066,350.066 300.849,350.849 301.633,351.633 302.416,352.416 303.199,353.199 303.983,353.983 304.766,354.766 305.549,355.549 306.333,356.333 307.116,357.116 307.899,357.899 308.683,358.683 309.466,359.466 310.249,360.249 311.033,361.033 311.816,361.816 312.599,362.599 313.383,363.383 314.166,364.166 314.949,364.949 315.733,365.733 316.516,366.516 317.299,367.299 318.083,368.083 318.866,368.866 319.649,369.649 320.433,370.433 321.216,371.216 321.999,371.999 322.783,372.783 323.566,373.566 324.349,374.349 325.133,375.133 325.916,375.916 326.699,376.699 327.483,377.483 328.266,378.266 329.049,379.049 329.833,379.833 330.616,380.616 331.399,381.399 332.183,382.183 332.966,382.966 333.749,383.749 334.533,384.533 335.316,385.316 336.099,386.099 336.883,386.883 337.666,387.666 338.449,388.449 339.233,389.233 340.016,390.016 340.799,390.799 341.583,391.583 342.366,392.366 343.149,393.149 343.933,393.933 344.716,394.716 345.499,395.499 346.283,396.283 347.066,397.066 347.849,397.849 348.633,398.633 349.416,399.416 350.199,400.199 350.983,400.983 351.766,401.766 352.549,402.549 353.333,403.333 354.116,404.116 354.899,404.899 355.683,405.683 356.466,406.466 357.249,407.249 358.033,408.033 358.816,408.816 359.599,409.599 360.382,410.382 361.166,411.166 361.949,411.949 362.732,412.732 363.516,413.516 364.299,414.299 365.082,415.082 365.866,415.866 366.649,416.649 367.432,417.432 368.216,418.216 368.999,418.999 369.782,419.782 370.566,420.566 371.349,421.349 372.132,422.132 372.916,422.916 373.699,423.699 374.482,424.482 375.266,425.266 376.049,426.049 376.832,426.832 377.616,427.616 378.399,428.399 379.182,429.182 379.966,429.966 380.749,430.749 381.532,431.532 382.316,432.316 383.099,433.099 383.882,433.882 384.666,434.666 385.449,435.449 386.232,436.232 387.016,437.016 387.799,437.799 388.582,438.582 389.366,439.366 390.149,440.149 390.932,440.932 391.716,441.716 392.499,442.499 393.282,443.282 394.066,444.066 394.849,444.849 395.632,445.632 396.416,446.416 397.199,447.199 397.982,447.982 398.766,448.766 399.549,449.549 400.332,450.332 401.116,451.116 401.899,451.899 402.682,452.682 403.466,453.466 404.249,454.249 405.032,455.032 405.816,455.816 406.599,456.599 407.382,457.382 408.166,458.166 408.949,458.949 409.732,459.732 410.516,460.516 411.299,461.299 412.082,462.082 412.866,462.866 413.649,463.649 414.432,464.432 415.216,465.216 415.999,465.999 416.782,466.782 417.566,467.566 418.349,468.349 419.132,469.132 419.916,469.916 420.699,470.699 421.482,471.482 422.266,472.266 423.049,473.049 423.832,473.832 424.616,474.616 425.399,475.399 426.182,476.182 426.966,476.966 427.749,477.749 428.532,478.532 429.316,479.316 430.099,480.099 430.882,480.882 431.666,481.666 432.449,482.449 433.232,483.232 434.016,484.016 434.799,484.799 435.582,485.582 436.366,486.366 437.149,487.149 437.932,487.932 438.716,488.716 439.499,489.499 440.282,490.282 441.066,491.066 441.849,491.849 442.632,492.632 443.416,493.416 444.199,494.199 444.982,494.982 445.766,495.766 446.549,496.549 447.332,497.332 448.116,498.116 448.899,498.899 449.682,499.682 450.466,500.466 451.249,501.249 452.032,502.032 452.816,502.816 453.599,503.599 454.382,504.382 455.166,505.166 455.949,505.949 456.732,506.732 457.516,507.516 458.299,508.299 459.082,509.082 459.866,509.866 460.649,510.649 461.432,511.432 462.216,512.216 462.999,512.999 463.782,513.782 464.566,514.566 465.349,515.349 466.132,516.132 466.916,516.916 467.699,517.699 468.482,518.482 469.266,519.266 470.049,520.049 470.832,520.832 471.616,521.616 472.399,522.399 473.182,523.182 473.966,523.966 474.749,524.749 475.532,525.532 476.316,526.316 477.099,527.099 477.882,527.882 478.666,528.666 479.449,529.449 480.232,530.232 481.016,531.016 481.799,531.799 482.582,532.582 483.366,533.366 484.149,534.149 484.932,534.932 485.716,535.716 486.499,536.499 487.282,537.282 488.066,538.066 488.849,538.849 489.632,539.632 490.416,540.416 491.199,541.199 491.982,541.982 492.766,542.766 493.549,543.549 494.332,544.332 495.116,545.116 495.899,545.899 496.682,546.682 497.466,547.466 498.249,548.249 499.032,549.032 499.816,549.816 500.599,550.599 501.382,551.382 502.166,552.166 502.949,552.949 503.732,553.732 504.516,554.516 505.299,555.299 506.082,556.082 506.866,556.866 507.649,557.649 508.432,558.432 509.216,559.216 509.999,559.999 " stroke-width="5" stroke="black" fill="none"></path><path d="M 512.545 552.362 L 522.727 572.727 L 502.362 562.545 L 509.999 559.999 z" stroke-width="1" stroke="black" fill="black"></path><path id="null" d="M77.451,75.899 78.383,78.246 79.127,80.110 79.871,81.967 80.615,83.817 81.359,85.660 82.104,87.496 82.848,89.325 83.592,91.147 84.336,92.962 85.080,94.770 85.824,96.571 86.569,98.364 87.313,100.151 88.057,101.930 88.801,103.703 89.545,105.468 90.289,107.226 91.034,108.978 91.778,110.722 92.522,112.459 93.266,114.189 94.010,115.912 94.754,117.628 95.499,119.336 96.243,121.038 96.987,122.733 97.731,124.420 98.475,126.101 99.219,127.774 99.964,129.441 100.708,131.100 101.452,132.752 102.196,134.397 102.940,136.035 103.684,137.666 104.429,139.290 105.173,140.907 105.917,142.517 106.661,144.120 107.405,145.716 108.149,147.304 108.894,148.886 109.638,150.460 110.382,152.028 111.126,153.588 111.870,155.141 112.614,156.687 113.359,158.226 114.103,159.759 114.847,161.284 115.591,162.801 116.335,164.312 117.079,165.816 117.824,167.313 118.568,168.802 119.312,170.285 120.056,171.760 120.800,173.229 121.544,174.690 122.289,176.145 123.033,177.592 123.777,179.032 124.521,180.465 125.265,181.891 126.009,183.310 126.754,184.722 127.498,186.127 128.242,187.524 128.986,188.915 129.730,190.299 130.474,191.675 131.219,193.045 131.963,194.407 132.707,195.762 133.451,197.110 134.195,198.452 134.939,199.786 135.684,201.113 136.428,202.433 137.172,203.746 137.916,205.051 138.660,206.350 139.404,207.642 140.149,208.927 140.893,210.204 141.637,211.475 142.381,212.738 143.125,213.994 143.869,215.244 144.614,216.486 145.358,217.721 146.102,218.949 146.846,220.170 147.590,221.384 148.334,222.591 149.079,223.790 149.823,224.983 150.567,226.169 151.311,227.347 152.055,228.519 152.799,229.683 153.544,230.841 154.288,231.991 155.032,233.134 155.776,234.270 156.520,235.399 157.264,236.522 158.009,237.636 158.753,238.744 159.497,239.845 160.241,240.939 160.985,242.026 161.729,243.105 162.474,244.178 163.218,245.243 163.962,246.302 164.706,247.353 165.450,248.397 166.194,249.434 166.939,250.464 167.683,251.487 168.427,252.503 169.171,253.512 169.915,254.514 170.659,255.509 171.404,256.497 172.148,257.477 172.892,258.451 173.636,259.417 174.380,260.377 175.124,261.329 175.869,262.274 176.613,263.213 177.357,264.144 178.101,265.068 178.845,265.985 179.589,266.895 180.334,267.798 181.078,268.693 181.822,269.582 182.566,270.464 183.310,271.338 184.054,272.206 184.799,273.066 185.543,273.920 186.287,274.766 187.031,275.605 187.775,276.437 188.519,277.262 189.264,278.080 190.008,278.891 190.752,279.695 191.496,280.492 192.240,281.282 192.984,282.065 193.729,282.840 194.473,283.609 195.217,284.370 195.961,285.125 196.705,285.872 197.449,286.612 198.194,287.345 198.938,288.071 199.682,288.790 200.426,289.502 201.170,290.207 201.914,290.905 202.659,291.596 203.403,292.280 204.147,292.956 204.891,293.626 205.635,294.288 206.379,294.944 207.124,295.592 207.868,296.233 208.612,296.868 209.356,297.495 210.100,298.115 210.844,298.728 211.589,299.334 212.333,299.933 213.077,300.525 213.821,301.109 214.565,301.687 215.309,302.257 216.054,302.821 216.798,303.377 217.542,303.927 218.286,304.469 219.030,305.004 219.774,305.533 220.519,306.054 221.263,306.568 222.007,307.075 222.751,307.575 223.495,308.067 224.239,308.553 224.984,309.032 225.728,309.503 226.472,309.968 227.216,310.425 227.960,310.876 228.704,311.319 229.449,311.755 230.193,312.185 230.937,312.607 231.681,313.022 232.425,313.430 233.169,313.831 233.913,314.225 234.658,314.611 235.402,314.991 236.146,315.364 236.890,315.729 237.634,316.088 238.378,316.439 239.123,316.784 239.867,317.121 240.611,317.451 241.355,317.774 242.099,318.090 242.843,318.399 243.588,318.701 244.332,318.996 245.076,319.284 245.820,319.565 246.564,319.838 247.308,320.105 248.053,320.365 248.797,320.617 249.541,320.862 250.285,321.101 251.029,321.332 251.773,321.556 252.518,321.773 253.262,321.983 254.006,322.186 254.750,322.382 255.494,322.571 256.238,322.753 256.983,322.928 257.727,323.095 258.471,323.256 259.215,323.409 259.959,323.556 260.703,323.695 261.448,323.827 262.192,323.952 262.936,324.071 263.680,324.182 264.424,324.286 265.168,324.383 265.913,324.472 266.657,324.555 267.401,324.631 268.145,324.700 268.889,324.761 269.633,324.816 270.378,324.863 271.122,324.904 271.866,324.937 272.610,324.963 273.354,324.982 274.098,324.994 274.843,324.999 275.587,324.997 276.331,324.988 277.075,324.972 277.819,324.949 278.563,324.918 279.308,324.881 280.052,324.837 280.796,324.785 281.540,324.726 282.284,324.661 283.028,324.588 283.773,324.508 284.517,324.421 285.261,324.327 286.005,324.226 286.749,324.118 287.493,324.003 288.238,323.881 288.982,323.752 289.726,323.615 290.470,323.472 291.214,323.321 291.958,323.164 292.703,322.999 293.447,322.827 294.191,322.649 294.935,322.463 295.679,322.270 296.423,322.070 297.168,321.863 297.912,321.649 298.656,321.427 299.400,321.199 300.144,320.964 300.888,320.721 301.633,320.472 302.377,320.215 303.121,319.952 303.865,319.681 304.609,319.403 305.353,319.118 306.098,318.827 306.842,318.528 307.586,318.222 308.330,317.908 309.074,317.588 309.818,317.261 310.563,316.927 311.307,316.585 312.051,316.237 312.795,315.881 313.539,315.519 314.283,315.149 315.028,314.772 315.772,314.389 316.516,313.998 317.260,313.600 318.004,313.195 318.748,312.783 319.493,312.364 320.237,311.937 320.981,311.504 321.725,311.064 322.469,310.616 323.213,310.162 323.958,309.700 324.702,309.232 325.446,308.756 326.190,308.273 326.934,307.783 327.678,307.286 328.423,306.782 329.167,306.271 329.911,305.753 330.655,305.228 331.399,304.696 332.143,304.156 332.888,303.610 333.632,303.056 334.376,302.496 335.120,301.928 335.864,301.354 336.608,300.772 337.353,300.183 338.097,299.587 338.841,298.984 339.585,298.374 340.329,297.757 341.073,297.133 341.818,296.502 342.562,295.863 343.306,295.218 344.050,294.566 344.794,293.906 345.538,293.239 346.283,292.566 347.027,291.885 347.771,291.197 348.515,290.502 349.259,289.801 350.003,289.092 350.748,288.375 351.492,287.652 352.236,286.922 352.980,286.185 353.724,285.440 354.468,284.689 355.213,283.931 355.957,283.165 356.701,282.392 357.445,281.613 358.189,280.826 358.933,280.032 359.678,279.231 360.422,278.423 361.166,277.608 361.910,276.786 362.654,275.957 363.398,275.121 364.143,274.277 364.887,273.427 365.631,272.569 366.375,271.705 367.119,270.833 367.863,269.955 368.608,269.069 369.352,268.176 370.096,267.276 370.840,266.369 371.584,265.455 372.328,264.534 373.073,263.606 373.817,262.671 374.561,261.728 375.305,260.779 376.049,259.823 376.793,258.859 377.538,257.889 378.282,256.911 379.026,255.926 379.770,254.934 380.514,253.936 381.258,252.930 382.003,251.917 382.747,250.897 383.491,249.869 384.235,248.835 384.979,247.794 385.723,246.746 386.468,245.690 387.212,244.628 387.956,243.558 388.700,242.482 389.444,241.398 390.188,240.307 390.933,239.209 391.677,238.104 392.421,236.992 393.165,235.873 393.909,234.747 394.653,233.614 395.398,232.474 396.142,231.327 396.886,230.172 397.630,229.011 398.374,227.842 399.118,226.667 399.862,225.484 400.607,224.294 401.351,223.097 402.095,221.894 402.839,220.683 403.583,219.465 404.327,218.240 405.072,217.007 405.816,215.768 406.560,214.522 407.304,213.269 408.048,212.008 408.792,210.741 409.537,209.466 410.281,208.184 411.025,206.896 411.769,205.600 412.513,204.297 413.257,202.987 414.002,201.670 414.746,200.346 415.490,199.015 416.234,197.677 416.978,196.332 417.722,194.979 418.467,193.620 419.211,192.253 419.955,190.880 420.699,189.499 421.443,188.111 422.187,186.717 422.932,185.315 423.676,183.906 424.420,182.490 425.164,181.067 425.908,179.637 426.652,178.200 427.397,176.756 428.141,175.304 428.885,173.846 429.629,172.380 430.373,170.908 431.117,169.428 431.862,167.942 432.606,166.448 433.350,164.947 434.094,163.439 434.838,161.924 435.582,160.402 436.327,158.873 437.071,157.337 437.815,155.794 438.559,154.244 439.303,152.686 440.047,151.122 440.792,149.550 441.536,147.972 442.280,146.386 443.024,144.794 443.768,143.194 444.512,141.587 445.257,139.973 446.001,138.352 446.745,136.724 447.489,135.089 448.233,133.447 448.977,131.797 449.722,130.141 450.466,128.478 451.210,126.807 451.954,125.130 452.698,123.445 453.442,121.753 454.187,120.055 454.931,118.349 455.675,116.636 456.419,114.916 457.163,113.189 457.907,111.455 458.652,109.714 459.396,107.966 460.140,106.210 460.884,104.448 461.628,102.678 462.372,100.902 463.117,99.118 463.861,97.328 464.605,95.530 465.349,93.725 466.093,91.913 466.837,90.094 467.582,88.268 468.326,86.435 469.070,84.595 469.814,82.748 470.558,80.894 471.302,79.032 472.047,77.164 472.548,75.899 " stroke-width="5" stroke="red" fill="none"></path><path d="M 72.089 81.904 L 70.804 59.172 L 85.471 76.586 L 77.451 75.899 z" stroke-width="1" stroke="red" fill="red"></path><path d="M 464.528 76.590 L 479.187 59.168 L 477.913 81.901 L 472.548 75.899 z" stroke-width="1" stroke="red" fill="red"></path><path id="null" d="M63.5,234.525 64.244,237.863 64.988,241.180 65.732,244.475 66.476,247.750 67.220,251.003 67.964,254.235 68.709,257.446 69.453,260.636 70.197,263.804 70.941,266.952 71.685,270.078 72.429,273.182 73.174,276.266 73.918,279.328 74.662,282.370 75.406,285.390 76.150,288.389 76.894,291.366 77.639,294.323 78.383,297.258 79.127,300.172 79.871,303.064 80.615,305.936 81.359,308.786 82.104,311.615 82.848,314.423 83.592,317.210 84.336,319.976 85.080,322.720 85.824,325.443 86.569,328.145 87.313,330.826 88.057,333.485 88.801,336.123 89.545,338.740 90.289,341.336 91.034,343.911 91.778,346.464 92.522,348.996 93.266,351.507 94.010,353.997 94.754,356.466 95.499,358.913 96.243,361.339 96.987,363.744 97.731,366.128 98.475,368.491 99.219,370.832 99.964,373.152 100.708,375.451 101.452,377.729 102.196,379.985 102.940,382.220 103.684,384.435 104.429,386.627 105.173,388.799 105.917,390.950 106.661,393.079 107.405,395.187 108.149,397.274 108.894,399.339 109.638,401.384 110.382,403.407 111.126,405.409 111.870,407.390 112.614,409.349 113.359,411.288 114.103,413.205 114.847,415.101 115.591,416.975 116.335,418.829 117.079,420.661 117.824,422.472 118.568,424.262 119.312,426.031 120.056,427.778 120.800,429.505 121.544,431.210 122.289,432.894 123.033,434.556 123.777,436.198 124.521,437.818 125.265,439.417 126.009,440.995 126.754,442.552 127.498,444.087 128.242,445.601 128.986,447.094 129.730,448.566 130.474,450.016 131.219,451.446 131.963,452.854 132.707,454.241 133.451,455.607 134.195,456.951 134.939,458.274 135.684,459.577 136.428,460.857 137.172,462.117 137.916,463.356 138.660,464.573 139.404,465.769 140.149,466.944 140.893,468.097 141.637,469.230 142.381,470.341 143.125,471.431 143.869,472.500 144.614,473.548 145.358,474.574 146.102,475.579 146.846,476.563 147.590,477.526 148.334,478.467 149.079,479.388 149.823,480.287 150.567,481.165 151.311,482.022 152.055,482.857 152.799,483.671 153.544,484.465 154.288,485.236 155.032,485.987 155.776,486.717 156.520,487.425 157.264,488.112 158.009,488.778 158.753,489.422 159.497,490.046 160.241,490.648 160.985,491.229 161.729,491.789 162.474,492.327 163.218,492.845 163.962,493.341 164.706,493.816 165.450,494.270 166.194,494.702 166.939,495.114 167.683,495.504 168.427,495.873 169.171,496.220 169.915,496.547 170.659,496.852 171.404,497.136 172.148,497.399 172.892,497.641 173.636,497.861 174.380,498.060 175.124,498.239 175.869,498.395 176.613,498.531 177.357,498.645 178.101,498.739 178.845,498.811 179.589,498.861 180.334,498.891 181.078,498.899 181.822,498.887 182.566,498.853 183.310,498.797 184.054,498.721 184.799,498.623 185.543,498.504 186.287,498.364 187.031,498.203 187.775,498.020 188.519,497.817 189.264,497.592 190.008,497.346 190.752,497.078 191.496,496.790 192.240,496.480 192.984,496.149 193.729,495.797 194.473,495.423 195.217,495.029 195.961,494.613 196.705,494.176 197.449,493.718 198.194,493.238 198.938,492.738 199.682,492.216 200.426,491.673 201.170,491.109 201.914,490.523 202.659,489.916 203.403,489.289 204.147,488.639 204.891,487.969 205.635,487.278 206.379,486.565 207.124,485.831 207.868,485.076 208.612,484.300 209.356,483.502 210.100,482.683 210.844,481.843 211.589,480.982 212.333,480.100 213.077,479.196 213.821,478.271 214.565,477.325 215.309,476.358 216.054,475.370 216.798,474.360 217.542,473.329 218.286,472.277 219.030,471.204 219.774,470.109 220.519,468.994 221.263,467.857 222.007,466.699 222.751,465.519 223.495,464.319 224.239,463.097 224.984,461.854 225.728,460.590 226.472,459.305 227.216,457.998 227.960,456.670 228.704,455.321 229.449,453.951 230.193,452.560 230.937,451.147 231.681,449.713 232.425,448.258 233.169,446.782 233.913,445.285 234.658,443.766 235.402,442.226 236.146,440.665 236.890,439.083 237.634,437.479 238.378,435.855 239.123,434.209 239.867,432.542 240.611,430.853 241.355,429.144 242.099,427.413 242.843,425.661 243.588,423.888 244.332,422.093 245.076,420.278 245.820,418.441 246.564,416.583 247.308,414.704 248.053,412.803 248.797,410.882 249.541,408.939 250.285,406.975 251.029,404.990 251.773,402.983 252.518,400.956 253.262,398.907 254.006,396.837 254.750,394.745 255.494,392.633 256.238,390.499 256.983,388.344 257.727,386.168 258.471,383.971 259.215,381.752 259.959,379.513 260.703,377.252 261.448,374.969 262.192,372.666 262.936,370.341 263.680,367.996 264.424,365.629 265.168,363.240 265.913,360.831 266.657,358.400 267.401,355.949 268.145,353.476 268.889,350.981 269.633,348.466 270.378,345.929 271.122,343.371 271.866,340.792 272.610,338.192 273.354,335.570 274.098,332.928 274.843,330.264 275.587,327.579 276.331,324.872 277.075,322.145 277.819,319.396 278.563,316.626 279.308,313.835 280.052,311.022 280.796,308.189 281.540,305.334 282.284,302.458 283.028,299.561 283.773,296.642 284.517,293.703 285.261,290.742 286.005,287.760 286.749,284.757 287.493,281.732 288.238,278.687 288.982,275.620 289.726,272.532 290.470,269.422 291.214,266.292 291.958,263.140 292.703,259.967 293.447,256.773 294.191,253.558 294.935,250.321 295.679,247.063 296.423,243.784 297.168,240.484 297.912,237.163 298.656,233.820 299.400,230.456 300.144,227.071 300.888,223.665 301.633,220.238 302.377,216.789 303.121,213.319 303.865,209.828 304.609,206.316 305.353,202.782 306.098,199.228 306.842,195.652 307.586,192.055 308.330,188.436 309.074,184.797 309.818,181.136 310.563,177.454 311.307,173.751 312.051,170.027 312.795,166.281 313.539,162.514 314.283,158.726 315.028,154.917 315.772,151.087 316.516,147.235 317.260,143.362 318.004,139.468 318.748,135.553 319.493,131.617 320.237,127.659 320.981,123.680 321.725,119.680 322.469,115.659 323.213,111.616 323.958,107.552 324.702,103.468 325.446,99.361 326.190,95.234 326.934,91.086 327.678,86.916 328.423,82.725 329.167,78.513 329.626,75.899 " stroke-width="5" stroke="green" fill="none"></path><path d="M 321.912 78.199 L 332.742 58.171 L 336.094 80.692 L 329.626 75.899 z" stroke-width="1" stroke="green" fill="green"></path><path id="null" d="M30.6,75.899 32.166,78.249 32.949,79.424 33.733,80.599 34.516,81.774 35.299,82.949 36.083,84.124 36.866,85.299 37.649,86.474 38.433,87.649 39.216,88.824 39.999,89.999 40.783,91.174 41.566,92.349 42.349,93.524 43.133,94.699 43.916,95.874 44.699,97.049 45.483,98.224 46.266,99.399 47.049,100.574 47.833,101.749 48.616,102.924 49.399,104.099 50.183,105.274 50.966,106.449 51.749,107.624 52.533,108.799 53.316,109.974 54.099,111.149 54.883,112.324 55.666,113.499 56.449,114.674 57.233,115.849 58.016,117.024 58.799,118.199 59.583,119.374 60.366,120.549 61.149,121.724 61.933,122.899 62.716,124.074 63.499,125.249 64.283,126.424 65.066,127.599 65.849,128.774 66.633,129.949 67.416,131.124 68.199,132.299 68.983,133.474 69.766,134.649 70.549,135.824 71.333,136.999 72.116,138.174 72.899,139.349 73.683,140.524 74.466,141.699 75.249,142.874 76.033,144.049 76.816,145.224 77.599,146.399 78.383,147.574 79.166,148.749 79.949,149.924 80.733,151.099 81.516,152.274 82.299,153.449 83.083,154.624 83.866,155.799 84.649,156.974 85.433,158.149 86.216,159.324 86.999,160.499 87.783,161.674 88.566,162.849 89.349,164.024 90.133,165.199 90.916,166.374 91.699,167.549 92.483,168.724 93.266,169.899 94.049,171.074 94.833,172.249 95.616,173.424 96.399,174.599 97.183,175.774 97.966,176.949 98.749,178.124 99.533,179.299 100.316,180.474 101.099,181.649 101.883,182.824 102.666,183.999 103.449,185.174 104.233,186.349 105.016,187.524 105.799,188.699 106.583,189.874 107.366,191.049 108.149,192.224 108.933,193.399 109.716,194.574 110.499,195.749 111.283,196.924 112.066,198.099 112.849,199.274 113.633,200.449 114.416,201.624 115.199,202.799 115.983,203.974 116.766,205.149 117.549,206.324 118.333,207.499 119.116,208.674 119.899,209.849 120.683,211.024 121.466,212.199 122.249,213.374 123.033,214.549 123.816,215.724 124.599,216.899 125.383,218.074 126.166,219.249 126.949,220.424 127.733,221.599 128.516,222.774 129.299,223.949 130.083,225.124 130.866,226.299 131.649,227.474 132.433,228.649 133.216,229.824 133.999,230.999 134.783,232.174 135.566,233.349 136.349,234.524 137.133,235.699 137.916,236.874 138.699,238.049 139.483,239.224 140.266,240.399 141.049,241.574 141.833,242.749 142.616,243.924 143.399,245.099 144.183,246.274 144.966,247.449 145.749,248.624 146.533,249.799 147.316,250.974 148.099,252.149 148.883,253.324 149.666,254.499 150.449,255.674 151.233,256.849 152.016,258.024 152.799,259.199 153.583,260.374 154.366,261.549 155.149,262.724 155.933,263.899 156.716,265.074 157.499,266.249 158.283,267.424 159.066,268.599 159.849,269.774 160.633,270.949 161.416,272.124 162.199,273.299 162.983,274.474 163.766,275.649 164.549,276.824 165.333,277.999 166.116,279.174 166.899,280.349 167.683,281.524 168.466,282.699 169.249,283.874 170.033,285.049 170.816,286.224 171.599,287.399 172.383,288.574 173.166,289.749 173.949,290.924 174.733,292.099 175.516,293.274 176.299,294.449 177.083,295.624 177.866,296.799 178.649,297.974 179.433,299.149 180.216,300.324 180.999,301.499 181.783,302.674 182.566,303.849 183.349,305.024 184.133,306.199 184.916,307.374 185.699,308.549 186.483,309.724 187.266,310.899 188.049,312.074 188.833,313.249 189.616,314.424 190.399,315.599 191.183,316.774 191.966,317.949 192.749,319.124 193.533,320.299 194.316,321.474 195.099,322.649 195.883,323.824 196.666,324.999 197.449,326.174 198.233,327.349 199.016,328.524 199.799,329.699 200.583,330.874 201.366,332.049 202.149,333.224 202.933,334.399 203.716,335.574 204.499,336.749 205.283,337.924 206.066,339.099 206.849,340.274 207.633,341.449 208.416,342.624 209.199,343.799 209.983,344.974 210.766,346.149 211.549,347.324 212.333,348.499 213.116,349.674 213.899,350.849 214.683,352.024 215.466,353.199 216.249,354.374 217.033,355.549 217.816,356.724 218.599,357.899 219.383,359.074 220.166,360.249 220.949,361.424 221.733,362.599 222.516,363.774 223.299,364.949 224.083,366.124 224.866,367.299 225.649,368.474 226.433,369.649 227.216,370.824 227.999,371.999 228.783,373.174 229.566,374.349 230.349,375.524 231.133,376.699 231.916,377.874 232.699,379.049 233.483,380.224 234.266,381.399 235.049,382.574 235.833,383.749 236.616,384.924 237.399,386.099 238.183,387.274 238.966,388.449 239.749,389.624 240.533,390.799 241.316,391.974 242.099,393.149 242.883,394.324 243.666,395.499 244.449,396.674 245.233,397.849 246.016,399.024 246.799,400.199 247.583,401.374 248.366,402.549 249.149,403.724 249.933,404.899 250.716,406.074 251.499,407.249 252.283,408.424 253.066,409.599 253.849,410.774 254.633,411.949 255.416,413.124 256.199,414.299 256.983,415.474 257.766,416.649 258.549,417.824 259.333,418.999 260.116,420.174 260.899,421.349 261.683,422.524 262.466,423.699 263.249,424.874 264.033,426.049 264.816,427.224 265.599,428.399 266.383,429.574 267.166,430.749 267.949,431.924 268.733,433.099 269.516,434.274 270.299,435.449 271.083,436.624 271.866,437.799 272.649,438.974 273.433,440.149 274.216,441.324 274.999,442.499 275.783,443.674 276.566,444.849 277.349,446.024 278.133,447.199 278.916,448.374 279.699,449.549 280.483,450.724 281.266,451.899 282.049,453.074 282.833,454.249 283.616,455.424 284.399,456.599 285.183,457.774 285.966,458.949 286.749,460.124 287.533,461.299 288.316,462.474 289.099,463.649 289.883,464.824 290.666,465.999 291.449,467.174 292.233,468.349 293.016,469.524 293.799,470.699 294.583,471.874 295.366,473.049 296.149,474.224 296.933,475.399 297.716,476.574 298.499,477.749 299.283,478.924 300.066,480.099 300.849,481.274 301.633,482.449 302.416,483.624 303.199,484.799 303.983,485.974 304.766,487.149 305.549,488.324 306.333,489.499 307.116,490.674 307.899,491.849 308.683,493.024 309.466,494.199 310.249,495.374 311.033,496.549 311.816,497.724 312.599,498.899 313.383,500.074 314.166,501.249 314.949,502.424 315.733,503.599 316.516,504.774 317.299,505.949 318.083,507.124 318.866,508.299 319.649,509.474 320.433,510.649 321.216,511.824 321.999,512.999 322.783,514.174 323.566,515.349 324.349,516.524 325.133,517.699 325.916,518.874 326.699,520.049 327.483,521.224 328.266,522.399 329.049,523.574 329.833,524.749 330.616,525.924 331.399,527.099 332.183,528.274 332.966,529.449 333.749,530.624 334.533,531.799 335.316,532.974 336.099,534.149 336.883,535.324 337.666,536.499 338.449,537.674 339.233,538.849 340.016,540.024 340.799,541.199 341.583,542.374 342.366,543.549 343.149,544.724 343.933,545.899 344.716,547.074 345.499,548.249 346.283,549.424 347.066,550.599 347.849,551.774 348.633,552.949 349.416,554.124 350.199,555.299 350.983,556.474 351.766,557.649 352.549,558.824 353.333,559.999 354.116,561.174 354.899,562.349 355.683,563.524 356.466,564.699 357.249,565.874 358.033,567.049 358.816,568.224 359.599,569.399 360.382,570.574 361.166,571.749 361.949,572.924 362.732,574.099 362.733,574.1 " stroke-width="5" stroke="blue" fill="none"></path><path d="M 26.606 82.889 L 20.615 60.923 L 38.587 74.901 L 30.6 75.899 z" stroke-width="1" stroke="blue" fill="blue"></path><path d="M 366.727 567.110 L 372.717 589.076 L 354.745 575.098 L 362.733 574.1 z" stroke-width="1" stroke="blue" fill="blue"></path></svg>