<?xml version="1.0" encoding="utf-8"?><!DOCTYPE svg PUBLIC "-//W3C//DTD SVG 1.1//EN" "http://www.w3.org/Graphics/SVG/1.1/DTD/svg11.dtd"><svg xmlns="http://www.w3.org/2000/svg" xmlns:xlink="http://www.w3.org/1999/xlink" id="preview" width="600" height="603" viewBox="0 0 600 603" xunitlength="94" yunitlength="43" xmin="0" xmax="5" ymin="-1" ymax="10" ox="40" oy="83"><defs><style type="text/css">@import url("http://cdnjs.cloudflare.com/ajax/libs/KaTeX/0.2.0/katex.min.css")</style></defs><path d=" M40,90 40,563 M134,90 134,563 M228,90 228,563 M322,90 322,563 M416,90 416,563 M510,90 510,563 M40,520 510,520 M40,563 510,563 M40,477 510,477 M40,434 510,434 M40,391 510,391 M40,348 510,348 M40,305 510,305 M40,262 510,262 M40,219 510,219 M40,176 510,176 M40,133 510,133 M40,90 510,90" stroke-width="1" stroke="grey" fill="none"></path><path d="M 524.4 512.8 L 546 520 L 524.4 527.2 L 528 520 z" stroke-width="1" stroke="black" fill="black"></path><path d="M 32.8 75.6 L 40 54 L 47.2 75.6 L 40 72 z" stroke-width="1" stroke="black" fill="black"></path><path d="M22,520 528,520 M40,72 40,581 M40,525 40,515 M134,525 134,515 M228,525 228,515 M322,525 322,515 M416,525 416,515 M510,525 510,515 M45,520 35,520 M45,563 35,563 M45,477 35,477 M45,434 35,434 M45,391 35,391 M45,348 35,348 M45,305 35,305 M45,262 35,262 M45,219 35,219 M45,176 35,176 M45,133 35,133 M45,90 35,90" stroke-width="2" stroke="black" fill="none"></path><text id="null" x="40" y="45.333" font-style="italic" font-family="KaTeX_Main, serif" font-size="20" font-weight="normal" text-anchor="middle" fill="black" stroke-width="0px">NIR</text><text id="null" x="554.666" y="526.666" font-style="italic" font-family="KaTeX_Main, serif" font-size="20" font-weight="normal" text-anchor="start" fill="black" stroke-width="0px">Q$</text><path id="null" d="M25.9,120.099 26.683,120.816 27.466,121.533 28.249,122.249 29.033,122.966 29.816,123.683 30.599,124.399 31.383,125.116 32.166,125.833 32.949,126.549 33.733,127.266 34.516,127.983 35.299,128.699 36.083,129.416 36.866,130.133 37.649,130.849 38.433,131.566 39.216,132.283 39.999,132.999 40.783,133.716 41.566,134.433 42.349,135.149 43.133,135.866 43.916,136.583 44.699,137.299 45.483,138.016 46.266,138.733 47.049,139.449 47.833,140.166 48.616,140.883 49.399,141.599 50.183,142.316 50.966,143.033 51.749,143.749 52.533,144.466 53.316,145.183 54.099,145.899 54.883,146.616 55.666,147.333 56.449,148.049 57.233,148.766 58.016,149.483 58.799,150.199 59.583,150.916 60.366,151.633 61.149,152.349 61.933,153.066 62.716,153.783 63.499,154.499 64.283,155.216 65.066,155.933 65.849,156.649 66.633,157.366 67.416,158.083 68.199,158.799 68.983,159.516 69.766,160.233 70.549,160.949 71.333,161.666 72.116,162.383 72.899,163.099 73.683,163.816 74.466,164.533 75.249,165.249 76.033,165.966 76.816,166.683 77.599,167.399 78.383,168.116 79.166,168.833 79.949,169.549 80.733,170.266 81.516,170.983 82.299,171.699 83.083,172.416 83.866,173.133 84.649,173.849 85.433,174.566 86.216,175.283 86.999,175.999 87.783,176.716 88.566,177.433 89.349,178.149 90.133,178.866 90.916,179.583 91.699,180.299 92.483,181.016 93.266,181.733 94.049,182.449 94.833,183.166 95.616,183.883 96.399,184.599 97.183,185.316 97.966,186.033 98.749,186.749 99.533,187.466 100.316,188.183 101.099,188.899 101.883,189.616 102.666,190.333 103.449,191.049 104.233,191.766 105.016,192.483 105.799,193.199 106.583,193.916 107.366,194.633 108.149,195.349 108.933,196.066 109.716,196.783 110.499,197.499 111.283,198.216 112.066,198.933 112.849,199.649 113.633,200.366 114.416,201.083 115.199,201.799 115.983,202.516 116.766,203.233 117.549,203.949 118.333,204.666 119.116,205.383 119.899,206.099 120.683,206.816 121.466,207.533 122.249,208.249 123.033,208.966 123.816,209.683 124.599,210.399 125.383,211.116 126.166,211.833 126.949,212.549 127.733,213.266 128.516,213.983 129.299,214.699 130.083,215.416 130.866,216.133 131.649,216.849 132.433,217.566 133.216,218.283 133.999,218.999 134.783,219.716 135.566,220.433 136.349,221.149 137.133,221.866 137.916,222.583 138.699,223.299 139.483,224.016 140.266,224.733 141.049,225.449 141.833,226.166 142.616,226.883 143.399,227.599 144.183,228.316 144.966,229.033 145.749,229.749 146.533,230.466 147.316,231.183 148.099,231.899 148.883,232.616 149.666,233.333 150.449,234.049 151.233,234.766 152.016,235.483 152.799,236.199 153.583,236.916 154.366,237.633 155.149,238.349 155.933,239.066 156.716,239.783 157.499,240.499 158.283,241.216 159.066,241.933 159.849,242.649 160.633,243.366 161.416,244.083 162.199,244.799 162.983,245.516 163.766,246.233 164.549,246.949 165.333,247.666 166.116,248.383 166.899,249.099 167.683,249.816 168.466,250.533 169.249,251.249 170.033,251.966 170.816,252.683 171.599,253.399 172.383,254.116 173.166,254.833 173.949,255.549 174.733,256.266 175.516,256.983 176.299,257.699 177.083,258.416 177.866,259.133 178.649,259.849 179.433,260.566 180.216,261.283 180.999,261.999 181.783,262.716 182.566,263.433 183.349,264.149 184.133,264.866 184.916,265.583 185.699,266.299 186.483,267.016 187.266,267.733 188.049,268.449 188.833,269.166 189.616,269.883 190.399,270.599 191.183,271.316 191.966,272.033 192.749,272.749 193.533,273.466 194.316,274.183 195.099,274.899 195.883,275.616 196.666,276.333 197.449,277.049 198.233,277.766 199.016,278.483 199.799,279.199 200.583,279.916 201.366,280.633 202.149,281.349 202.933,282.066 203.716,282.783 204.499,283.499 205.283,284.216 206.066,284.933 206.849,285.649 207.633,286.366 208.416,287.083 209.199,287.799 209.983,288.516 210.766,289.233 211.549,289.949 212.333,290.666 213.116,291.383 213.899,292.099 214.683,292.816 215.466,293.533 216.249,294.249 217.033,294.966 217.816,295.683 218.599,296.399 219.383,297.116 220.166,297.833 220.949,298.549 221.733,299.266 222.516,299.983 223.299,300.699 224.083,301.416 224.866,302.133 225.649,302.849 226.433,303.566 227.216,304.283 227.999,304.999 228.783,305.716 229.566,306.433 230.349,307.149 231.133,307.866 231.916,308.583 232.699,309.299 233.483,310.016 234.266,310.733 235.049,311.449 235.833,312.166 236.616,312.883 237.399,313.599 238.183,314.316 238.966,315.033 239.749,315.749 240.533,316.466 241.316,317.183 242.099,317.899 242.883,318.616 243.666,319.333 244.449,320.049 245.233,320.766 246.016,321.483 246.799,322.199 247.583,322.916 248.366,323.633 249.149,324.349 249.933,325.066 250.716,325.783 251.499,326.499 252.283,327.216 253.066,327.933 253.849,328.649 254.633,329.366 255.416,330.083 256.199,330.799 256.983,331.516 257.766,332.233 258.549,332.949 259.333,333.666 260.116,334.383 260.899,335.099 261.683,335.816 262.466,336.533 263.249,337.249 264.033,337.966 264.816,338.683 265.599,339.399 266.383,340.116 267.166,340.833 267.949,341.549 268.733,342.266 269.516,342.983 270.299,343.699 271.083,344.416 271.866,345.133 272.649,345.849 273.433,346.566 274.216,347.283 274.999,347.999 275.783,348.716 276.566,349.433 277.349,350.149 278.133,350.866 278.916,351.583 279.699,352.299 280.483,353.016 281.266,353.733 282.049,354.449 282.833,355.166 283.616,355.883 284.399,356.599 285.183,357.316 285.966,358.033 286.749,358.749 287.533,359.466 288.316,360.183 289.099,360.899 289.883,361.616 290.666,362.333 291.449,363.049 292.233,363.766 293.016,364.483 293.799,365.199 294.583,365.916 295.366,366.633 296.149,367.349 296.933,368.066 297.716,368.783 298.499,369.499 299.283,370.216 300.066,370.933 300.849,371.649 301.633,372.366 302.416,373.083 303.199,373.799 303.983,374.516 304.766,375.233 305.549,375.949 306.333,376.666 307.116,377.383 307.899,378.099 308.683,378.816 309.466,379.533 310.249,380.249 311.033,380.966 311.816,381.683 312.599,382.399 313.383,383.116 314.166,383.833 314.949,384.549 315.733,385.266 316.516,385.983 317.299,386.699 318.083,387.416 318.866,388.133 319.649,388.849 320.433,389.566 321.216,390.283 321.999,390.999 322.783,391.716 323.566,392.433 324.349,393.149 325.133,393.866 325.916,394.583 326.699,395.299 327.483,396.016 328.266,396.733 329.049,397.449 329.833,398.166 330.616,398.883 331.399,399.599 332.183,400.316 332.966,401.033 333.749,401.749 334.533,402.466 335.316,403.183 336.099,403.899 336.883,404.616 337.666,405.333 338.449,406.049 339.233,406.766 340.016,407.483 340.799,408.199 341.583,408.916 342.366,409.633 343.149,410.349 343.933,411.066 344.716,411.783 345.499,412.499 346.283,413.216 347.066,413.933 347.849,414.649 348.633,415.366 349.416,416.083 350.199,416.799 350.983,417.516 351.766,418.233 352.549,418.949 353.333,419.666 354.116,420.383 354.899,421.099 355.683,421.816 356.466,422.533 357.249,423.249 358.033,423.966 358.816,424.683 359.599,425.399 360.382,426.116 361.166,426.833 361.949,427.549 362.732,428.266 363.516,428.983 364.299,429.699 365.082,430.416 365.866,431.133 366.649,431.849 367.432,432.566 368.216,433.283 368.999,433.999 369.782,434.716 370.566,435.433 371.349,436.149 372.132,436.866 372.916,437.583 373.699,438.299 374.482,439.016 375.266,439.733 376.049,440.449 376.832,441.166 377.616,441.883 378.399,442.599 379.182,443.316 379.966,444.033 380.749,444.749 381.532,445.466 382.316,446.183 383.099,446.899 383.882,447.616 384.666,448.333 385.449,449.049 386.232,449.766 387.016,450.483 387.799,451.199 388.582,451.916 389.366,452.633 390.149,453.349 390.932,454.066 391.716,454.782 392.499,455.499 393.282,456.216 394.066,456.932 394.849,457.649 395.632,458.366 396.416,459.082 397.199,459.799 397.982,460.516 398.766,461.232 399.549,461.949 400.332,462.666 401.116,463.382 401.899,464.099 402.682,464.816 403.466,465.532 404.249,466.249 405.032,466.966 405.816,467.682 406.599,468.399 407.382,469.116 408.166,469.832 408.949,470.549 409.732,471.266 410.516,471.982 411.299,472.699 412.082,473.416 412.866,474.132 413.649,474.849 414.432,475.566 415.216,476.282 415.999,476.999 416.782,477.716 417.566,478.432 418.349,479.149 419.132,479.866 419.916,480.582 420.699,481.299 421.482,482.016 422.266,482.732 423.049,483.449 423.832,484.166 424.616,484.882 425.399,485.599 426.182,486.316 426.966,487.032 427.749,487.749 428.532,488.466 429.316,489.182 430.099,489.899 430.882,490.616 431.666,491.332 432.449,492.049 433.232,492.766 434.016,493.482 434.799,494.199 435.582,494.916 436.366,495.632 437.149,496.349 437.932,497.066 438.716,497.782 439.499,498.499 440.282,499.216 441.066,499.932 441.849,500.649 442.632,501.366 443.416,502.082 444.199,502.799 444.982,503.516 445.766,504.232 446.549,504.949 447.332,505.666 448.116,506.382 448.899,507.099 449.682,507.816 450.466,508.532 451.249,509.249 452.032,509.966 452.816,510.682 453.599,511.399 454.382,512.116 455.166,512.832 455.949,513.549 456.732,514.266 457.516,514.982 458.299,515.699 459.082,516.416 459.866,517.132 460.649,517.849 461.432,518.566 462.216,519.282 462.999,519.999 463.782,520.716 464.566,521.432 465.349,522.149 466.132,522.866 466.916,523.582 467.699,524.299 468.482,525.016 469.266,525.732 470.049,526.449 470.832,527.166 471.616,527.882 472.399,528.599 473.182,529.316 473.966,530.032 474.749,530.749 475.532,531.466 476.316,532.182 477.099,532.899 477.882,533.616 478.666,534.332 479.449,535.049 480.232,535.766 481.016,536.482 481.799,537.199 482.582,537.916 483.366,538.632 484.149,539.349 484.932,540.066 485.716,540.782 486.499,541.499 487.282,542.216 488.066,542.932 488.849,543.649 489.632,544.366 490.416,545.082 491.199,545.799 491.982,546.516 492.766,547.232 493.549,547.949 494.332,548.666 495.116,549.382 495.899,550.099 496.682,550.816 497.466,551.532 498.249,552.249 499.032,552.966 499.816,553.682 500.599,554.399 501.382,555.116 502.166,555.832 502.949,556.549 503.732,557.266 504.516,557.982 505.299,558.699 506.082,559.416 506.866,560.132 507.649,560.849 508.432,561.566 509.216,562.282 509.999,562.999 " stroke-width="5" stroke="black" fill="none"></path><path d="M 512.203 555.257 L 523.280 575.149 L 502.483 565.881 L 509.999 562.999 z" stroke-width="1" stroke="black" fill="black"></path><circle id="undefined" cx="25.9" cy="120.099" r="7.5" stroke-width="5" stroke="black" fill="black"></circle><path id="null" d="M251.374,577.19 252.283,161.770 252.471,75.81 " stroke-width="5" stroke="black" fill="none"></path></svg>