<?xml version="1.0" encoding="utf-8"?><!DOCTYPE svg PUBLIC "-//W3C//DTD SVG 1.1//EN" "http://www.w3.org/Graphics/SVG/1.1/DTD/svg11.dtd"><svg xmlns="http://www.w3.org/2000/svg" xmlns:xlink="http://www.w3.org/1999/xlink" id="preview" width="600" height="603" viewBox="0 0 600 603" xunitlength="94" yunitlength="43" xmin="0" xmax="5" ymin="-1" ymax="10" ox="40" oy="83"><defs><style type="text/css">@import url("http://cdnjs.cloudflare.com/ajax/libs/KaTeX/0.2.0/katex.min.css")</style></defs><path d=" M40,90 40,563 M134,90 134,563 M228,90 228,563 M322,90 322,563 M416,90 416,563 M510,90 510,563 M40,520 510,520 M40,563 510,563 M40,477 510,477 M40,434 510,434 M40,391 510,391 M40,348 510,348 M40,305 510,305 M40,262 510,262 M40,219 510,219 M40,176 510,176 M40,133 510,133 M40,90 510,90" stroke-width="1" stroke="grey" fill="none"></path><path d="M 524.4 512.8 L 546 520 L 524.4 527.2 L 528 520 z" stroke-width="1" stroke="black" fill="black"></path><path d="M 32.8 75.6 L 40 54 L 47.2 75.6 L 40 72 z" stroke-width="1" stroke="black" fill="black"></path><path d="M22,520 528,520 M40,72 40,581 M40,526.5 40,513.5 M134,526.5 134,513.5 M228,526.5 228,513.5 M322,526.5 322,513.5 M416,526.5 416,513.5 M510,526.5 510,513.5 M46.5,520 33.5,520 M46.5,563 33.5,563 M46.5,477 33.5,477 M46.5,434 33.5,434 M46.5,391 33.5,391 M46.5,348 33.5,348 M46.5,305 33.5,305 M46.5,262 33.5,262 M46.5,219 33.5,219 M46.5,176 33.5,176 M46.5,133 33.5,133 M46.5,90 33.5,90" stroke-width="2" stroke="black" fill="none"></path><text id="null" x="40" y="43.333" font-style="italic" font-family="KaTeX_Main, serif" font-size="26" font-weight="normal" text-anchor="middle" fill="black" stroke-width="0px">P</text><text id="null" x="556.666" y="528.666" font-style="italic" font-family="KaTeX_Main, serif" font-size="26" font-weight="normal" text-anchor="start" fill="black" stroke-width="0px">Q</text><path id="null" d="M87,434 87.704,434.642 88.409,435.280 89.114,435.913 89.819,436.541 90.524,437.164 91.229,437.782 91.934,438.396 92.639,439.005 93.344,439.609 94.049,440.208 94.754,440.802 95.459,441.391 96.164,441.976 96.869,442.555 97.574,443.130 98.279,443.700 98.984,444.265 99.689,444.826 100.394,445.381 101.099,445.932 101.804,446.478 102.509,447.019 103.214,447.555 103.919,448.086 104.624,448.613 105.329,449.134 106.034,449.651 106.739,450.163 107.444,450.670 108.149,451.173 108.854,451.670 109.559,452.163 110.264,452.650 110.969,453.133 111.674,453.612 112.379,454.085 113.084,454.553 113.789,455.017 114.494,455.476 115.199,455.929 115.904,456.379 116.609,456.823 117.314,457.262 118.019,457.697 118.724,458.127 119.429,458.551 120.134,458.971 120.839,459.387 121.544,459.797 122.249,460.203 122.954,460.603 123.659,460.999 124.364,461.390 125.069,461.776 125.774,462.158 126.479,462.534 127.184,462.906 127.889,463.273 128.594,463.635 129.299,463.992 130.004,464.344 130.709,464.692 131.414,465.034 132.119,465.372 132.824,465.705 133.529,466.033 134.234,466.357 134.939,466.675 135.644,466.989 136.349,467.298 137.054,467.602 137.759,467.901 138.464,468.195 139.169,468.484 139.874,468.769 140.579,469.049 141.284,469.324 141.989,469.594 142.694,469.859 143.399,470.119 144.104,470.375 144.809,470.626 145.514,470.872 146.219,471.113 146.924,471.349 147.629,471.580 148.334,471.807 149.039,472.029 149.744,472.246 150.449,472.458 151.154,472.665 151.859,472.867 152.564,473.065 153.269,473.257 153.974,473.445 154.679,473.628 155.384,473.806 156.089,473.980 156.794,474.148 157.499,474.312 158.204,474.471 158.909,474.625 159.614,474.774 160.319,474.918 161.024,475.058 161.729,475.192 162.434,475.322 163.139,475.447 163.844,475.567 164.549,475.683 165.254,475.793 165.959,475.899 166.664,475.999 167.369,476.095 168.074,476.187 168.779,476.273 169.484,476.354 170.189,476.431 170.894,476.503 171.599,476.569 172.304,476.632 173.009,476.689 173.714,476.741 174.419,476.789 175.124,476.832 175.829,476.869 176.534,476.902 177.239,476.931 177.944,476.954 178.649,476.973 179.354,476.986 180.059,476.995 180.764,476.999 181.469,476.998 182.174,476.993 182.879,476.982 183.584,476.967 184.289,476.947 184.994,476.922 185.699,476.892 186.404,476.857 187.109,476.818 187.814,476.773 188.519,476.724 189.224,476.670 189.929,476.611 190.634,476.548 191.339,476.479 192.044,476.406 192.749,476.328 193.454,476.245 194.159,476.157 194.864,476.064 195.569,475.966 196.274,475.864 196.979,475.757 197.684,475.645 198.389,475.528 199.094,475.406 199.799,475.280 200.504,475.148 201.209,475.012 201.914,474.871 202.619,474.725 203.324,474.574 204.029,474.418 204.734,474.258 205.439,474.093 206.144,473.923 206.849,473.748 207.554,473.568 208.259,473.383 208.964,473.194 209.669,472.999 210.374,472.800 211.079,472.596 211.784,472.388 212.489,472.174 213.194,471.955 213.899,471.732 214.604,471.504 215.309,471.271 216.014,471.033 216.719,470.790 217.424,470.543 218.129,470.290 218.834,470.033 219.539,469.771 220.244,469.504 220.949,469.233 221.654,468.956 222.359,468.675 223.064,468.389 223.769,468.097 224.474,467.802 225.179,467.501 225.884,467.195 226.589,466.885 227.294,466.570 227.999,466.250 228.704,465.925 229.409,465.595 230.114,465.260 230.819,464.921 231.524,464.577 232.229,464.227 232.934,463.874 233.639,463.515 234.344,463.151 235.049,462.783 235.754,462.409 236.459,462.031 237.164,461.648 237.869,461.261 238.574,460.868 239.279,460.470 239.984,460.068 240.689,459.661 241.394,459.249 242.099,458.832 242.804,458.410 243.509,457.984 244.214,457.553 244.919,457.116 245.624,456.675 246.329,456.230 247.034,455.779 247.739,455.323 248.444,454.863 249.149,454.398 249.854,453.928 250.559,453.453 251.264,452.973 251.969,452.489 252.674,451.999 253.379,451.505 254.084,451.006 254.789,450.502 255.494,449.993 256.199,449.480 256.904,448.961 257.609,448.438 258.314,447.910 259.019,447.377 259.724,446.839 260.429,446.297 261.134,445.749 261.839,445.197 262.544,444.640 263.249,444.078 263.954,443.511 264.659,442.939 265.364,442.363 266.069,441.782 266.774,441.195 267.479,440.604 268.184,440.009 268.889,439.408 269.594,438.802 270.299,438.192 271.004,437.577 271.709,436.957 272.414,436.332 273.119,435.702 273.824,435.068 274.529,434.429 275.234,433.784 275.939,433.135 276.644,432.482 277.349,431.823 278.054,431.159 278.759,430.491 279.464,429.818 280.169,429.140 280.874,428.457 281.579,427.769 282.284,427.076 282.989,426.379 283.694,425.677 284.399,424.970 285.104,424.258 285.809,423.541 286.514,422.819 287.219,422.093 287.924,421.362 288.629,420.626 289.334,419.885 290.039,419.139 290.744,418.388 291.449,417.633 292.154,416.873 292.859,416.107 293.564,415.337 294.269,414.563 294.974,413.783 295.679,412.999 296.384,412.209 297.089,411.415 297.794,410.616 298.499,409.812 299.204,409.004 299.909,408.190 300.614,407.372 301.319,406.549 302.024,405.721 302.729,404.888 303.434,404.050 304.139,403.207 304.844,402.360 305.549,401.508 306.254,400.651 306.959,399.789 307.664,398.922 308.369,398.051 309.074,397.174 309.779,396.293 310.484,395.407 311.189,394.516 311.894,393.620 312.599,392.720 313.304,391.814 314.009,390.904 314.714,389.989 315.419,389.069 316.124,388.144 316.829,387.215 317.534,386.280 318.239,385.341 318.944,384.397 319.649,383.448 320.354,382.494 321.059,381.536 321.764,380.572 322.469,379.604 323.174,378.631 323.879,377.653 324.584,376.670 325.289,375.682 325.994,374.690 326.699,373.692 327.404,372.690 328.109,371.683 328.814,370.671 329.519,369.655 330.224,368.633 330.929,367.607 331.634,366.576 332.339,365.540 333.044,364.499 333.749,363.453 334.454,362.402 335.159,361.347 335.864,360.287 336.569,359.222 337.274,358.152 337.979,357.077 338.684,355.998 339.389,354.913 340.094,353.824 340.799,352.730 341.504,351.631 342.209,350.527 342.914,349.419 343.619,348.305 344.324,347.187 345.029,346.064 345.734,344.936 346.439,343.803 347.144,342.666 347.849,341.523 348.554,340.376 349.259,339.224 349.964,338.067 350.669,336.905 351.374,335.738 352.079,334.567 352.784,333.390 353.489,332.209 354.194,331.023 354.899,329.832 355.604,328.637 356.309,327.436 357.014,326.231 357.719,325.021 358.424,323.806 359.129,322.586 359.834,321.361 360.539,320.132 361.244,318.897 361.949,317.658 362.654,316.414 363.359,315.165 364.064,313.911 364.769,312.653 365.474,311.390 366.179,310.121 366.884,308.848 367.589,307.570 368.294,306.288 368.999,305.000 369.704,303.708 370.409,302.410 371.114,301.108 371.819,299.801 372.524,298.490 373.229,297.173 373.934,295.852 374.639,294.525 375.344,293.194 376.049,291.858 376.754,290.517 377.459,289.172 378.164,287.821 378.869,286.466 379.574,285.106 380.279,283.741 380.984,282.371 381.689,280.996 382.394,279.617 383.099,278.233 383.804,276.843 384.509,275.449 385.214,274.051 385.919,272.647 386.624,271.238 387.329,269.825 388.034,268.407 388.739,266.984 389.444,265.556 390.149,264.123 390.854,262.686 391.559,261.243 392.264,259.796 392.969,258.344 393.674,256.887 394.379,255.425 395.084,253.959 395.789,252.487 396.494,251.011 397.199,249.530 397.904,248.044 398.609,246.553 399.314,245.058 400.019,243.557 400.724,242.052 401.429,240.542 402.134,239.027 402.839,237.507 403.544,235.983 404.249,234.453 404.954,232.919 405.659,231.380 406.364,229.836 407.069,228.287 407.774,226.733 408.479,225.175 409.184,223.612 409.889,222.044 410.594,220.471 411.299,218.893 412.004,217.310 412.709,215.723 413.414,214.130 414.119,212.533 414.824,210.931 415.529,209.324 416.234,207.712 416.939,206.096 417.644,204.475 418.349,202.848 419.054,201.217 419.759,199.581 420.464,197.941 421.169,196.295 421.874,194.645 422.579,192.990 423.284,191.330 423.989,189.665 424.694,187.995 425.399,186.320 426.104,184.641 426.809,182.957 427.514,181.268 428.219,179.574 428.924,177.875 429.629,176.171 430.334,174.463 431.039,172.750 431.744,171.031 432.449,169.308 433.154,167.581 433.859,165.848 434.564,164.111 435.269,162.368 435.974,160.621 436.679,158.869 437.384,157.112 438.089,155.351 438.794,153.584 439.499,151.813 440.204,150.037 440.909,148.256 441.614,146.470 442.319,144.679 443.024,142.884 443.729,141.083 444.434,139.278 445.139,137.468 445.844,135.653 446.549,133.834 447.254,132.009 447.959,130.180 448.664,128.345 449.369,126.506 450.074,124.662 450.779,122.814 451.484,120.960 452.189,119.102 452.894,117.239 453.599,115.370 454.304,113.498 455.009,111.620 455.714,109.737 456.419,107.850 457.124,105.958 457.829,104.060 458.534,102.158 459.239,100.252 459.944,98.340 460.649,96.424 461.354,94.502 462.059,92.576 462.764,90.645 463.469,88.709 464.174,86.769 464.879,84.823 465.584,82.873 466.289,80.918 466.994,78.958 467.699,76.993 468.123,75.81 " stroke-width="5" stroke="black" fill="none"></path><path d="M 460.131 76.773 L 474.189 58.862 L 473.688 81.625 L 468.123 75.81 z" stroke-width="1" stroke="black" fill="black"></path><path id="null" d="M87,262 87.704,263.287 88.409,264.570 89.114,265.848 89.819,267.121 90.524,268.389 91.229,269.652 91.934,270.911 92.639,272.165 93.344,273.414 94.049,274.658 94.754,275.897 95.459,277.131 96.164,278.361 96.869,279.585 97.574,280.805 98.279,282.020 98.984,283.230 99.689,284.436 100.394,285.636 101.099,286.832 101.804,288.023 102.509,289.209 103.214,290.390 103.919,291.566 104.624,292.738 105.329,293.904 106.034,295.066 106.739,296.223 107.444,297.375 108.149,298.523 108.854,299.665 109.559,300.803 110.264,301.935 110.969,303.063 111.674,304.186 112.379,305.305 113.084,306.418 113.789,307.527 114.494,308.631 115.199,309.729 115.904,310.824 116.609,311.913 117.314,312.997 118.019,314.077 118.724,315.151 119.429,316.221 120.134,317.286 120.839,318.347 121.544,319.402 122.249,320.453 122.954,321.498 123.659,322.539 124.364,323.575 125.069,324.606 125.774,325.633 126.479,326.654 127.184,327.671 127.889,328.683 128.594,329.690 129.299,330.692 130.004,331.689 130.709,332.682 131.414,333.669 132.119,334.652 132.824,335.630 133.529,336.603 134.234,337.572 134.939,338.535 135.644,339.494 136.349,340.448 137.054,341.397 137.759,342.341 138.464,343.280 139.169,344.214 139.874,345.144 140.579,346.069 141.284,346.989 141.989,347.904 142.694,348.814 143.399,349.719 144.104,350.620 144.809,351.516 145.514,352.407 146.219,353.293 146.924,354.174 147.629,355.050 148.334,355.922 149.039,356.789 149.744,357.651 150.449,358.508 151.154,359.360 151.859,360.207 152.564,361.050 153.269,361.887 153.974,362.720 154.679,363.548 155.384,364.371 156.089,365.190 156.794,366.003 157.499,366.812 158.204,367.616 158.909,368.415 159.614,369.209 160.319,369.998 161.024,370.783 161.729,371.562 162.434,372.337 163.139,373.107 163.844,373.872 164.549,374.633 165.254,375.388 165.959,376.139 166.664,376.884 167.369,377.625 168.074,378.361 168.779,379.093 169.484,379.819 170.189,380.541 170.894,381.257 171.599,381.969 172.304,382.676 173.009,383.379 173.714,384.076 174.419,384.769 175.124,385.456 175.829,386.139 176.534,386.817 177.239,387.491 177.944,388.159 178.649,388.823 179.354,389.481 180.059,390.135 180.764,390.784 181.469,391.428 182.174,392.068 182.879,392.702 183.584,393.332 184.289,393.957 184.994,394.577 185.699,395.192 186.404,395.802 187.109,396.408 187.814,397.008 188.519,397.604 189.224,398.195 189.929,398.781 190.634,399.363 191.339,399.939 192.044,400.511 192.749,401.078 193.454,401.639 194.159,402.197 194.864,402.749 195.569,403.296 196.274,403.839 196.979,404.377 197.684,404.910 198.389,405.438 199.094,405.961 199.799,406.479 200.504,406.993 201.209,407.502 201.914,408.006 202.619,408.505 203.324,408.999 204.029,409.488 204.734,409.973 205.439,410.453 206.144,410.928 206.849,411.398 207.554,411.863 208.259,412.323 208.964,412.779 209.669,413.229 210.374,413.675 211.079,414.116 211.784,414.552 212.489,414.984 213.194,415.410 213.899,415.832 214.604,416.249 215.309,416.661 216.014,417.068 216.719,417.470 217.424,417.868 218.129,418.260 218.834,418.648 219.539,419.031 220.244,419.409 220.949,419.783 221.654,420.151 222.359,420.515 223.064,420.873 223.769,421.227 224.474,421.576 225.179,421.921 225.884,422.260 226.589,422.595 227.294,422.925 227.999,423.249 228.704,423.570 229.409,423.885 230.114,424.195 230.819,424.501 231.524,424.801 232.229,425.097 232.934,425.388 233.639,425.675 234.344,425.956 235.049,426.233 235.754,426.504 236.459,426.771 237.164,427.033 237.869,427.290 238.574,427.543 239.279,427.790 239.984,428.033 240.689,428.271 241.394,428.504 242.099,428.732 242.804,428.955 243.509,429.174 244.214,429.387 244.919,429.596 245.624,429.800 246.329,429.999 247.034,430.194 247.739,430.383 248.444,430.568 249.149,430.748 249.854,430.923 250.559,431.093 251.264,431.258 251.969,431.418 252.674,431.574 253.379,431.725 254.084,431.871 254.789,432.012 255.494,432.148 256.199,432.279 256.904,432.406 257.609,432.528 258.314,432.645 259.019,432.757 259.724,432.864 260.429,432.966 261.134,433.064 261.839,433.157 262.544,433.245 263.249,433.328 263.954,433.406 264.659,433.479 265.364,433.548 266.069,433.611 266.774,433.670 267.479,433.724 268.184,433.773 268.889,433.818 269.594,433.857 270.299,433.892 271.004,433.922 271.709,433.947 272.414,433.967 273.119,433.982 273.824,433.993 274.529,433.998 275.234,433.999 275.939,433.995 276.644,433.986 277.349,433.973 278.054,433.954 278.759,433.931 279.464,433.902 280.169,433.869 280.874,433.832 281.579,433.789 282.284,433.741 282.989,433.689 283.694,433.632 284.399,433.570 285.104,433.503 285.809,433.431 286.514,433.354 287.219,433.273 287.924,433.187 288.629,433.095 289.334,433.000 290.039,432.899 290.744,432.793 291.449,432.683 292.154,432.567 292.859,432.447 293.564,432.322 294.269,432.192 294.974,432.058 295.679,431.918 296.384,431.774 297.089,431.625 297.794,431.471 298.499,431.312 299.204,431.148 299.909,430.980 300.614,430.807 301.319,430.628 302.024,430.445 302.729,430.257 303.434,430.065 304.139,429.867 304.844,429.665 305.549,429.458 306.254,429.246 306.959,429.029 307.664,428.807 308.369,428.580 309.074,428.349 309.779,428.113 310.484,427.872 311.189,427.626 311.894,427.375 312.599,427.120 313.304,426.859 314.009,426.594 314.714,426.324 315.419,426.049 316.124,425.769 316.829,425.485 317.534,425.195 318.239,424.901 318.944,424.602 319.649,424.298 320.354,423.989 321.059,423.675 321.764,423.357 322.469,423.034 323.174,422.705 323.879,422.372 324.584,422.035 325.289,421.692 325.994,421.344 326.699,420.992 327.404,420.635 328.109,420.273 328.814,419.906 329.519,419.534 330.224,419.158 330.929,418.777 331.634,418.390 332.339,417.999 333.044,417.603 333.749,417.203 334.454,416.797 335.159,416.387 335.864,415.972 336.569,415.552 337.274,415.127 337.979,414.697 338.684,414.262 339.389,413.823 340.094,413.379 340.799,412.930 341.504,412.476 342.209,412.017 342.914,411.553 343.619,411.085 344.324,410.612 345.029,410.134 345.734,409.651 346.439,409.163 347.144,408.670 347.849,408.173 348.554,407.671 349.259,407.163 349.964,406.651 350.669,406.135 351.374,405.613 352.079,405.086 352.784,404.555 353.489,404.019 354.194,403.478 354.899,402.932 355.604,402.382 356.309,401.826 357.014,401.266 357.719,400.701 358.424,400.131 359.129,399.556 359.834,398.976 360.539,398.391 361.244,397.802 361.949,397.208 362.654,396.609 363.359,396.005 364.064,395.396 364.769,394.783 365.474,394.164 366.179,393.541 366.884,392.913 367.589,392.280 368.294,391.642 368.999,391.000 369.704,390.352 370.409,389.700 371.114,389.043 371.819,388.381 372.524,387.714 373.229,387.043 373.934,386.366 374.639,385.685 375.344,384.999 376.049,384.308 376.754,383.612 377.459,382.911 378.164,382.206 378.869,381.496 379.574,380.781 380.279,380.061 380.984,379.336 381.689,378.606 382.394,377.872 383.099,377.132 383.804,376.388 384.509,375.639 385.214,374.885 385.919,374.127 386.624,373.363 387.329,372.595 388.034,371.822 388.739,371.044 389.444,370.261 390.149,369.473 390.854,368.680 391.559,367.883 392.264,367.081 392.969,366.274 393.674,365.462 394.379,364.645 395.084,363.824 395.789,362.997 396.494,362.166 397.199,361.330 397.904,360.489 398.609,359.643 399.314,358.793 400.019,357.937 400.724,357.077 401.429,356.212 402.134,355.342 402.839,354.467 403.544,353.587 404.249,352.703 404.954,351.814 405.659,350.920 406.364,350.021 407.069,349.117 407.774,348.208 408.479,347.295 409.184,346.376 409.889,345.453 410.594,344.525 411.299,343.592 412.004,342.655 412.709,341.712 413.414,340.765 414.119,339.813 414.824,338.856 415.529,337.894 416.234,336.927 416.939,335.956 417.644,334.979 418.349,333.998 419.054,333.012 419.759,332.021 420.464,331.025 421.169,330.025 421.874,329.020 422.579,328.009 423.284,326.994 423.989,325.974 424.694,324.950 425.399,323.920 426.104,322.886 426.809,321.846 427.514,320.802 428.219,319.753 428.924,318.700 429.629,317.641 430.334,316.578 431.039,315.509 431.744,314.436 432.449,313.358 433.154,312.275 433.859,311.188 434.564,310.095 435.269,308.998 435.974,307.896 436.679,306.789 437.384,305.677 438.089,304.560 438.794,303.439 439.499,302.313 440.204,301.181 440.909,300.045 441.614,298.905 442.319,297.759 443.024,296.608 443.729,295.453 444.434,294.293 445.139,293.128 445.844,291.958 446.549,290.783 447.254,289.604 447.959,288.419 448.664,287.230 449.369,286.036 450.074,284.837 450.779,283.633 451.484,282.425 452.189,281.211 452.894,279.993 453.599,278.770 454.304,277.542 455.009,276.309 455.714,275.072 456.419,273.829 457.124,272.582 457.829,271.330 458.534,270.073 459.239,268.811 459.944,267.545 460.649,266.273 461.354,264.997 462.059,263.716 462.764,262.430 463.469,261.139 464.174,259.843 464.879,258.543 465.584,257.238 466.289,255.928 466.994,254.613 467.699,253.293 468.404,251.968 469.109,250.639 469.814,249.304 470.519,247.965 471.224,246.621 471.929,245.272 472.634,243.918 473.339,242.560 474.044,241.197 474.749,239.828 475.454,238.455 476.159,237.077 476.864,235.695 477.569,234.307 478.274,232.915 478.979,231.518 479.684,230.116 480.389,228.709 481.094,227.297 481.799,225.880 482.504,224.459 483.209,223.033 483.914,221.602 484.619,220.166 485.324,218.725 486.029,217.279 486.734,215.829 487.439,214.374 488.144,212.913 488.849,211.448 489.554,209.979 490.259,208.504 490.964,207.025 491.669,205.540 492.374,204.051 493.079,202.557 493.784,201.058 494.489,199.555 495.194,198.046 495.899,196.533 496.604,195.015 497.309,193.492 498.014,191.964 498.719,190.431 499.424,188.894 500.129,187.351 500.834,185.804 501.539,184.252 502.244,182.695 502.949,181.134 503.654,179.567 504.359,177.996 505.064,176.419 505.769,174.838 506.474,173.252 507.179,171.662 507.884,170.066 508.589,168.466 509.294,166.861 509.999,165.250 " stroke-width="5" stroke="black" fill="none"></path><path d="M 501.960 165.660 L 517.219 148.762 L 515.151 171.436 L 509.999 165.250 z" stroke-width="1" stroke="black" fill="black"></path><path id="null" d="M25.9,434 26.683,434 27.466,434 28.249,434 29.033,434 29.816,434 30.599,434 31.383,434 32.166,434 32.949,434 33.733,434 34.516,434 35.299,434 36.083,434 36.866,434 37.649,434 38.433,434 39.216,434 39.999,434 40.783,434 41.566,434 42.349,434 43.133,434 43.916,434 44.699,434 45.483,434 46.266,434 47.049,434 47.833,434 48.616,434 49.399,434 50.183,434 50.966,434 51.749,434 52.533,434 53.316,434 54.099,434 54.883,434 55.666,434 56.449,434 57.233,434 58.016,434 58.799,434 59.583,434 60.366,434 61.149,434 61.933,434 62.716,434 63.499,434 64.283,434 65.066,434 65.849,434 66.633,434 67.416,434 68.199,434 68.983,434 69.766,434 70.549,434 71.333,434 72.116,434 72.899,434 73.683,434 74.466,434 75.249,434 76.033,434 76.816,434 77.599,434 78.383,434 79.166,434 79.949,434 80.733,434 81.516,434 82.299,434 83.083,434 83.866,434 84.649,434 85.433,434 86.216,434 86.999,434 87.783,434 88.566,434 89.349,434 90.133,434 90.916,434 91.699,434 92.483,434 93.266,434 94.049,434 94.833,434 95.616,434 96.399,434 97.183,434 97.966,434 98.749,434 99.533,434 100.316,434 101.099,434 101.883,434 102.666,434 103.449,434 104.233,434 105.016,434 105.799,434 106.583,434 107.366,434 108.149,434 108.933,434 109.716,434 110.499,434 111.283,434 112.066,434 112.849,434 113.633,434 114.416,434 115.199,434 115.983,434 116.766,434 117.549,434 118.333,434 119.116,434 119.899,434 120.683,434 121.466,434 122.249,434 123.033,434 123.816,434 124.599,434 125.383,434 126.166,434 126.949,434 127.733,434 128.516,434 129.299,434 130.083,434 130.866,434 131.649,434 132.433,434 133.216,434 133.999,434 134.783,434 135.566,434 136.349,434 137.133,434 137.916,434 138.699,434 139.483,434 140.266,434 141.049,434 141.833,434 142.616,434 143.399,434 144.183,434 144.966,434 145.749,434 146.533,434 147.316,434 148.099,434 148.883,434 149.666,434 150.449,434 151.233,434 152.016,434 152.799,434 153.583,434 154.366,434 155.149,434 155.933,434 156.716,434 157.499,434 158.283,434 159.066,434 159.849,434 160.633,434 161.416,434 162.199,434 162.983,434 163.766,434 164.549,434 165.333,434 166.116,434 166.899,434 167.683,434 168.466,434 169.249,434 170.033,434 170.816,434 171.599,434 172.383,434 173.166,434 173.949,434 174.733,434 175.516,434 176.299,434 177.083,434 177.866,434 178.649,434 179.433,434 180.216,434 180.999,434 181.783,434 182.566,434 183.349,434 184.133,434 184.916,434 185.699,434 186.483,434 187.266,434 188.049,434 188.833,434 189.616,434 190.399,434 191.183,434 191.966,434 192.749,434 193.533,434 194.316,434 195.099,434 195.883,434 196.666,434 197.449,434 198.233,434 199.016,434 199.799,434 200.583,434 201.366,434 202.149,434 202.933,434 203.716,434 204.499,434 205.283,434 206.066,434 206.849,434 207.633,434 208.416,434 209.199,434 209.983,434 210.766,434 211.549,434 212.333,434 213.116,434 213.899,434 214.683,434 215.466,434 216.249,434 217.033,434 217.816,434 218.599,434 219.383,434 220.166,434 220.949,434 221.733,434 222.516,434 223.299,434 224.083,434 224.866,434 225.649,434 226.433,434 227.216,434 227.999,434 228.783,434 229.566,434 230.349,434 231.133,434 231.916,434 232.699,434 233.483,434 234.266,434 235.049,434 235.833,434 236.616,434 237.399,434 238.183,434 238.966,434 239.749,434 240.533,434 241.316,434 242.099,434 242.883,434 243.666,434 244.449,434 245.233,434 246.016,434 246.799,434 247.583,434 248.366,434 249.149,434 249.933,434 250.716,434 251.499,434 252.283,434 253.066,434 253.849,434 254.633,434 255.416,434 256.199,434 256.983,434 257.766,434 258.549,434 259.333,434 260.116,434 260.899,434 261.683,434 262.466,434 263.249,434 264.033,434 264.816,434 265.599,434 266.383,434 267.166,434 267.949,434 268.733,434 269.516,434 270.299,434 271.083,434 271.866,434 272.649,434 273.433,434 274.216,434 274.999,434 275.783,434 276.566,434 277.349,434 278.133,434 278.916,434 279.699,434 280.483,434 281.266,434 282.049,434 282.833,434 283.616,434 284.399,434 285.183,434 285.966,434 286.749,434 287.533,434 288.316,434 289.099,434 289.883,434 290.666,434 291.449,434 292.233,434 293.016,434 293.799,434 294.583,434 295.366,434 296.149,434 296.933,434 297.716,434 298.499,434 299.283,434 300.066,434 300.849,434 301.633,434 302.416,434 303.199,434 303.983,434 304.766,434 305.549,434 306.333,434 307.116,434 307.899,434 308.683,434 309.466,434 310.249,434 311.033,434 311.816,434 312.599,434 313.383,434 314.166,434 314.949,434 315.733,434 316.516,434 317.299,434 318.083,434 318.866,434 319.649,434 320.433,434 321.216,434 321.999,434 322.783,434 323.566,434 324.349,434 325.133,434 325.916,434 326.699,434 327.483,434 328.266,434 329.049,434 329.833,434 330.616,434 331.399,434 332.183,434 332.966,434 333.749,434 334.533,434 335.316,434 336.099,434 336.883,434 337.666,434 338.449,434 339.233,434 340.016,434 340.799,434 341.583,434 342.366,434 343.149,434 343.933,434 344.716,434 345.499,434 346.283,434 347.066,434 347.849,434 348.633,434 349.416,434 350.199,434 350.983,434 351.766,434 352.549,434 353.333,434 354.116,434 354.899,434 355.683,434 356.466,434 357.249,434 358.033,434 358.816,434 359.599,434 360.382,434 361.166,434 361.949,434 362.732,434 363.516,434 364.299,434 365.082,434 365.866,434 366.649,434 367.432,434 368.216,434 368.999,434 369.782,434 370.566,434 371.349,434 372.132,434 372.916,434 373.699,434 374.482,434 375.266,434 376.049,434 376.832,434 377.616,434 378.399,434 379.182,434 379.966,434 380.749,434 381.532,434 382.316,434 383.099,434 383.882,434 384.666,434 385.449,434 386.232,434 387.016,434 387.799,434 388.582,434 389.366,434 390.149,434 390.932,434 391.716,434 392.499,434 393.282,434 394.066,434 394.849,434 395.632,434 396.416,434 397.199,434 397.982,434 398.766,434 399.549,434 400.332,434 401.116,434 401.899,434 402.682,434 403.466,434 404.249,434 405.032,434 405.816,434 406.599,434 407.382,434 408.166,434 408.949,434 409.732,434 410.516,434 411.299,434 412.082,434 412.866,434 413.649,434 414.432,434 415.216,434 415.999,434 416.782,434 417.566,434 418.349,434 419.132,434 419.916,434 420.699,434 421.482,434 422.266,434 423.049,434 423.832,434 424.616,434 425.399,434 426.182,434 426.966,434 427.749,434 428.532,434 429.316,434 430.099,434 430.882,434 431.666,434 432.449,434 433.232,434 434.016,434 434.799,434 435.582,434 436.366,434 437.149,434 437.932,434 438.716,434 439.499,434 440.282,434 441.066,434 441.849,434 442.632,434 443.416,434 444.199,434 444.982,434 445.766,434 446.549,434 447.332,434 448.116,434 448.899,434 449.682,434 450.466,434 451.249,434 452.032,434 452.816,434 453.599,434 454.382,434 455.166,434 455.949,434 456.732,434 457.516,434 458.299,434 459.082,434 459.866,434 460.649,434 461.432,434 462.216,434 462.999,434 463.782,434 464.566,434 465.349,434 466.132,434 466.916,434 467.699,434 468.482,434 469.266,434 470.049,434 470.832,434 471.616,434 472.399,434 473.182,434 473.966,434 474.749,434 475.532,434 476.316,434 477.099,434 477.882,434 478.666,434 479.449,434 480.232,434 481.016,434 481.799,434 482.582,434 483.366,434 484.149,434 484.932,434 485.716,434 486.499,434 487.282,434 488.066,434 488.849,434 489.632,434 490.416,434 491.199,434 491.982,434 492.766,434 493.549,434 494.332,434 495.116,434 495.899,434 496.682,434 497.466,434 498.249,434 499.032,434 499.816,434 500.599,434 501.382,434 502.166,434 502.949,434 503.732,434 504.516,434 505.299,434 506.082,434 506.866,434 507.649,434 508.432,434 509.216,434 509.999,434 510.782,434 511.566,434 512.349,434 513.132,434 513.916,434 514.699,434 515.482,434 516.266,434 517.049,434 517.832,434 518.616,434 519.399,434 520.182,434 520.966,434 521.749,434 522.532,434 523.316,434 524.099,434 " stroke-width="5" stroke="black" fill="none"></path></svg>