<?xml version="1.0" encoding="utf-8"?><!DOCTYPE svg PUBLIC "-//W3C//DTD SVG 1.1//EN" "http://www.w3.org/Graphics/SVG/1.1/DTD/svg11.dtd"><svg xmlns="http://www.w3.org/2000/svg" xmlns:xlink="http://www.w3.org/1999/xlink" id="preview" width="600" height="603" viewBox="0 0 600 603" xunitlength="94" yunitlength="43" xmin="0" xmax="5" ymin="-1" ymax="10" ox="40" oy="83"><defs><style type="text/css">@import url("http://cdnjs.cloudflare.com/ajax/libs/KaTeX/0.2.0/katex.min.css")</style></defs><path d=" M40,90 40,563 M134,90 134,563 M228,90 228,563 M322,90 322,563 M416,90 416,563 M510,90 510,563 M40,520 510,520 M40,563 510,563 M40,477 510,477 M40,434 510,434 M40,391 510,391 M40,348 510,348 M40,305 510,305 M40,262 510,262 M40,219 510,219 M40,176 510,176 M40,133 510,133 M40,90 510,90" stroke-width="1" stroke="grey" fill="none"></path><path d="M 524.4 512.8 L 546 520 L 524.4 527.2 L 528 520 z" stroke-width="1" stroke="black" fill="black"></path><path d="M 32.8 75.6 L 40 54 L 47.2 75.6 L 40 72 z" stroke-width="1" stroke="black" fill="black"></path><path d="M22,520 528,520 M40,72 40,581 M40,526.5 40,513.5 M134,526.5 134,513.5 M228,526.5 228,513.5 M322,526.5 322,513.5 M416,526.5 416,513.5 M510,526.5 510,513.5 M46.5,520 33.5,520 M46.5,563 33.5,563 M46.5,477 33.5,477 M46.5,434 33.5,434 M46.5,391 33.5,391 M46.5,348 33.5,348 M46.5,305 33.5,305 M46.5,262 33.5,262 M46.5,219 33.5,219 M46.5,176 33.5,176 M46.5,133 33.5,133 M46.5,90 33.5,90" stroke-width="2" stroke="black" fill="none"></path><text id="null" x="40" y="43.333" font-style="italic" font-family="KaTeX_Main, serif" font-size="26" font-weight="normal" text-anchor="middle" fill="black" stroke-width="0px">P</text><text id="null" x="556.666" y="528.666" font-style="italic" font-family="KaTeX_Main, serif" font-size="26" font-weight="normal" text-anchor="start" fill="black" stroke-width="0px">Q</text><path id="null" d="M87,133 87.704,133.644 88.409,134.289 89.114,134.934 89.819,135.579 90.524,136.224 91.229,136.869 91.934,137.514 92.639,138.159 93.344,138.804 94.049,139.449 94.754,140.094 95.459,140.739 96.164,141.384 96.869,142.029 97.574,142.674 98.279,143.319 98.984,143.964 99.689,144.609 100.394,145.254 101.099,145.899 101.804,146.544 102.509,147.189 103.214,147.834 103.919,148.479 104.624,149.124 105.329,149.769 106.034,150.414 106.739,151.059 107.444,151.704 108.149,152.349 108.854,152.994 109.559,153.639 110.264,154.284 110.969,154.929 111.674,155.574 112.379,156.219 113.084,156.864 113.789,157.509 114.494,158.154 115.199,158.799 115.904,159.444 116.609,160.089 117.314,160.734 118.019,161.379 118.724,162.024 119.429,162.669 120.134,163.314 120.839,163.959 121.544,164.604 122.249,165.249 122.954,165.894 123.659,166.539 124.364,167.184 125.069,167.829 125.774,168.474 126.479,169.119 127.184,169.764 127.889,170.409 128.594,171.054 129.299,171.699 130.004,172.344 130.709,172.989 131.414,173.634 132.119,174.279 132.824,174.924 133.529,175.569 134.234,176.214 134.939,176.859 135.644,177.504 136.349,178.149 137.054,178.794 137.759,179.439 138.464,180.084 139.169,180.729 139.874,181.374 140.579,182.019 141.284,182.664 141.989,183.309 142.694,183.954 143.399,184.599 144.104,185.244 144.809,185.889 145.514,186.534 146.219,187.179 146.924,187.824 147.629,188.469 148.334,189.114 149.039,189.759 149.744,190.404 150.449,191.049 151.154,191.694 151.859,192.339 152.564,192.984 153.269,193.629 153.974,194.274 154.679,194.919 155.384,195.564 156.089,196.209 156.794,196.854 157.499,197.499 158.204,198.144 158.909,198.789 159.614,199.434 160.319,200.079 161.024,200.724 161.729,201.369 162.434,202.014 163.139,202.659 163.844,203.304 164.549,203.949 165.254,204.594 165.959,205.239 166.664,205.884 167.369,206.529 168.074,207.174 168.779,207.819 169.484,208.464 170.189,209.109 170.894,209.754 171.599,210.399 172.304,211.044 173.009,211.689 173.714,212.334 174.419,212.979 175.124,213.624 175.829,214.269 176.534,214.914 177.239,215.559 177.944,216.204 178.649,216.849 179.354,217.494 180.059,218.139 180.764,218.784 181.469,219.429 182.174,220.074 182.879,220.719 183.584,221.364 184.289,222.009 184.994,222.654 185.699,223.299 186.404,223.944 187.109,224.589 187.814,225.234 188.519,225.879 189.224,226.524 189.929,227.169 190.634,227.814 191.339,228.459 192.044,229.104 192.749,229.749 193.454,230.394 194.159,231.039 194.864,231.684 195.569,232.329 196.274,232.974 196.979,233.619 197.684,234.264 198.389,234.909 199.094,235.554 199.799,236.199 200.504,236.844 201.209,237.489 201.914,238.134 202.619,238.779 203.324,239.424 204.029,240.069 204.734,240.714 205.439,241.359 206.144,242.004 206.849,242.649 207.554,243.294 208.259,243.939 208.964,244.584 209.669,245.229 210.374,245.874 211.079,246.519 211.784,247.164 212.489,247.809 213.194,248.454 213.899,249.099 214.604,249.744 215.309,250.389 216.014,251.034 216.719,251.679 217.424,252.324 218.129,252.969 218.834,253.614 219.539,254.259 220.244,254.904 220.949,255.549 221.654,256.194 222.359,256.839 223.064,257.484 223.769,258.129 224.474,258.774 225.179,259.419 225.884,260.064 226.589,260.709 227.294,261.354 227.999,261.999 228.704,262.644 229.409,263.289 230.114,263.934 230.819,264.579 231.524,265.224 232.229,265.869 232.934,266.514 233.639,267.159 234.344,267.804 235.049,268.449 235.754,269.094 236.459,269.739 237.164,270.384 237.869,271.029 238.574,271.674 239.279,272.319 239.984,272.964 240.689,273.609 241.394,274.254 242.099,274.899 242.804,275.544 243.509,276.189 244.214,276.834 244.919,277.479 245.624,278.124 246.329,278.769 247.034,279.414 247.739,280.059 248.444,280.704 249.149,281.349 249.854,281.994 250.559,282.639 251.264,283.284 251.969,283.929 252.674,284.574 253.379,285.219 254.084,285.864 254.789,286.509 255.494,287.154 256.199,287.799 256.904,288.444 257.609,289.089 258.314,289.734 259.019,290.379 259.724,291.024 260.429,291.669 261.134,292.314 261.839,292.959 262.544,293.604 263.249,294.249 263.954,294.894 264.659,295.539 265.364,296.184 266.069,296.829 266.774,297.474 267.479,298.119 268.184,298.764 268.889,299.409 269.594,300.054 270.299,300.699 271.004,301.344 271.709,301.989 272.414,302.634 273.119,303.279 273.824,303.924 274.529,304.569 275.234,305.214 275.939,305.859 276.644,306.504 277.349,307.149 278.054,307.794 278.759,308.439 279.464,309.084 280.169,309.729 280.874,310.374 281.579,311.019 282.284,311.664 282.989,312.309 283.694,312.954 284.399,313.599 285.104,314.244 285.809,314.889 286.514,315.534 287.219,316.179 287.924,316.824 288.629,317.469 289.334,318.114 290.039,318.759 290.744,319.404 291.449,320.049 292.154,320.694 292.859,321.339 293.564,321.984 294.269,322.629 294.974,323.274 295.679,323.919 296.384,324.564 297.089,325.209 297.794,325.854 298.499,326.499 299.204,327.144 299.909,327.789 300.614,328.434 301.319,329.079 302.024,329.724 302.729,330.369 303.434,331.014 304.139,331.659 304.844,332.304 305.549,332.949 306.254,333.594 306.959,334.239 307.664,334.884 308.369,335.529 309.074,336.174 309.779,336.819 310.484,337.464 311.189,338.109 311.894,338.754 312.599,339.399 313.304,340.044 314.009,340.689 314.714,341.334 315.419,341.979 316.124,342.624 316.829,343.269 317.534,343.914 318.239,344.559 318.944,345.204 319.649,345.849 320.354,346.494 321.059,347.139 321.764,347.784 322.469,348.429 323.174,349.074 323.879,349.719 324.584,350.364 325.289,351.009 325.994,351.654 326.699,352.299 327.404,352.944 328.109,353.589 328.814,354.234 329.519,354.879 330.224,355.524 330.929,356.169 331.634,356.814 332.339,357.459 333.044,358.104 333.749,358.749 334.454,359.394 335.159,360.039 335.864,360.684 336.569,361.329 337.274,361.974 337.979,362.619 338.684,363.264 339.389,363.909 340.094,364.554 340.799,365.199 341.504,365.844 342.209,366.489 342.914,367.134 343.619,367.779 344.324,368.424 345.029,369.069 345.734,369.714 346.439,370.359 347.144,371.004 347.849,371.649 348.554,372.294 349.259,372.939 349.964,373.584 350.669,374.229 351.374,374.874 352.079,375.519 352.784,376.164 353.489,376.809 354.194,377.454 354.899,378.099 355.604,378.744 356.309,379.389 357.014,380.034 357.719,380.679 358.424,381.324 359.129,381.969 359.834,382.614 360.539,383.259 361.244,383.904 361.949,384.549 362.654,385.194 363.359,385.839 364.064,386.484 364.769,387.129 365.474,387.774 366.179,388.419 366.884,389.064 367.589,389.709 368.294,390.354 368.999,390.999 369.704,391.644 370.409,392.289 371.114,392.934 371.819,393.579 372.524,394.224 373.229,394.869 373.934,395.514 374.639,396.159 375.344,396.804 376.049,397.449 376.754,398.094 377.459,398.739 378.164,399.384 378.869,400.029 379.574,400.674 380.279,401.319 380.984,401.964 381.689,402.609 382.394,403.254 383.099,403.899 383.804,404.544 384.509,405.189 385.214,405.834 385.919,406.479 386.624,407.124 387.329,407.769 388.034,408.414 388.739,409.059 389.444,409.704 390.149,410.349 390.854,410.994 391.559,411.639 392.264,412.284 392.969,412.929 393.674,413.574 394.379,414.219 395.084,414.864 395.789,415.509 396.494,416.154 397.199,416.799 397.904,417.444 398.609,418.089 399.314,418.734 400.019,419.379 400.724,420.024 401.429,420.669 402.134,421.314 402.839,421.959 403.544,422.604 404.249,423.249 404.954,423.894 405.659,424.539 406.364,425.184 407.069,425.829 407.774,426.474 408.479,427.119 409.184,427.764 409.889,428.409 410.594,429.054 411.299,429.699 412.004,430.344 412.709,430.989 413.414,431.634 414.119,432.279 414.824,432.924 415.529,433.569 416.234,434.214 416.939,434.859 417.644,435.504 418.349,436.149 419.054,436.794 419.759,437.439 420.464,438.084 421.169,438.729 421.874,439.374 422.579,440.019 423.284,440.664 423.989,441.309 424.694,441.954 425.399,442.599 426.104,443.244 426.809,443.889 427.514,444.534 428.219,445.179 428.924,445.824 429.629,446.469 430.334,447.114 431.039,447.759 431.744,448.404 432.449,449.049 433.154,449.694 433.859,450.339 434.564,450.984 435.269,451.629 435.974,452.274 436.679,452.919 437.384,453.564 438.089,454.209 438.794,454.854 439.499,455.499 440.204,456.144 440.909,456.789 441.614,457.434 442.319,458.079 443.024,458.724 443.729,459.369 444.434,460.014 445.139,460.659 445.844,461.304 446.549,461.949 447.254,462.594 447.959,463.239 448.664,463.884 449.369,464.529 450.074,465.174 450.779,465.819 451.484,466.464 452.189,467.109 452.894,467.754 453.599,468.399 454.304,469.044 455.009,469.689 455.714,470.334 456.419,470.979 457.124,471.624 457.829,472.269 458.534,472.914 459.239,473.559 459.944,474.204 460.649,474.849 461.354,475.494 462.059,476.139 462.764,476.784 463.469,477.429 464.174,478.074 464.879,478.719 465.584,479.364 466.289,480.009 466.994,480.654 467.699,481.299 468.404,481.944 469.109,482.589 469.814,483.234 470.519,483.879 471.224,484.524 471.929,485.169 472.634,485.814 473.339,486.459 474.044,487.104 474.749,487.749 475.454,488.394 476.159,489.039 476.864,489.684 477.569,490.329 478.274,490.974 478.979,491.619 479.684,492.264 480.389,492.909 481.094,493.554 481.799,494.199 482.504,494.844 483.209,495.489 483.914,496.134 484.619,496.779 485.324,497.424 486.029,498.069 486.734,498.714 487.439,499.359 488.144,500.004 488.849,500.649 489.554,501.294 490.259,501.939 490.964,502.584 491.669,503.229 492.374,503.874 493.079,504.519 493.784,505.164 494.489,505.809 495.194,506.454 495.899,507.099 496.604,507.744 497.309,508.389 498.014,509.034 498.719,509.679 499.424,510.324 500.129,510.969 500.834,511.614 501.539,512.259 502.244,512.904 502.949,513.549 503.654,514.194 504.359,514.839 505.064,515.484 505.769,516.129 506.474,516.774 507.179,517.419 507.884,518.064 508.589,518.709 509.294,519.354 509.999,519.999 " stroke-width="5" stroke="black" fill="none"></path><path d="M 512.203 512.257 L 523.280 532.149 L 502.483 522.881 L 509.999 519.999 z" stroke-width="1" stroke="black" fill="black"></path><path id="null" d="M25.9,536.125 26.683,535.229 27.466,534.333 28.249,533.437 29.033,532.541 29.816,531.645 30.599,530.750 31.383,529.854 32.166,528.958 32.949,528.062 33.733,527.166 34.516,526.270 35.299,525.375 36.083,524.479 36.866,523.583 37.649,522.687 38.433,521.791 39.216,520.895 39.999,520.000 40.783,519.104 41.566,518.208 42.349,517.312 43.133,516.416 43.916,515.520 44.699,514.625 45.483,513.729 46.266,512.833 47.049,511.937 47.833,511.041 48.616,510.145 49.399,509.250 50.183,508.354 50.966,507.458 51.749,506.562 52.533,505.666 53.316,504.770 54.099,503.875 54.883,502.979 55.666,502.083 56.449,501.187 57.233,500.291 58.016,499.395 58.799,498.500 59.583,497.604 60.366,496.708 61.149,495.812 61.933,494.916 62.716,494.020 63.499,493.125 64.283,492.229 65.066,491.333 65.849,490.437 66.633,489.541 67.416,488.645 68.199,487.750 68.983,486.854 69.766,485.958 70.549,485.062 71.333,484.166 72.116,483.270 72.899,482.375 73.683,481.479 74.466,480.583 75.249,479.687 76.033,478.791 76.816,477.895 77.599,477.000 78.383,476.104 79.166,475.208 79.949,474.312 80.733,473.416 81.516,472.520 82.299,471.625 83.083,470.729 83.866,469.833 84.649,468.937 85.433,468.041 86.216,467.145 86.999,466.250 87.783,465.354 88.566,464.458 89.349,463.562 90.133,462.666 90.916,461.770 91.699,460.875 92.483,459.979 93.266,459.083 94.049,458.187 94.833,457.291 95.616,456.395 96.399,455.500 97.183,454.604 97.966,453.708 98.749,452.812 99.533,451.916 100.316,451.020 101.099,450.125 101.883,449.229 102.666,448.333 103.449,447.437 104.233,446.541 105.016,445.645 105.799,444.750 106.583,443.854 107.366,442.958 108.149,442.062 108.933,441.166 109.716,440.270 110.499,439.375 111.283,438.479 112.066,437.583 112.849,436.687 113.633,435.791 114.416,434.895 115.199,434.000 115.983,433.104 116.766,432.208 117.549,431.312 118.333,430.416 119.116,429.520 119.899,428.625 120.683,427.729 121.466,426.833 122.249,425.937 123.033,425.041 123.816,424.145 124.599,423.250 125.383,422.354 126.166,421.458 126.949,420.562 127.733,419.666 128.516,418.770 129.299,417.875 130.083,416.979 130.866,416.083 131.649,415.187 132.433,414.291 133.216,413.395 133.999,412.500 134.783,411.604 135.566,410.708 136.349,409.812 137.133,408.916 137.916,408.020 138.699,407.125 139.483,406.229 140.266,405.333 141.049,404.437 141.833,403.541 142.616,402.645 143.399,401.750 144.183,400.854 144.966,399.958 145.749,399.062 146.533,398.166 147.316,397.270 148.099,396.375 148.883,395.479 149.666,394.583 150.449,393.687 151.233,392.791 152.016,391.895 152.799,391.000 153.583,390.104 154.366,389.208 155.149,388.312 155.933,387.416 156.716,386.520 157.499,385.625 158.283,384.729 159.066,383.833 159.849,382.937 160.633,382.041 161.416,381.145 162.199,380.250 162.983,379.354 163.766,378.458 164.549,377.562 165.333,376.666 166.116,375.770 166.899,374.875 167.683,373.979 168.466,373.083 169.249,372.187 170.033,371.291 170.816,370.395 171.599,369.500 172.383,368.604 173.166,367.708 173.949,366.812 174.733,365.916 175.516,365.021 176.299,364.125 177.083,363.229 177.866,362.333 178.649,361.437 179.433,360.541 180.216,359.646 180.999,358.750 181.783,357.854 182.566,356.958 183.349,356.062 184.133,355.166 184.916,354.271 185.699,353.375 186.483,352.479 187.266,351.583 188.049,350.687 188.833,349.791 189.616,348.896 190.399,348.000 191.183,347.104 191.966,346.208 192.749,345.312 193.533,344.416 194.316,343.521 195.099,342.625 195.883,341.729 196.666,340.833 197.449,339.937 198.233,339.041 199.016,338.146 199.799,337.250 200.583,336.354 201.366,335.458 202.149,334.562 202.933,333.666 203.716,332.771 204.499,331.875 205.283,330.979 206.066,330.083 206.849,329.187 207.633,328.291 208.416,327.396 209.199,326.500 209.983,325.604 210.766,324.708 211.549,323.812 212.333,322.916 213.116,322.021 213.899,321.125 214.683,320.229 215.466,319.333 216.249,318.437 217.033,317.541 217.816,316.646 218.599,315.750 219.383,314.854 220.166,313.958 220.949,313.062 221.733,312.166 222.516,311.271 223.299,310.375 224.083,309.479 224.866,308.583 225.649,307.687 226.433,306.791 227.216,305.896 227.999,305.000 228.783,304.104 229.566,303.208 230.349,302.312 231.133,301.416 231.916,300.521 232.699,299.625 233.483,298.729 234.266,297.833 235.049,296.937 235.833,296.041 236.616,295.146 237.399,294.250 238.183,293.354 238.966,292.458 239.749,291.562 240.533,290.666 241.316,289.771 242.099,288.875 242.883,287.979 243.666,287.083 244.449,286.187 245.233,285.291 246.016,284.396 246.799,283.500 247.583,282.604 248.366,281.708 249.149,280.812 249.933,279.916 250.716,279.021 251.499,278.125 252.283,277.229 253.066,276.333 253.849,275.437 254.633,274.541 255.416,273.646 256.199,272.750 256.983,271.854 257.766,270.958 258.549,270.062 259.333,269.166 260.116,268.271 260.899,267.375 261.683,266.479 262.466,265.583 263.249,264.687 264.033,263.791 264.816,262.896 265.599,262.000 266.383,261.104 267.166,260.208 267.949,259.312 268.733,258.416 269.516,257.521 270.299,256.625 271.083,255.729 271.866,254.833 272.649,253.937 273.433,253.041 274.216,252.146 274.999,251.250 275.783,250.354 276.566,249.458 277.349,248.562 278.133,247.666 278.916,246.771 279.699,245.875 280.483,244.979 281.266,244.083 282.049,243.187 282.833,242.291 283.616,241.396 284.399,240.500 285.183,239.604 285.966,238.708 286.749,237.812 287.533,236.916 288.316,236.021 289.099,235.125 289.883,234.229 290.666,233.333 291.449,232.437 292.233,231.541 293.016,230.646 293.799,229.750 294.583,228.854 295.366,227.958 296.149,227.062 296.933,226.166 297.716,225.271 298.499,224.375 299.283,223.479 300.066,222.583 300.849,221.687 301.633,220.791 302.416,219.896 303.199,219.000 303.983,218.104 304.766,217.208 305.549,216.312 306.333,215.416 307.116,214.521 307.899,213.625 308.683,212.729 309.466,211.833 310.249,210.937 311.033,210.041 311.816,209.146 312.599,208.250 313.383,207.354 314.166,206.458 314.949,205.562 315.733,204.666 316.516,203.771 317.299,202.875 318.083,201.979 318.866,201.083 319.649,200.187 320.433,199.292 321.216,198.396 321.999,197.500 322.783,196.604 323.566,195.708 324.349,194.812 325.133,193.917 325.916,193.021 326.699,192.125 327.483,191.229 328.266,190.333 329.049,189.437 329.833,188.542 330.616,187.646 331.399,186.750 332.183,185.854 332.966,184.958 333.749,184.062 334.533,183.167 335.316,182.271 336.099,181.375 336.883,180.479 337.666,179.583 338.449,178.687 339.233,177.792 340.016,176.896 340.799,176.000 341.583,175.104 342.366,174.208 343.149,173.312 343.933,172.417 344.716,171.521 345.499,170.625 346.283,169.729 347.066,168.833 347.849,167.937 348.633,167.042 349.416,166.146 350.199,165.250 350.983,164.354 351.766,163.458 352.549,162.562 353.333,161.667 354.116,160.771 354.899,159.875 355.683,158.979 356.466,158.083 357.249,157.187 358.033,156.292 358.816,155.396 359.599,154.500 360.382,153.604 361.166,152.708 361.949,151.812 362.732,150.917 363.516,150.021 364.299,149.125 365.082,148.229 365.866,147.333 366.649,146.437 367.432,145.542 368.216,144.646 368.999,143.750 369.782,142.854 370.566,141.958 371.349,141.062 372.132,140.167 372.916,139.271 373.699,138.375 374.482,137.479 375.266,136.583 376.049,135.687 376.832,134.792 377.616,133.896 378.399,133.000 379.182,132.104 379.966,131.208 380.749,130.312 381.532,129.417 382.316,128.521 383.099,127.625 383.882,126.729 384.666,125.833 385.449,124.937 386.232,124.042 387.016,123.146 387.799,122.250 388.582,121.354 389.366,120.458 390.149,119.562 390.932,118.667 391.716,117.771 392.499,116.875 393.282,115.979 394.066,115.083 394.849,114.187 395.632,113.292 396.416,112.396 397.199,111.500 397.982,110.604 398.766,109.708 399.549,108.812 400.332,107.917 401.116,107.021 401.899,106.125 402.682,105.229 403.466,104.333 404.249,103.437 405.032,102.542 405.816,101.646 406.599,100.750 407.382,99.854 408.166,98.958 408.949,98.062 409.732,97.167 410.516,96.271 411.299,95.375 412.082,94.479 412.866,93.583 413.649,92.687 414.432,91.792 415.216,90.896 415.999,90.000 416.782,89.104 417.566,88.208 418.349,87.312 419.132,86.417 419.916,85.521 420.699,84.625 421.482,83.729 422.266,82.833 423.049,81.937 423.832,81.042 424.616,80.146 425.399,79.250 426.182,78.354 426.966,77.458 427.749,76.562 428.407,75.81 " stroke-width="5" stroke="black" fill="none"></path><path d="M 420.618 73.780 L 440.256 62.259 L 431.458 83.259 L 428.407 75.81 z" stroke-width="1" stroke="black" fill="black"></path><path id="null" d="M25.9,529.675 26.683,529.137 27.466,528.600 28.249,528.062 29.033,527.525 29.816,526.987 30.599,526.450 31.383,525.912 32.166,525.375 32.949,524.837 33.733,524.300 34.516,523.762 35.299,523.225 36.083,522.687 36.866,522.150 37.649,521.612 38.433,521.075 39.216,520.537 39.999,520.000 40.783,519.462 41.566,518.925 42.349,518.387 43.133,517.850 43.916,517.312 44.699,516.775 45.483,516.237 46.266,515.700 47.049,515.162 47.833,514.625 48.616,514.087 49.399,513.550 50.183,513.012 50.966,512.475 51.749,511.937 52.533,511.400 53.316,510.862 54.099,510.325 54.883,509.787 55.666,509.250 56.449,508.712 57.233,508.175 58.016,507.637 58.799,507.100 59.583,506.562 60.366,506.025 61.149,505.487 61.933,504.950 62.716,504.412 63.499,503.875 64.283,503.337 65.066,502.800 65.849,502.262 66.633,501.725 67.416,501.187 68.199,500.650 68.983,500.112 69.766,499.575 70.549,499.037 71.333,498.500 72.116,497.962 72.899,497.425 73.683,496.887 74.466,496.350 75.249,495.812 76.033,495.275 76.816,494.737 77.599,494.200 78.383,493.662 79.166,493.125 79.949,492.587 80.733,492.050 81.516,491.512 82.299,490.975 83.083,490.437 83.866,489.900 84.649,489.362 85.433,488.825 86.216,488.287 86.999,487.750 87.783,487.212 88.566,486.675 89.349,486.137 90.133,485.600 90.916,485.062 91.699,484.525 92.483,483.987 93.266,483.450 94.049,482.912 94.833,482.375 95.616,481.837 96.399,481.300 97.183,480.762 97.966,480.225 98.749,479.687 99.533,479.150 100.316,478.612 101.099,478.075 101.883,477.537 102.666,477.000 103.449,476.462 104.233,475.925 105.016,475.387 105.799,474.850 106.583,474.312 107.366,473.775 108.149,473.237 108.933,472.700 109.716,472.162 110.499,471.625 111.283,471.087 112.066,470.550 112.849,470.012 113.633,469.475 114.416,468.937 115.199,468.400 115.983,467.862 116.766,467.325 117.549,466.787 118.333,466.250 119.116,465.712 119.899,465.175 120.683,464.637 121.466,464.100 122.249,463.562 123.033,463.025 123.816,462.487 124.599,461.950 125.383,461.412 126.166,460.875 126.949,460.337 127.733,459.800 128.516,459.262 129.299,458.725 130.083,458.187 130.866,457.650 131.649,457.112 132.433,456.575 133.216,456.037 133.999,455.500 134.783,454.962 135.566,454.425 136.349,453.887 137.133,453.350 137.916,452.812 138.699,452.275 139.483,451.737 140.266,451.200 141.049,450.662 141.833,450.125 142.616,449.587 143.399,449.050 144.183,448.512 144.966,447.975 145.749,447.437 146.533,446.900 147.316,446.362 148.099,445.825 148.883,445.287 149.666,444.750 150.449,444.212 151.233,443.675 152.016,443.137 152.799,442.600 153.583,442.062 154.366,441.525 155.149,440.987 155.933,440.450 156.716,439.912 157.499,439.375 158.283,438.837 159.066,438.300 159.849,437.762 160.633,437.225 161.416,436.687 162.199,436.150 162.983,435.612 163.766,435.075 164.549,434.537 165.333,434.000 166.116,433.462 166.899,432.925 167.683,432.387 168.466,431.850 169.249,431.312 170.033,430.775 170.816,430.237 171.599,429.700 172.383,429.162 173.166,428.625 173.949,428.087 174.733,427.550 175.516,427.012 176.299,426.475 177.083,425.937 177.866,425.400 178.649,424.862 179.433,424.325 180.216,423.787 180.999,423.250 181.783,422.712 182.566,422.175 183.349,421.637 184.133,421.100 184.916,420.562 185.699,420.025 186.483,419.487 187.266,418.950 188.049,418.412 188.833,417.875 189.616,417.337 190.399,416.800 191.183,416.262 191.966,415.725 192.749,415.187 193.533,414.650 194.316,414.112 195.099,413.575 195.883,413.037 196.666,412.500 197.449,411.962 198.233,411.425 199.016,410.887 199.799,410.350 200.583,409.812 201.366,409.275 202.149,408.737 202.933,408.200 203.716,407.662 204.499,407.125 205.283,406.587 206.066,406.050 206.849,405.512 207.633,404.975 208.416,404.437 209.199,403.900 209.983,403.362 210.766,402.825 211.549,402.287 212.333,401.750 213.116,401.212 213.899,400.675 214.683,400.137 215.466,399.600 216.249,399.062 217.033,398.525 217.816,397.987 218.599,397.450 219.383,396.912 220.166,396.375 220.949,395.837 221.733,395.300 222.516,394.762 223.299,394.225 224.083,393.687 224.866,393.150 225.649,392.612 226.433,392.075 227.216,391.537 227.999,391.000 228.783,390.462 229.566,389.925 230.349,389.387 231.133,388.850 231.916,388.312 232.699,387.775 233.483,387.237 234.266,386.700 235.049,386.162 235.833,385.625 236.616,385.087 237.399,384.550 238.183,384.012 238.966,383.475 239.749,382.937 240.533,382.400 241.316,381.862 242.099,381.325 242.883,380.787 243.666,380.250 244.449,379.712 245.233,379.175 246.016,378.637 246.799,378.100 247.583,377.562 248.366,377.025 249.149,376.487 249.933,375.950 250.716,375.412 251.499,374.875 252.283,374.337 253.066,373.800 253.849,373.262 254.633,372.725 255.416,372.187 256.199,371.650 256.983,371.112 257.766,370.575 258.549,370.037 259.333,369.500 260.116,368.962 260.899,368.425 261.683,367.887 262.466,367.350 263.249,366.812 264.033,366.275 264.816,365.737 265.599,365.200 266.383,364.662 267.166,364.125 267.949,363.587 268.733,363.050 269.516,362.512 270.299,361.975 271.083,361.437 271.866,360.900 272.649,360.362 273.433,359.825 274.216,359.287 274.999,358.750 275.783,358.212 276.566,357.675 277.349,357.137 278.133,356.600 278.916,356.062 279.699,355.525 280.483,354.987 281.266,354.450 282.049,353.912 282.833,353.375 283.616,352.837 284.399,352.300 285.183,351.762 285.966,351.225 286.749,350.687 287.533,350.150 288.316,349.612 289.099,349.075 289.883,348.537 290.666,348.000 291.449,347.462 292.233,346.925 293.016,346.387 293.799,345.850 294.583,345.312 295.366,344.775 296.149,344.237 296.933,343.700 297.716,343.162 298.499,342.625 299.283,342.087 300.066,341.550 300.849,341.012 301.633,340.475 302.416,339.937 303.199,339.400 303.983,338.862 304.766,338.325 305.549,337.787 306.333,337.250 307.116,336.712 307.899,336.175 308.683,335.637 309.466,335.100 310.249,334.562 311.033,334.025 311.816,333.487 312.599,332.950 313.383,332.412 314.166,331.875 314.949,331.337 315.733,330.800 316.516,330.262 317.299,329.725 318.083,329.187 318.866,328.650 319.649,328.112 320.433,327.575 321.216,327.037 321.999,326.500 322.783,325.962 323.566,325.425 324.349,324.887 325.133,324.350 325.916,323.812 326.699,323.275 327.483,322.737 328.266,322.200 329.049,321.662 329.833,321.125 330.616,320.587 331.399,320.050 332.183,319.512 332.966,318.975 333.749,318.437 334.533,317.900 335.316,317.362 336.099,316.825 336.883,316.287 337.666,315.750 338.449,315.212 339.233,314.675 340.016,314.137 340.799,313.600 341.583,313.062 342.366,312.525 343.149,311.987 343.933,311.450 344.716,310.912 345.499,310.375 346.283,309.837 347.066,309.300 347.849,308.762 348.633,308.225 349.416,307.687 350.199,307.150 350.983,306.612 351.766,306.075 352.549,305.537 353.333,305.000 354.116,304.462 354.899,303.925 355.683,303.387 356.466,302.850 357.249,302.312 358.033,301.775 358.816,301.237 359.599,300.700 360.382,300.162 361.166,299.625 361.949,299.087 362.732,298.550 363.516,298.012 364.299,297.475 365.082,296.937 365.866,296.400 366.649,295.862 367.432,295.325 368.216,294.787 368.999,294.250 369.782,293.712 370.566,293.175 371.349,292.637 372.132,292.100 372.916,291.562 373.699,291.025 374.482,290.487 375.266,289.950 376.049,289.412 376.832,288.875 377.616,288.337 378.399,287.800 379.182,287.262 379.966,286.725 380.749,286.187 381.532,285.650 382.316,285.112 383.099,284.575 383.882,284.037 384.666,283.500 385.449,282.962 386.232,282.425 387.016,281.887 387.799,281.350 388.582,280.812 389.366,280.275 390.149,279.737 390.932,279.200 391.716,278.662 392.499,278.125 393.282,277.587 394.066,277.050 394.849,276.512 395.632,275.975 396.416,275.437 397.199,274.900 397.982,274.362 398.766,273.825 399.549,273.287 400.332,272.750 401.116,272.212 401.899,271.675 402.682,271.137 403.466,270.600 404.249,270.062 405.032,269.525 405.816,268.987 406.599,268.450 407.382,267.912 408.166,267.375 408.949,266.837 409.732,266.300 410.516,265.762 411.299,265.225 412.082,264.687 412.866,264.150 413.649,263.612 414.432,263.075 415.216,262.537 415.999,262.000 416.782,261.462 417.566,260.925 418.349,260.387 419.132,259.850 419.916,259.312 420.699,258.775 421.482,258.237 422.266,257.700 423.049,257.162 423.832,256.625 424.616,256.087 425.399,255.550 426.182,255.012 426.966,254.475 427.749,253.937 428.532,253.400 429.316,252.862 430.099,252.325 430.882,251.787 431.666,251.250 432.449,250.712 433.232,250.175 434.016,249.637 434.799,249.100 435.582,248.562 436.366,248.025 437.149,247.487 437.932,246.950 438.716,246.412 439.499,245.875 440.282,245.337 441.066,244.800 441.849,244.262 442.632,243.725 443.416,243.187 444.199,242.650 444.982,242.112 445.766,241.575 446.549,241.037 447.332,240.500 448.116,239.962 448.899,239.425 449.682,238.887 450.466,238.350 451.249,237.812 452.032,237.275 452.816,236.737 453.599,236.200 454.382,235.662 455.166,235.125 455.949,234.587 456.732,234.050 457.516,233.512 458.299,232.975 459.082,232.437 459.866,231.900 460.649,231.362 461.432,230.825 462.216,230.287 462.999,229.750 463.782,229.212 464.566,228.675 465.349,228.137 466.132,227.600 466.916,227.062 467.699,226.525 468.482,225.987 469.266,225.450 470.049,224.912 470.832,224.375 471.616,223.837 472.399,223.300 473.182,222.762 473.966,222.225 474.749,221.687 475.532,221.150 476.316,220.612 477.099,220.075 477.882,219.537 478.666,219.000 479.449,218.462 480.232,217.925 481.016,217.387 481.799,216.850 482.582,216.312 483.366,215.775 484.149,215.237 484.932,214.700 485.716,214.162 486.499,213.625 487.282,213.087 488.066,212.550 488.849,212.012 489.632,211.475 490.416,210.937 491.199,210.400 491.982,209.862 492.766,209.325 493.549,208.787 494.332,208.250 495.116,207.712 495.899,207.175 496.682,206.637 497.466,206.100 498.249,205.562 499.032,205.025 499.816,204.487 500.599,203.950 501.382,203.412 502.166,202.875 502.949,202.337 503.732,201.800 504.516,201.262 505.299,200.725 506.082,200.187 506.866,199.650 507.649,199.112 508.432,198.575 509.216,198.037 509.999,197.500 " stroke-width="5" stroke="black" fill="none"></path><path d="M 502.957 193.600 L 524.841 187.316 L 511.104 205.473 L 509.999 197.500 z" stroke-width="1" stroke="black" fill="black"></path></svg>