<?xml version="1.0" encoding="utf-8"?><!DOCTYPE svg PUBLIC "-//W3C//DTD SVG 1.1//EN" "http://www.w3.org/Graphics/SVG/1.1/DTD/svg11.dtd"><svg xmlns="http://www.w3.org/2000/svg" xmlns:xlink="http://www.w3.org/1999/xlink" id="preview" width="600" height="603" viewBox="0 0 600 603" xunitlength="94" yunitlength="43" xmin="0" xmax="5" ymin="-1" ymax="10" ox="40" oy="83"><defs><style type="text/css">@import url("http://cdnjs.cloudflare.com/ajax/libs/KaTeX/0.2.0/katex.min.css")</style></defs><path d=" M40,90 40,563 M134,90 134,563 M228,90 228,563 M322,90 322,563 M416,90 416,563 M510,90 510,563 M40,520 510,520 M40,563 510,563 M40,477 510,477 M40,434 510,434 M40,391 510,391 M40,348 510,348 M40,305 510,305 M40,262 510,262 M40,219 510,219 M40,176 510,176 M40,133 510,133 M40,90 510,90" stroke-width="1" stroke="grey" fill="none"></path><path d="M 524.4 512.8 L 546 520 L 524.4 527.2 L 528 520 z" stroke-width="1" stroke="black" fill="black"></path><path d="M 32.8 75.6 L 40 54 L 47.2 75.6 L 40 72 z" stroke-width="1" stroke="black" fill="black"></path><path d="M22,520 528,520 M40,72 40,581 M40,525 40,515 M134,525 134,515 M228,525 228,515 M322,525 322,515 M416,525 416,515 M510,525 510,515 M45,520 35,520 M45,563 35,563 M45,477 35,477 M45,434 35,434 M45,391 35,391 M45,348 35,348 M45,305 35,305 M45,262 35,262 M45,219 35,219 M45,176 35,176 M45,133 35,133 M45,90 35,90" stroke-width="2" stroke="black" fill="none"></path><text id="null" x="40" y="45.333" font-style="italic" font-family="KaTeX_Main, serif" font-size="20" font-weight="normal" text-anchor="middle" fill="black" stroke-width="0px">IR</text><text id="null" x="554.666" y="526.666" font-style="italic" font-family="KaTeX_Main, serif" font-size="20" font-weight="normal" text-anchor="start" fill="black" stroke-width="0px">UR</text><path id="null" d="M39.648,75.81 40.783,79.957 41.566,82.795 42.349,85.614 43.133,88.415 43.916,91.197 44.699,93.960 45.483,96.705 46.266,99.432 47.049,102.141 47.833,104.831 48.616,107.504 49.399,110.159 50.183,112.797 50.966,115.417 51.749,118.019 52.533,120.605 53.316,123.173 54.099,125.724 54.883,128.258 55.666,130.775 56.449,133.275 57.233,135.759 58.016,138.227 58.799,140.678 59.583,143.112 60.366,145.531 61.149,147.933 61.933,150.320 62.716,152.690 63.499,155.045 64.283,157.384 65.066,159.708 65.849,162.016 66.633,164.309 67.416,166.587 68.199,168.849 68.983,171.097 69.766,173.329 70.549,175.547 71.333,177.750 72.116,179.939 72.899,182.112 73.683,184.272 74.466,186.417 75.249,188.548 76.033,190.664 76.816,192.767 77.599,194.855 78.383,196.930 79.166,198.991 79.949,201.038 80.733,203.072 81.516,205.092 82.299,207.099 83.083,209.092 83.866,211.072 84.649,213.039 85.433,214.993 86.216,216.934 86.999,218.862 87.783,220.777 88.566,222.679 89.349,224.569 90.133,226.446 90.916,228.311 91.699,230.164 92.483,232.004 93.266,233.832 94.049,235.647 94.833,237.451 95.616,239.243 96.399,241.022 97.183,242.790 97.966,244.547 98.749,246.291 99.533,248.024 100.316,249.746 101.099,251.456 101.883,253.154 102.666,254.841 103.449,256.518 104.233,258.183 105.016,259.836 105.799,261.479 106.583,263.111 107.366,264.733 108.149,266.343 108.933,267.943 109.716,269.532 110.499,271.110 111.283,272.678 112.066,274.236 112.849,275.783 113.633,277.320 114.416,278.847 115.199,280.364 115.983,281.870 116.766,283.367 117.549,284.853 118.333,286.330 119.116,287.797 119.899,289.254 120.683,290.701 121.466,292.139 122.249,293.568 123.033,294.986 123.816,296.396 124.599,297.796 125.383,299.187 126.166,300.568 126.949,301.940 127.733,303.304 128.516,304.658 129.299,306.003 130.083,307.339 130.866,308.666 131.649,309.985 132.433,311.294 133.216,312.595 133.999,313.888 134.783,315.172 135.566,316.447 136.349,317.714 137.133,318.972 137.916,320.222 138.699,321.464 139.483,322.697 140.266,323.923 141.049,325.140 141.833,326.349 142.616,327.550 143.399,328.743 144.183,329.928 144.966,331.105 145.749,332.274 146.533,333.436 147.316,334.590 148.099,335.736 148.883,336.875 149.666,338.006 150.449,339.129 151.233,340.245 152.016,341.354 152.799,342.455 153.583,343.549 154.366,344.636 155.149,345.716 155.933,346.788 156.716,347.853 157.499,348.911 158.283,349.962 159.066,351.006 159.849,352.043 160.633,353.074 161.416,354.097 162.199,355.114 162.983,356.124 163.766,357.127 164.549,358.123 165.333,359.113 166.116,360.096 166.899,361.073 167.683,362.044 168.466,363.007 169.249,363.965 170.033,364.916 170.816,365.861 171.599,366.799 172.383,367.731 173.166,368.657 173.949,369.577 174.733,370.491 175.516,371.399 176.299,372.300 177.083,373.196 177.866,374.086 178.649,374.969 179.433,375.847 180.216,376.720 180.999,377.586 181.783,378.446 182.566,379.301 183.349,380.150 184.133,380.994 184.916,381.832 185.699,382.664 186.483,383.491 187.266,384.312 188.049,385.128 188.833,385.939 189.616,386.744 190.399,387.543 191.183,388.338 191.966,389.127 192.749,389.911 193.533,390.689 194.316,391.463 195.099,392.231 195.883,392.994 196.666,393.753 197.449,394.506 198.233,395.254 199.016,395.997 199.799,396.735 200.583,397.469 201.366,398.197 202.149,398.921 202.933,399.639 203.716,400.353 204.499,401.063 205.283,401.767 206.066,402.467 206.849,403.162 207.633,403.853 208.416,404.539 209.199,405.220 209.983,405.897 210.766,406.570 211.549,407.238 212.333,407.901 213.116,408.560 213.899,409.215 214.683,409.866 215.466,410.512 216.249,411.153 217.033,411.791 217.816,412.424 218.599,413.053 219.383,413.678 220.166,414.299 220.949,414.915 221.733,415.528 222.516,416.136 223.299,416.741 224.083,417.341 224.866,417.938 225.649,418.530 226.433,419.119 227.216,419.703 227.999,420.284 228.783,420.861 229.566,421.434 230.349,422.003 231.133,422.568 231.916,423.130 232.699,423.688 233.483,424.242 234.266,424.793 235.049,425.340 235.833,425.883 236.616,426.422 237.399,426.959 238.183,427.491 238.966,428.020 239.749,428.545 240.533,429.067 241.316,429.586 242.099,430.101 242.883,430.613 243.666,431.121 244.449,431.626 245.233,432.127 246.016,432.625 246.799,433.120 247.583,433.612 248.366,434.100 249.149,434.585 249.933,435.067 250.716,435.545 251.499,436.021 252.283,436.493 253.066,436.962 253.849,437.428 254.633,437.891 255.416,438.351 256.199,438.808 256.983,439.262 257.766,439.712 258.549,440.160 259.333,440.605 260.116,441.047 260.899,441.486 261.683,441.922 262.466,442.355 263.249,442.785 264.033,443.212 264.816,443.637 265.599,444.058 266.383,444.477 267.166,444.893 267.949,445.307 268.733,445.717 269.516,446.125 270.299,446.530 271.083,446.933 271.866,447.332 272.649,447.730 273.433,448.124 274.216,448.516 274.999,448.905 275.783,449.292 276.566,449.676 277.349,450.058 278.133,450.437 278.916,450.813 279.699,451.187 280.483,451.559 281.266,451.928 282.049,452.294 282.833,452.658 283.616,453.020 284.399,453.379 285.183,453.736 285.966,454.091 286.749,454.443 287.533,454.793 288.316,455.141 289.099,455.486 289.883,455.829 290.666,456.169 291.449,456.508 292.233,456.844 293.016,457.178 293.799,457.510 294.583,457.839 295.366,458.166 296.149,458.492 296.933,458.815 297.716,459.135 298.499,459.454 299.283,459.771 300.066,460.085 300.849,460.397 301.633,460.708 302.416,461.016 303.199,461.322 303.983,461.626 304.766,461.929 305.549,462.229 306.333,462.527 307.116,462.823 307.899,463.117 308.683,463.409 309.466,463.700 310.249,463.988 311.033,464.275 311.816,464.559 312.599,464.842 313.383,465.123 314.166,465.401 314.949,465.679 315.733,465.954 316.516,466.227 317.299,466.499 318.083,466.768 318.866,467.036 319.649,467.303 320.433,467.567 321.216,467.830 321.999,468.091 322.783,468.350 323.566,468.607 324.349,468.863 325.133,469.117 325.916,469.370 326.699,469.620 327.483,469.869 328.266,470.117 329.049,470.362 329.833,470.606 330.616,470.849 331.399,471.090 332.183,471.329 332.966,471.567 333.749,471.803 334.533,472.037 335.316,472.270 336.099,472.502 336.883,472.732 337.666,472.960 338.449,473.187 339.233,473.412 340.016,473.636 340.799,473.858 341.583,474.079 342.366,474.299 343.149,474.517 343.933,474.733 344.716,474.948 345.499,475.162 346.283,475.374 347.066,475.585 347.849,475.794 348.633,476.002 349.416,476.209 350.199,476.414 350.983,476.618 351.766,476.820 352.549,477.022 353.333,477.222 354.116,477.420 354.899,477.617 355.683,477.813 356.466,478.008 357.249,478.201 358.033,478.393 358.816,478.584 359.599,478.773 360.382,478.961 361.166,479.148 361.949,479.334 362.732,479.519 363.516,479.702 364.299,479.884 365.082,480.065 365.866,480.244 366.649,480.423 367.432,480.600 368.216,480.776 368.999,480.951 369.782,481.125 370.566,481.297 371.349,481.469 372.132,481.639 372.916,481.808 373.699,481.976 374.482,482.143 375.266,482.309 376.049,482.474 376.832,482.637 377.616,482.800 378.399,482.961 379.182,483.122 379.966,483.281 380.749,483.439 381.532,483.597 382.316,483.753 383.099,483.908 383.882,484.062 384.666,484.215 385.449,484.367 386.232,484.518 387.016,484.668 387.799,484.817 388.582,484.965 389.366,485.112 390.149,485.259 390.932,485.404 391.716,485.548 392.499,485.691 393.282,485.833 394.066,485.975 394.849,486.115 395.632,486.254 396.416,486.393 397.199,486.530 397.982,486.667 398.766,486.803 399.549,486.938 400.332,487.072 401.116,487.205 401.899,487.337 402.682,487.468 403.466,487.599 404.249,487.728 405.032,487.857 405.816,487.985 406.599,488.112 407.382,488.238 408.166,488.363 408.949,488.488 409.732,488.612 410.516,488.734 411.299,488.856 412.082,488.978 412.866,489.098 413.649,489.218 414.432,489.336 415.216,489.454 415.999,489.572 416.782,489.688 417.566,489.804 418.349,489.919 419.132,490.033 419.916,490.146 420.699,490.259 421.482,490.371 422.266,490.482 423.049,490.592 423.832,490.702 424.616,490.811 425.399,490.919 426.182,491.027 426.966,491.134 427.749,491.240 428.532,491.345 429.316,491.450 430.099,491.554 430.882,491.657 431.666,491.760 432.449,491.862 433.232,491.963 434.016,492.063 434.799,492.163 435.582,492.263 436.366,492.361 437.149,492.459 437.932,492.556 438.716,492.653 439.499,492.749 440.282,492.844 441.066,492.939 441.849,493.033 442.632,493.127 443.416,493.219 444.199,493.312 444.982,493.403 445.766,493.494 446.549,493.585 447.332,493.674 448.116,493.764 448.899,493.852 449.682,493.940 450.466,494.028 451.249,494.115 452.032,494.201 452.816,494.287 453.599,494.372 454.382,494.456 455.166,494.540 455.949,494.624 456.732,494.707 457.516,494.789 458.299,494.871 459.082,494.952 459.866,495.033 460.649,495.113 461.432,495.193 462.216,495.272 462.999,495.350 463.782,495.428 464.566,495.506 465.349,495.583 466.132,495.659 466.916,495.735 467.699,495.811 468.482,495.886 469.266,495.960 470.049,496.034 470.832,496.108 471.616,496.181 472.399,496.254 473.182,496.326 473.966,496.397 474.749,496.468 475.532,496.539 476.316,496.609 477.099,496.679 477.882,496.748 478.666,496.817 479.449,496.885 480.232,496.953 481.016,497.020 481.799,497.087 482.582,497.154 483.366,497.220 484.149,497.286 484.932,497.351 485.716,497.416 486.499,497.480 487.282,497.544 488.066,497.607 488.849,497.671 489.632,497.733 490.416,497.795 491.199,497.857 491.982,497.919 492.766,497.980 493.549,498.040 494.332,498.100 495.116,498.160 495.899,498.220 496.682,498.279 497.466,498.337 498.249,498.395 499.032,498.453 499.816,498.511 500.599,498.568 501.382,498.624 502.166,498.681 502.949,498.737 503.732,498.792 504.516,498.847 505.299,498.902 506.082,498.957 506.866,499.011 507.649,499.065 508.432,499.118 509.216,499.171 509.999,499.224 510.782,499.276 511.566,499.328 512.349,499.380 513.132,499.431 513.916,499.482 514.699,499.533 515.482,499.583 516.266,499.633 517.049,499.682 517.832,499.732 518.616,499.781 519.399,499.829 520.182,499.878 520.966,499.926 521.749,499.973 522.532,500.021 523.316,500.068 524.099,500.114 " stroke-width="5" stroke="black" fill="none"></path><path id="null" d="M274.987,577.19 275.097,75.81 " stroke-width="5" stroke="black" fill="none"></path></svg>