<?xml version="1.0" encoding="utf-8"?><!DOCTYPE svg PUBLIC "-//W3C//DTD SVG 1.1//EN" "http://www.w3.org/Graphics/SVG/1.1/DTD/svg11.dtd"><svg xmlns="http://www.w3.org/2000/svg" xmlns:xlink="http://www.w3.org/1999/xlink" id="preview" width="600" height="603" viewBox="0 0 600 603" xunitlength="94" yunitlength="43" xmin="0" xmax="5" ymin="-1" ymax="10" ox="40" oy="83"><defs><style type="text/css">@import url("http://cdnjs.cloudflare.com/ajax/libs/KaTeX/0.2.0/katex.min.css")</style></defs><path d=" M40,90 40,563 M134,90 134,563 M228,90 228,563 M322,90 322,563 M416,90 416,563 M510,90 510,563 M40,520 510,520 M40,563 510,563 M40,477 510,477 M40,434 510,434 M40,391 510,391 M40,348 510,348 M40,305 510,305 M40,262 510,262 M40,219 510,219 M40,176 510,176 M40,133 510,133 M40,90 510,90" stroke-width="1" stroke="grey" fill="none"></path><path d="M 524.4 512.8 L 546 520 L 524.4 527.2 L 528 520 z" stroke-width="1" stroke="black" fill="black"></path><path d="M 32.8 75.6 L 40 54 L 47.2 75.6 L 40 72 z" stroke-width="1" stroke="black" fill="black"></path><path d="M22,520 528,520 M40,72 40,581 M40,526.5 40,513.5 M134,526.5 134,513.5 M228,526.5 228,513.5 M322,526.5 322,513.5 M416,526.5 416,513.5 M510,526.5 510,513.5 M46.5,520 33.5,520 M46.5,563 33.5,563 M46.5,477 33.5,477 M46.5,434 33.5,434 M46.5,391 33.5,391 M46.5,348 33.5,348 M46.5,305 33.5,305 M46.5,262 33.5,262 M46.5,219 33.5,219 M46.5,176 33.5,176 M46.5,133 33.5,133 M46.5,90 33.5,90" stroke-width="2" stroke="black" fill="none"></path><text id="null" x="40" y="43.333" font-style="italic" font-family="KaTeX_Main, serif" font-size="26" font-weight="normal" text-anchor="middle" fill="black" stroke-width="0px">P</text><text id="null" x="556.666" y="528.666" font-style="italic" font-family="KaTeX_Main, serif" font-size="26" font-weight="normal" text-anchor="start" fill="black" stroke-width="0px">Q</text><path id="null" d="M25.9,532.9 26.683,532.183 27.466,531.466 28.249,530.750 29.033,530.033 29.816,529.316 30.599,528.600 31.383,527.883 32.166,527.166 32.949,526.450 33.733,525.733 34.516,525.016 35.299,524.300 36.083,523.583 36.866,522.866 37.649,522.150 38.433,521.433 39.216,520.716 39.999,520.000 40.783,519.283 41.566,518.566 42.349,517.850 43.133,517.133 43.916,516.416 44.699,515.700 45.483,514.983 46.266,514.266 47.049,513.550 47.833,512.833 48.616,512.116 49.399,511.400 50.183,510.683 50.966,509.966 51.749,509.250 52.533,508.533 53.316,507.816 54.099,507.100 54.883,506.383 55.666,505.666 56.449,504.950 57.233,504.233 58.016,503.516 58.799,502.800 59.583,502.083 60.366,501.366 61.149,500.650 61.933,499.933 62.716,499.216 63.499,498.500 64.283,497.783 65.066,497.066 65.849,496.350 66.633,495.633 67.416,494.916 68.199,494.200 68.983,493.483 69.766,492.766 70.549,492.050 71.333,491.333 72.116,490.616 72.899,489.900 73.683,489.183 74.466,488.466 75.249,487.750 76.033,487.033 76.816,486.316 77.599,485.600 78.383,484.883 79.166,484.166 79.949,483.450 80.733,482.733 81.516,482.016 82.299,481.300 83.083,480.583 83.866,479.866 84.649,479.150 85.433,478.433 86.216,477.716 86.999,477.000 87.783,476.283 88.566,475.566 89.349,474.850 90.133,474.133 90.916,473.416 91.699,472.700 92.483,471.983 93.266,471.266 94.049,470.550 94.833,469.833 95.616,469.116 96.399,468.400 97.183,467.683 97.966,466.966 98.749,466.250 99.533,465.533 100.316,464.816 101.099,464.100 101.883,463.383 102.666,462.666 103.449,461.950 104.233,461.233 105.016,460.516 105.799,459.800 106.583,459.083 107.366,458.366 108.149,457.650 108.933,456.933 109.716,456.216 110.499,455.500 111.283,454.783 112.066,454.066 112.849,453.350 113.633,452.633 114.416,451.916 115.199,451.200 115.983,450.483 116.766,449.766 117.549,449.050 118.333,448.333 119.116,447.616 119.899,446.900 120.683,446.183 121.466,445.466 122.249,444.750 123.033,444.033 123.816,443.316 124.599,442.600 125.383,441.883 126.166,441.166 126.949,440.450 127.733,439.733 128.516,439.016 129.299,438.300 130.083,437.583 130.866,436.866 131.649,436.150 132.433,435.433 133.216,434.716 133.999,434.000 134.783,433.283 135.566,432.566 136.349,431.850 137.133,431.133 137.916,430.416 138.699,429.700 139.483,428.983 140.266,428.266 141.049,427.550 141.833,426.833 142.616,426.116 143.399,425.400 144.183,424.683 144.966,423.966 145.749,423.250 146.533,422.533 147.316,421.816 148.099,421.100 148.883,420.383 149.666,419.666 150.449,418.950 151.233,418.233 152.016,417.516 152.799,416.800 153.583,416.083 154.366,415.366 155.149,414.650 155.933,413.933 156.716,413.216 157.499,412.500 158.283,411.783 159.066,411.066 159.849,410.350 160.633,409.633 161.416,408.916 162.199,408.200 162.983,407.483 163.766,406.766 164.549,406.050 165.333,405.333 166.116,404.616 166.899,403.900 167.683,403.183 168.466,402.466 169.249,401.750 170.033,401.033 170.816,400.316 171.599,399.600 172.383,398.883 173.166,398.166 173.949,397.450 174.733,396.733 175.516,396.016 176.299,395.300 177.083,394.583 177.866,393.866 178.649,393.150 179.433,392.433 180.216,391.716 180.999,391.000 181.783,390.283 182.566,389.566 183.349,388.850 184.133,388.133 184.916,387.416 185.699,386.700 186.483,385.983 187.266,385.266 188.049,384.550 188.833,383.833 189.616,383.116 190.399,382.400 191.183,381.683 191.966,380.966 192.749,380.250 193.533,379.533 194.316,378.816 195.099,378.100 195.883,377.383 196.666,376.666 197.449,375.950 198.233,375.233 199.016,374.516 199.799,373.800 200.583,373.083 201.366,372.366 202.149,371.650 202.933,370.933 203.716,370.216 204.499,369.500 205.283,368.783 206.066,368.066 206.849,367.350 207.633,366.633 208.416,365.916 209.199,365.200 209.983,364.483 210.766,363.766 211.549,363.050 212.333,362.333 213.116,361.616 213.899,360.900 214.683,360.183 215.466,359.466 216.249,358.750 217.033,358.033 217.816,357.316 218.599,356.600 219.383,355.883 220.166,355.166 220.949,354.450 221.733,353.733 222.516,353.016 223.299,352.300 224.083,351.583 224.866,350.866 225.649,350.150 226.433,349.433 227.216,348.716 227.999,348.000 228.783,347.283 229.566,346.566 230.349,345.850 231.133,345.133 231.916,344.416 232.699,343.700 233.483,342.983 234.266,342.266 235.049,341.550 235.833,340.833 236.616,340.116 237.399,339.400 238.183,338.683 238.966,337.966 239.749,337.250 240.533,336.533 241.316,335.816 242.099,335.100 242.883,334.383 243.666,333.666 244.449,332.950 245.233,332.233 246.016,331.516 246.799,330.800 247.583,330.083 248.366,329.366 249.149,328.650 249.933,327.933 250.716,327.216 251.499,326.500 252.283,325.783 253.066,325.066 253.849,324.350 254.633,323.633 255.416,322.916 256.199,322.200 256.983,321.483 257.766,320.766 258.549,320.050 259.333,319.333 260.116,318.616 260.899,317.900 261.683,317.183 262.466,316.466 263.249,315.750 264.033,315.033 264.816,314.316 265.599,313.600 266.383,312.883 267.166,312.166 267.949,311.450 268.733,310.733 269.516,310.016 270.299,309.300 271.083,308.583 271.866,307.866 272.649,307.150 273.433,306.433 274.216,305.716 274.999,305.000 275.783,304.283 276.566,303.566 277.349,302.850 278.133,302.133 278.916,301.416 279.699,300.700 280.483,299.983 281.266,299.266 282.049,298.550 282.833,297.833 283.616,297.116 284.399,296.400 285.183,295.683 285.966,294.966 286.749,294.250 287.533,293.533 288.316,292.816 289.099,292.100 289.883,291.383 290.666,290.666 291.449,289.950 292.233,289.233 293.016,288.516 293.799,287.800 294.583,287.083 295.366,286.366 296.149,285.650 296.933,284.933 297.716,284.216 298.499,283.500 299.283,282.783 300.066,282.066 300.849,281.350 301.633,280.633 302.416,279.916 303.199,279.200 303.983,278.483 304.766,277.766 305.549,277.050 306.333,276.333 307.116,275.616 307.899,274.900 308.683,274.183 309.466,273.466 310.249,272.750 311.033,272.033 311.816,271.316 312.599,270.600 313.383,269.883 314.166,269.166 314.949,268.450 315.733,267.733 316.516,267.016 317.299,266.300 318.083,265.583 318.866,264.866 319.649,264.150 320.433,263.433 321.216,262.716 321.999,262.000 322.783,261.283 323.566,260.566 324.349,259.850 325.133,259.133 325.916,258.416 326.699,257.700 327.483,256.983 328.266,256.266 329.049,255.550 329.833,254.833 330.616,254.116 331.399,253.400 332.183,252.683 332.966,251.966 333.749,251.250 334.533,250.533 335.316,249.816 336.099,249.100 336.883,248.383 337.666,247.666 338.449,246.950 339.233,246.233 340.016,245.516 340.799,244.800 341.583,244.083 342.366,243.366 343.149,242.650 343.933,241.933 344.716,241.216 345.499,240.500 346.283,239.783 347.066,239.066 347.849,238.350 348.633,237.633 349.416,236.916 350.199,236.200 350.983,235.483 351.766,234.766 352.549,234.050 353.333,233.333 354.116,232.616 354.899,231.900 355.683,231.183 356.466,230.466 357.249,229.750 358.033,229.033 358.816,228.316 359.599,227.600 360.382,226.883 361.166,226.166 361.949,225.450 362.732,224.733 363.516,224.016 364.299,223.300 365.082,222.583 365.866,221.866 366.649,221.150 367.432,220.433 368.216,219.716 368.999,219.000 369.782,218.283 370.566,217.566 371.349,216.850 372.132,216.133 372.916,215.416 373.699,214.700 374.482,213.983 375.266,213.266 376.049,212.550 376.832,211.833 377.616,211.116 378.399,210.400 379.182,209.683 379.966,208.966 380.749,208.250 381.532,207.533 382.316,206.816 383.099,206.100 383.882,205.383 384.666,204.666 385.449,203.950 386.232,203.233 387.016,202.516 387.799,201.800 388.582,201.083 389.366,200.366 390.149,199.650 390.932,198.933 391.716,198.217 392.499,197.500 393.282,196.783 394.066,196.067 394.849,195.350 395.632,194.633 396.416,193.917 397.199,193.200 397.982,192.483 398.766,191.767 399.549,191.050 400.332,190.333 401.116,189.617 401.899,188.900 402.682,188.183 403.466,187.467 404.249,186.750 405.032,186.033 405.816,185.317 406.599,184.600 407.382,183.883 408.166,183.167 408.949,182.450 409.732,181.733 410.516,181.017 411.299,180.300 412.082,179.583 412.866,178.867 413.649,178.150 414.432,177.433 415.216,176.717 415.999,176.000 416.782,175.283 417.566,174.567 418.349,173.850 419.132,173.133 419.916,172.417 420.699,171.700 421.482,170.983 422.266,170.267 423.049,169.550 423.832,168.833 424.616,168.117 425.399,167.400 426.182,166.683 426.966,165.967 427.749,165.250 428.532,164.533 429.316,163.817 430.099,163.100 430.882,162.383 431.666,161.667 432.449,160.950 433.232,160.233 434.016,159.517 434.799,158.800 435.582,158.083 436.366,157.367 437.149,156.650 437.932,155.933 438.716,155.217 439.499,154.500 440.282,153.783 441.066,153.067 441.849,152.350 442.632,151.633 443.416,150.917 444.199,150.200 444.982,149.483 445.766,148.767 446.549,148.050 447.332,147.333 448.116,146.617 448.899,145.900 449.682,145.183 450.466,144.467 451.249,143.750 452.032,143.033 452.816,142.317 453.599,141.600 454.382,140.883 455.166,140.167 455.949,139.450 456.732,138.733 457.516,138.017 458.299,137.300 459.082,136.583 459.866,135.867 460.649,135.150 461.432,134.433 462.216,133.717 462.999,133.000 463.782,132.283 464.566,131.567 465.349,130.850 466.132,130.133 466.916,129.417 467.699,128.700 468.482,127.983 469.266,127.267 470.049,126.550 470.832,125.833 471.616,125.117 472.399,124.400 473.182,123.683 473.966,122.967 474.749,122.250 475.532,121.533 476.316,120.817 477.099,120.100 477.882,119.383 478.666,118.667 479.449,117.950 480.232,117.233 481.016,116.517 481.799,115.800 482.582,115.083 483.366,114.367 484.149,113.650 484.932,112.933 485.716,112.217 486.499,111.500 487.282,110.783 488.066,110.067 488.849,109.350 489.632,108.633 490.416,107.917 491.199,107.200 491.982,106.483 492.766,105.767 493.549,105.050 494.332,104.333 495.116,103.617 495.899,102.900 496.682,102.183 497.466,101.467 498.249,100.750 499.032,100.033 499.816,99.317 500.599,98.600 501.382,97.883 502.166,97.167 502.949,96.450 503.732,95.733 504.516,95.017 505.299,94.300 506.082,93.583 506.866,92.867 507.649,92.150 508.432,91.433 509.216,90.717 509.999,90.000 " stroke-width="5" stroke="black" fill="none"></path><path d="M 502.483 87.118 L 523.280 77.850 L 512.203 97.742 L 509.999 90.000 z" stroke-width="1" stroke="black" fill="black"></path><circle id="undefined" cx="25.9" cy="532.9" r="7.5" stroke-width="5" stroke="black" fill="black"></circle><path id="null" d="M25.9,120.099 26.683,120.816 27.466,121.533 28.249,122.249 29.033,122.966 29.816,123.683 30.599,124.399 31.383,125.116 32.166,125.833 32.949,126.549 33.733,127.266 34.516,127.983 35.299,128.699 36.083,129.416 36.866,130.133 37.649,130.849 38.433,131.566 39.216,132.283 39.999,132.999 40.783,133.716 41.566,134.433 42.349,135.149 43.133,135.866 43.916,136.583 44.699,137.299 45.483,138.016 46.266,138.733 47.049,139.449 47.833,140.166 48.616,140.883 49.399,141.599 50.183,142.316 50.966,143.033 51.749,143.749 52.533,144.466 53.316,145.183 54.099,145.899 54.883,146.616 55.666,147.333 56.449,148.049 57.233,148.766 58.016,149.483 58.799,150.199 59.583,150.916 60.366,151.633 61.149,152.349 61.933,153.066 62.716,153.783 63.499,154.499 64.283,155.216 65.066,155.933 65.849,156.649 66.633,157.366 67.416,158.083 68.199,158.799 68.983,159.516 69.766,160.233 70.549,160.949 71.333,161.666 72.116,162.383 72.899,163.099 73.683,163.816 74.466,164.533 75.249,165.249 76.033,165.966 76.816,166.683 77.599,167.399 78.383,168.116 79.166,168.833 79.949,169.549 80.733,170.266 81.516,170.983 82.299,171.699 83.083,172.416 83.866,173.133 84.649,173.849 85.433,174.566 86.216,175.283 86.999,175.999 87.783,176.716 88.566,177.433 89.349,178.149 90.133,178.866 90.916,179.583 91.699,180.299 92.483,181.016 93.266,181.733 94.049,182.449 94.833,183.166 95.616,183.883 96.399,184.599 97.183,185.316 97.966,186.033 98.749,186.749 99.533,187.466 100.316,188.183 101.099,188.899 101.883,189.616 102.666,190.333 103.449,191.049 104.233,191.766 105.016,192.483 105.799,193.199 106.583,193.916 107.366,194.633 108.149,195.349 108.933,196.066 109.716,196.783 110.499,197.499 111.283,198.216 112.066,198.933 112.849,199.649 113.633,200.366 114.416,201.083 115.199,201.799 115.983,202.516 116.766,203.233 117.549,203.949 118.333,204.666 119.116,205.383 119.899,206.099 120.683,206.816 121.466,207.533 122.249,208.249 123.033,208.966 123.816,209.683 124.599,210.399 125.383,211.116 126.166,211.833 126.949,212.549 127.733,213.266 128.516,213.983 129.299,214.699 130.083,215.416 130.866,216.133 131.649,216.849 132.433,217.566 133.216,218.283 133.999,218.999 134.783,219.716 135.566,220.433 136.349,221.149 137.133,221.866 137.916,222.583 138.699,223.299 139.483,224.016 140.266,224.733 141.049,225.449 141.833,226.166 142.616,226.883 143.399,227.599 144.183,228.316 144.966,229.033 145.749,229.749 146.533,230.466 147.316,231.183 148.099,231.899 148.883,232.616 149.666,233.333 150.449,234.049 151.233,234.766 152.016,235.483 152.799,236.199 153.583,236.916 154.366,237.633 155.149,238.349 155.933,239.066 156.716,239.783 157.499,240.499 158.283,241.216 159.066,241.933 159.849,242.649 160.633,243.366 161.416,244.083 162.199,244.799 162.983,245.516 163.766,246.233 164.549,246.949 165.333,247.666 166.116,248.383 166.899,249.099 167.683,249.816 168.466,250.533 169.249,251.249 170.033,251.966 170.816,252.683 171.599,253.399 172.383,254.116 173.166,254.833 173.949,255.549 174.733,256.266 175.516,256.983 176.299,257.699 177.083,258.416 177.866,259.133 178.649,259.849 179.433,260.566 180.216,261.283 180.999,261.999 181.783,262.716 182.566,263.433 183.349,264.149 184.133,264.866 184.916,265.583 185.699,266.299 186.483,267.016 187.266,267.733 188.049,268.449 188.833,269.166 189.616,269.883 190.399,270.599 191.183,271.316 191.966,272.033 192.749,272.749 193.533,273.466 194.316,274.183 195.099,274.899 195.883,275.616 196.666,276.333 197.449,277.049 198.233,277.766 199.016,278.483 199.799,279.199 200.583,279.916 201.366,280.633 202.149,281.349 202.933,282.066 203.716,282.783 204.499,283.499 205.283,284.216 206.066,284.933 206.849,285.649 207.633,286.366 208.416,287.083 209.199,287.799 209.983,288.516 210.766,289.233 211.549,289.949 212.333,290.666 213.116,291.383 213.899,292.099 214.683,292.816 215.466,293.533 216.249,294.249 217.033,294.966 217.816,295.683 218.599,296.399 219.383,297.116 220.166,297.833 220.949,298.549 221.733,299.266 222.516,299.983 223.299,300.699 224.083,301.416 224.866,302.133 225.649,302.849 226.433,303.566 227.216,304.283 227.999,304.999 228.783,305.716 229.566,306.433 230.349,307.149 231.133,307.866 231.916,308.583 232.699,309.299 233.483,310.016 234.266,310.733 235.049,311.449 235.833,312.166 236.616,312.883 237.399,313.599 238.183,314.316 238.966,315.033 239.749,315.749 240.533,316.466 241.316,317.183 242.099,317.899 242.883,318.616 243.666,319.333 244.449,320.049 245.233,320.766 246.016,321.483 246.799,322.199 247.583,322.916 248.366,323.633 249.149,324.349 249.933,325.066 250.716,325.783 251.499,326.499 252.283,327.216 253.066,327.933 253.849,328.649 254.633,329.366 255.416,330.083 256.199,330.799 256.983,331.516 257.766,332.233 258.549,332.949 259.333,333.666 260.116,334.383 260.899,335.099 261.683,335.816 262.466,336.533 263.249,337.249 264.033,337.966 264.816,338.683 265.599,339.399 266.383,340.116 267.166,340.833 267.949,341.549 268.733,342.266 269.516,342.983 270.299,343.699 271.083,344.416 271.866,345.133 272.649,345.849 273.433,346.566 274.216,347.283 274.999,347.999 275.783,348.716 276.566,349.433 277.349,350.149 278.133,350.866 278.916,351.583 279.699,352.299 280.483,353.016 281.266,353.733 282.049,354.449 282.833,355.166 283.616,355.883 284.399,356.599 285.183,357.316 285.966,358.033 286.749,358.749 287.533,359.466 288.316,360.183 289.099,360.899 289.883,361.616 290.666,362.333 291.449,363.049 292.233,363.766 293.016,364.483 293.799,365.199 294.583,365.916 295.366,366.633 296.149,367.349 296.933,368.066 297.716,368.783 298.499,369.499 299.283,370.216 300.066,370.933 300.849,371.649 301.633,372.366 302.416,373.083 303.199,373.799 303.983,374.516 304.766,375.233 305.549,375.949 306.333,376.666 307.116,377.383 307.899,378.099 308.683,378.816 309.466,379.533 310.249,380.249 311.033,380.966 311.816,381.683 312.599,382.399 313.383,383.116 314.166,383.833 314.949,384.549 315.733,385.266 316.516,385.983 317.299,386.699 318.083,387.416 318.866,388.133 319.649,388.849 320.433,389.566 321.216,390.283 321.999,390.999 322.783,391.716 323.566,392.433 324.349,393.149 325.133,393.866 325.916,394.583 326.699,395.299 327.483,396.016 328.266,396.733 329.049,397.449 329.833,398.166 330.616,398.883 331.399,399.599 332.183,400.316 332.966,401.033 333.749,401.749 334.533,402.466 335.316,403.183 336.099,403.899 336.883,404.616 337.666,405.333 338.449,406.049 339.233,406.766 340.016,407.483 340.799,408.199 341.583,408.916 342.366,409.633 343.149,410.349 343.933,411.066 344.716,411.783 345.499,412.499 346.283,413.216 347.066,413.933 347.849,414.649 348.633,415.366 349.416,416.083 350.199,416.799 350.983,417.516 351.766,418.233 352.549,418.949 353.333,419.666 354.116,420.383 354.899,421.099 355.683,421.816 356.466,422.533 357.249,423.249 358.033,423.966 358.816,424.683 359.599,425.399 360.382,426.116 361.166,426.833 361.949,427.549 362.732,428.266 363.516,428.983 364.299,429.699 365.082,430.416 365.866,431.133 366.649,431.849 367.432,432.566 368.216,433.283 368.999,433.999 369.782,434.716 370.566,435.433 371.349,436.149 372.132,436.866 372.916,437.583 373.699,438.299 374.482,439.016 375.266,439.733 376.049,440.449 376.832,441.166 377.616,441.883 378.399,442.599 379.182,443.316 379.966,444.033 380.749,444.749 381.532,445.466 382.316,446.183 383.099,446.899 383.882,447.616 384.666,448.333 385.449,449.049 386.232,449.766 387.016,450.483 387.799,451.199 388.582,451.916 389.366,452.633 390.149,453.349 390.932,454.066 391.716,454.782 392.499,455.499 393.282,456.216 394.066,456.932 394.849,457.649 395.632,458.366 396.416,459.082 397.199,459.799 397.982,460.516 398.766,461.232 399.549,461.949 400.332,462.666 401.116,463.382 401.899,464.099 402.682,464.816 403.466,465.532 404.249,466.249 405.032,466.966 405.816,467.682 406.599,468.399 407.382,469.116 408.166,469.832 408.949,470.549 409.732,471.266 410.516,471.982 411.299,472.699 412.082,473.416 412.866,474.132 413.649,474.849 414.432,475.566 415.216,476.282 415.999,476.999 416.782,477.716 417.566,478.432 418.349,479.149 419.132,479.866 419.916,480.582 420.699,481.299 421.482,482.016 422.266,482.732 423.049,483.449 423.832,484.166 424.616,484.882 425.399,485.599 426.182,486.316 426.966,487.032 427.749,487.749 428.532,488.466 429.316,489.182 430.099,489.899 430.882,490.616 431.666,491.332 432.449,492.049 433.232,492.766 434.016,493.482 434.799,494.199 435.582,494.916 436.366,495.632 437.149,496.349 437.932,497.066 438.716,497.782 439.499,498.499 440.282,499.216 441.066,499.932 441.849,500.649 442.632,501.366 443.416,502.082 444.199,502.799 444.982,503.516 445.766,504.232 446.549,504.949 447.332,505.666 448.116,506.382 448.899,507.099 449.682,507.816 450.466,508.532 451.249,509.249 452.032,509.966 452.816,510.682 453.599,511.399 454.382,512.116 455.166,512.832 455.949,513.549 456.732,514.266 457.516,514.982 458.299,515.699 459.082,516.416 459.866,517.132 460.649,517.849 461.432,518.566 462.216,519.282 462.999,519.999 463.782,520.716 464.566,521.432 465.349,522.149 466.132,522.866 466.916,523.582 467.699,524.299 468.482,525.016 469.266,525.732 470.049,526.449 470.832,527.166 471.616,527.882 472.399,528.599 473.182,529.316 473.966,530.032 474.749,530.749 475.532,531.466 476.316,532.182 477.099,532.899 477.882,533.616 478.666,534.332 479.449,535.049 480.232,535.766 481.016,536.482 481.799,537.199 482.582,537.916 483.366,538.632 484.149,539.349 484.932,540.066 485.716,540.782 486.499,541.499 487.282,542.216 488.066,542.932 488.849,543.649 489.632,544.366 490.416,545.082 491.199,545.799 491.982,546.516 492.766,547.232 493.549,547.949 494.332,548.666 495.116,549.382 495.899,550.099 496.682,550.816 497.466,551.532 498.249,552.249 499.032,552.966 499.816,553.682 500.599,554.399 501.382,555.116 502.166,555.832 502.949,556.549 503.732,557.266 504.516,557.982 505.299,558.699 506.082,559.416 506.866,560.132 507.649,560.849 508.432,561.566 509.216,562.282 509.999,562.999 " stroke-width="5" stroke="black" fill="none"></path><path d="M 512.203 555.257 L 523.280 575.149 L 502.483 565.881 L 509.999 562.999 z" stroke-width="1" stroke="black" fill="black"></path><circle id="undefined" cx="25.9" cy="120.099" r="7.5" stroke-width="5" stroke="black" fill="black"></circle><path id="null" d="M25.9,434 26.683,434 27.466,434 28.249,434 29.033,434 29.816,434 30.599,434 31.383,434 32.166,434 32.949,434 33.733,434 34.516,434 35.299,434 36.083,434 36.866,434 37.649,434 38.433,434 39.216,434 39.999,434 40.783,434 41.566,434 42.349,434 43.133,434 43.916,434 44.699,434 45.483,434 46.266,434 47.049,434 47.833,434 48.616,434 49.399,434 50.183,434 50.966,434 51.749,434 52.533,434 53.316,434 54.099,434 54.883,434 55.666,434 56.449,434 57.233,434 58.016,434 58.799,434 59.583,434 60.366,434 61.149,434 61.933,434 62.716,434 63.499,434 64.283,434 65.066,434 65.849,434 66.633,434 67.416,434 68.199,434 68.983,434 69.766,434 70.549,434 71.333,434 72.116,434 72.899,434 73.683,434 74.466,434 75.249,434 76.033,434 76.816,434 77.599,434 78.383,434 79.166,434 79.949,434 80.733,434 81.516,434 82.299,434 83.083,434 83.866,434 84.649,434 85.433,434 86.216,434 86.999,434 87.783,434 88.566,434 89.349,434 90.133,434 90.916,434 91.699,434 92.483,434 93.266,434 94.049,434 94.833,434 95.616,434 96.399,434 97.183,434 97.966,434 98.749,434 99.533,434 100.316,434 101.099,434 101.883,434 102.666,434 103.449,434 104.233,434 105.016,434 105.799,434 106.583,434 107.366,434 108.149,434 108.933,434 109.716,434 110.499,434 111.283,434 112.066,434 112.849,434 113.633,434 114.416,434 115.199,434 115.983,434 116.766,434 117.549,434 118.333,434 119.116,434 119.899,434 120.683,434 121.466,434 122.249,434 123.033,434 123.816,434 124.599,434 125.383,434 126.166,434 126.949,434 127.733,434 128.516,434 129.299,434 130.083,434 130.866,434 131.649,434 132.433,434 133.216,434 133.999,434 134.783,434 135.566,434 136.349,434 137.133,434 137.916,434 138.699,434 139.483,434 140.266,434 141.049,434 141.833,434 142.616,434 143.399,434 144.183,434 144.966,434 145.749,434 146.533,434 147.316,434 148.099,434 148.883,434 149.666,434 150.449,434 151.233,434 152.016,434 152.799,434 153.583,434 154.366,434 155.149,434 155.933,434 156.716,434 157.499,434 158.283,434 159.066,434 159.849,434 160.633,434 161.416,434 162.199,434 162.983,434 163.766,434 164.549,434 165.333,434 166.116,434 166.899,434 167.683,434 168.466,434 169.249,434 170.033,434 170.816,434 171.599,434 172.383,434 173.166,434 173.949,434 174.733,434 175.516,434 176.299,434 177.083,434 177.866,434 178.649,434 179.433,434 180.216,434 180.999,434 181.783,434 182.566,434 183.349,434 184.133,434 184.916,434 185.699,434 186.483,434 187.266,434 188.049,434 188.833,434 189.616,434 190.399,434 191.183,434 191.966,434 192.749,434 193.533,434 194.316,434 195.099,434 195.883,434 196.666,434 197.449,434 198.233,434 199.016,434 199.799,434 200.583,434 201.366,434 202.149,434 202.933,434 203.716,434 204.499,434 205.283,434 206.066,434 206.849,434 207.633,434 208.416,434 209.199,434 209.983,434 210.766,434 211.549,434 212.333,434 213.116,434 213.899,434 214.683,434 215.466,434 216.249,434 217.033,434 217.816,434 218.599,434 219.383,434 220.166,434 220.949,434 221.733,434 222.516,434 223.299,434 224.083,434 224.866,434 225.649,434 226.433,434 227.216,434 227.999,434 228.783,434 229.566,434 230.349,434 231.133,434 231.916,434 232.699,434 233.483,434 234.266,434 235.049,434 235.833,434 236.616,434 237.399,434 238.183,434 238.966,434 239.749,434 240.533,434 241.316,434 242.099,434 242.883,434 243.666,434 244.449,434 245.233,434 246.016,434 246.799,434 247.583,434 248.366,434 249.149,434 249.933,434 250.716,434 251.499,434 252.283,434 253.066,434 253.849,434 254.633,434 255.416,434 256.199,434 256.983,434 257.766,434 258.549,434 259.333,434 260.116,434 260.899,434 261.683,434 262.466,434 263.249,434 264.033,434 264.816,434 265.599,434 266.383,434 267.166,434 267.949,434 268.733,434 269.516,434 270.299,434 271.083,434 271.866,434 272.649,434 273.433,434 274.216,434 274.999,434 275.783,434 276.566,434 277.349,434 278.133,434 278.916,434 279.699,434 280.483,434 281.266,434 282.049,434 282.833,434 283.616,434 284.399,434 285.183,434 285.966,434 286.749,434 287.533,434 288.316,434 289.099,434 289.883,434 290.666,434 291.449,434 292.233,434 293.016,434 293.799,434 294.583,434 295.366,434 296.149,434 296.933,434 297.716,434 298.499,434 299.283,434 300.066,434 300.849,434 301.633,434 302.416,434 303.199,434 303.983,434 304.766,434 305.549,434 306.333,434 307.116,434 307.899,434 308.683,434 309.466,434 310.249,434 311.033,434 311.816,434 312.599,434 313.383,434 314.166,434 314.949,434 315.733,434 316.516,434 317.299,434 318.083,434 318.866,434 319.649,434 320.433,434 321.216,434 321.999,434 322.783,434 323.566,434 324.349,434 325.133,434 325.916,434 326.699,434 327.483,434 328.266,434 329.049,434 329.833,434 330.616,434 331.399,434 332.183,434 332.966,434 333.749,434 334.533,434 335.316,434 336.099,434 336.883,434 337.666,434 338.449,434 339.233,434 340.016,434 340.799,434 341.583,434 342.366,434 343.149,434 343.933,434 344.716,434 345.499,434 346.283,434 347.066,434 347.849,434 348.633,434 349.416,434 350.199,434 350.983,434 351.766,434 352.549,434 353.333,434 354.116,434 354.899,434 355.683,434 356.466,434 357.249,434 358.033,434 358.816,434 359.599,434 360.382,434 361.166,434 361.949,434 362.732,434 363.516,434 364.299,434 365.082,434 365.866,434 366.649,434 367.432,434 368.216,434 368.999,434 369.782,434 370.566,434 371.349,434 372.132,434 372.916,434 373.699,434 374.482,434 375.266,434 376.049,434 376.832,434 377.616,434 378.399,434 379.182,434 379.966,434 380.749,434 381.532,434 382.316,434 383.099,434 383.882,434 384.666,434 385.449,434 386.232,434 387.016,434 387.799,434 388.582,434 389.366,434 390.149,434 390.932,434 391.716,434 392.499,434 393.282,434 394.066,434 394.849,434 395.632,434 396.416,434 397.199,434 397.982,434 398.766,434 399.549,434 400.332,434 401.116,434 401.899,434 402.682,434 403.466,434 404.249,434 405.032,434 405.816,434 406.599,434 407.382,434 408.166,434 408.949,434 409.732,434 410.516,434 411.299,434 412.082,434 412.866,434 413.649,434 414.432,434 415.216,434 415.999,434 416.782,434 417.566,434 418.349,434 419.132,434 419.916,434 420.699,434 421.482,434 422.266,434 423.049,434 423.832,434 424.616,434 425.399,434 426.182,434 426.966,434 427.749,434 428.532,434 429.316,434 430.099,434 430.882,434 431.666,434 432.449,434 433.232,434 434.016,434 434.799,434 435.582,434 436.366,434 437.149,434 437.932,434 438.716,434 439.499,434 440.282,434 441.066,434 441.849,434 442.632,434 443.416,434 444.199,434 444.982,434 445.766,434 446.549,434 447.332,434 448.116,434 448.899,434 449.682,434 450.466,434 451.249,434 452.032,434 452.816,434 453.599,434 454.382,434 455.166,434 455.949,434 456.732,434 457.516,434 458.299,434 459.082,434 459.866,434 460.649,434 461.432,434 462.216,434 462.999,434 463.782,434 464.566,434 465.349,434 466.132,434 466.916,434 467.699,434 468.482,434 469.266,434 470.049,434 470.832,434 471.616,434 472.399,434 473.182,434 473.966,434 474.749,434 475.532,434 476.316,434 477.099,434 477.882,434 478.666,434 479.449,434 480.232,434 481.016,434 481.799,434 482.582,434 483.366,434 484.149,434 484.932,434 485.716,434 486.499,434 487.282,434 488.066,434 488.849,434 489.632,434 490.416,434 491.199,434 491.982,434 492.766,434 493.549,434 494.332,434 495.116,434 495.899,434 496.682,434 497.466,434 498.249,434 499.032,434 499.816,434 500.599,434 501.382,434 502.166,434 502.949,434 503.732,434 504.516,434 505.299,434 506.082,434 506.866,434 507.649,434 508.432,434 509.216,434 509.999,434 510.782,434 511.566,434 512.349,434 513.132,434 513.916,434 514.699,434 515.482,434 516.266,434 517.049,434 517.832,434 518.616,434 519.399,434 520.182,434 520.966,434 521.749,434 522.532,434 523.316,434 524.099,434 " stroke-width="5" stroke="black" fill="none"></path><path id="null" d="M25.9,391 26.683,391 27.466,391 28.249,391 29.033,391 29.816,391 30.599,391 31.383,391 32.166,391 32.949,391 33.733,391 34.516,391 35.299,391 36.083,391 36.866,391 37.649,391 38.433,391 39.216,391 39.999,391 40.783,391 41.566,391 42.349,391 43.133,391 43.916,391 44.699,391 45.483,391 46.266,391 47.049,391 47.833,391 48.616,391 49.399,391 50.183,391 50.966,391 51.749,391 52.533,391 53.316,391 54.099,391 54.883,391 55.666,391 56.449,391 57.233,391 58.016,391 58.799,391 59.583,391 60.366,391 61.149,391 61.933,391 62.716,391 63.499,391 64.283,391 65.066,391 65.849,391 66.633,391 67.416,391 68.199,391 68.983,391 69.766,391 70.549,391 71.333,391 72.116,391 72.899,391 73.683,391 74.466,391 75.249,391 76.033,391 76.816,391 77.599,391 78.383,391 79.166,391 79.949,391 80.733,391 81.516,391 82.299,391 83.083,391 83.866,391 84.649,391 85.433,391 86.216,391 86.999,391 87.783,391 88.566,391 89.349,391 90.133,391 90.916,391 91.699,391 92.483,391 93.266,391 94.049,391 94.833,391 95.616,391 96.399,391 97.183,391 97.966,391 98.749,391 99.533,391 100.316,391 101.099,391 101.883,391 102.666,391 103.449,391 104.233,391 105.016,391 105.799,391 106.583,391 107.366,391 108.149,391 108.933,391 109.716,391 110.499,391 111.283,391 112.066,391 112.849,391 113.633,391 114.416,391 115.199,391 115.983,391 116.766,391 117.549,391 118.333,391 119.116,391 119.899,391 120.683,391 121.466,391 122.249,391 123.033,391 123.816,391 124.599,391 125.383,391 126.166,391 126.949,391 127.733,391 128.516,391 129.299,391 130.083,391 130.866,391 131.649,391 132.433,391 133.216,391 133.999,391 134.783,391 135.566,391 136.349,391 137.133,391 137.916,391 138.699,391 139.483,391 140.266,391 141.049,391 141.833,391 142.616,391 143.399,391 144.183,391 144.966,391 145.749,391 146.533,391 147.316,391 148.099,391 148.883,391 149.666,391 150.449,391 151.233,391 152.016,391 152.799,391 153.583,391 154.366,391 155.149,391 155.933,391 156.716,391 157.499,391 158.283,391 159.066,391 159.849,391 160.633,391 161.416,391 162.199,391 162.983,391 163.766,391 164.549,391 165.333,391 166.116,391 166.899,391 167.683,391 168.466,391 169.249,391 170.033,391 170.816,391 171.599,391 172.383,391 173.166,391 173.949,391 174.733,391 175.516,391 176.299,391 177.083,391 177.866,391 178.649,391 179.433,391 180.216,391 180.999,391 181.783,391 182.566,391 183.349,391 184.133,391 184.916,391 185.699,391 186.483,391 187.266,391 188.049,391 188.833,391 189.616,391 190.399,391 191.183,391 191.966,391 192.749,391 193.533,391 194.316,391 195.099,391 195.883,391 196.666,391 197.449,391 198.233,391 199.016,391 199.799,391 200.583,391 201.366,391 202.149,391 202.933,391 203.716,391 204.499,391 205.283,391 206.066,391 206.849,391 207.633,391 208.416,391 209.199,391 209.983,391 210.766,391 211.549,391 212.333,391 213.116,391 213.899,391 214.683,391 215.466,391 216.249,391 217.033,391 217.816,391 218.599,391 219.383,391 220.166,391 220.949,391 221.733,391 222.516,391 223.299,391 224.083,391 224.866,391 225.649,391 226.433,391 227.216,391 227.999,391 228.783,391 229.566,391 230.349,391 231.133,391 231.916,391 232.699,391 233.483,391 234.266,391 235.049,391 235.833,391 236.616,391 237.399,391 238.183,391 238.966,391 239.749,391 240.533,391 241.316,391 242.099,391 242.883,391 243.666,391 244.449,391 245.233,391 246.016,391 246.799,391 247.583,391 248.366,391 249.149,391 249.933,391 250.716,391 251.499,391 252.283,391 253.066,391 253.849,391 254.633,391 255.416,391 256.199,391 256.983,391 257.766,391 258.549,391 259.333,391 260.116,391 260.899,391 261.683,391 262.466,391 263.249,391 264.033,391 264.816,391 265.599,391 266.383,391 267.166,391 267.949,391 268.733,391 269.516,391 270.299,391 271.083,391 271.866,391 272.649,391 273.433,391 274.216,391 274.999,391 275.783,391 276.566,391 277.349,391 278.133,391 278.916,391 279.699,391 280.483,391 281.266,391 282.049,391 282.833,391 283.616,391 284.399,391 285.183,391 285.966,391 286.749,391 287.533,391 288.316,391 289.099,391 289.883,391 290.666,391 291.449,391 292.233,391 293.016,391 293.799,391 294.583,391 295.366,391 296.149,391 296.933,391 297.716,391 298.499,391 299.283,391 300.066,391 300.849,391 301.633,391 302.416,391 303.199,391 303.983,391 304.766,391 305.549,391 306.333,391 307.116,391 307.899,391 308.683,391 309.466,391 310.249,391 311.033,391 311.816,391 312.599,391 313.383,391 314.166,391 314.949,391 315.733,391 316.516,391 317.299,391 318.083,391 318.866,391 319.649,391 320.433,391 321.216,391 321.999,391 322.783,391 323.566,391 324.349,391 325.133,391 325.916,391 326.699,391 327.483,391 328.266,391 329.049,391 329.833,391 330.616,391 331.399,391 332.183,391 332.966,391 333.749,391 334.533,391 335.316,391 336.099,391 336.883,391 337.666,391 338.449,391 339.233,391 340.016,391 340.799,391 341.583,391 342.366,391 343.149,391 343.933,391 344.716,391 345.499,391 346.283,391 347.066,391 347.849,391 348.633,391 349.416,391 350.199,391 350.983,391 351.766,391 352.549,391 353.333,391 354.116,391 354.899,391 355.683,391 356.466,391 357.249,391 358.033,391 358.816,391 359.599,391 360.382,391 361.166,391 361.949,391 362.732,391 363.516,391 364.299,391 365.082,391 365.866,391 366.649,391 367.432,391 368.216,391 368.999,391 369.782,391 370.566,391 371.349,391 372.132,391 372.916,391 373.699,391 374.482,391 375.266,391 376.049,391 376.832,391 377.616,391 378.399,391 379.182,391 379.966,391 380.749,391 381.532,391 382.316,391 383.099,391 383.882,391 384.666,391 385.449,391 386.232,391 387.016,391 387.799,391 388.582,391 389.366,391 390.149,391 390.932,391 391.716,391 392.499,391 393.282,391 394.066,391 394.849,391 395.632,391 396.416,391 397.199,391 397.982,391 398.766,391 399.549,391 400.332,391 401.116,391 401.899,391 402.682,391 403.466,391 404.249,391 405.032,391 405.816,391 406.599,391 407.382,391 408.166,391 408.949,391 409.732,391 410.516,391 411.299,391 412.082,391 412.866,391 413.649,391 414.432,391 415.216,391 415.999,391 416.782,391 417.566,391 418.349,391 419.132,391 419.916,391 420.699,391 421.482,391 422.266,391 423.049,391 423.832,391 424.616,391 425.399,391 426.182,391 426.966,391 427.749,391 428.532,391 429.316,391 430.099,391 430.882,391 431.666,391 432.449,391 433.232,391 434.016,391 434.799,391 435.582,391 436.366,391 437.149,391 437.932,391 438.716,391 439.499,391 440.282,391 441.066,391 441.849,391 442.632,391 443.416,391 444.199,391 444.982,391 445.766,391 446.549,391 447.332,391 448.116,391 448.899,391 449.682,391 450.466,391 451.249,391 452.032,391 452.816,391 453.599,391 454.382,391 455.166,391 455.949,391 456.732,391 457.516,391 458.299,391 459.082,391 459.866,391 460.649,391 461.432,391 462.216,391 462.999,391 463.782,391 464.566,391 465.349,391 466.132,391 466.916,391 467.699,391 468.482,391 469.266,391 470.049,391 470.832,391 471.616,391 472.399,391 473.182,391 473.966,391 474.749,391 475.532,391 476.316,391 477.099,391 477.882,391 478.666,391 479.449,391 480.232,391 481.016,391 481.799,391 482.582,391 483.366,391 484.149,391 484.932,391 485.716,391 486.499,391 487.282,391 488.066,391 488.849,391 489.632,391 490.416,391 491.199,391 491.982,391 492.766,391 493.549,391 494.332,391 495.116,391 495.899,391 496.682,391 497.466,391 498.249,391 499.032,391 499.816,391 500.599,391 501.382,391 502.166,391 502.949,391 503.732,391 504.516,391 505.299,391 506.082,391 506.866,391 507.649,391 508.432,391 509.216,391 509.999,391 510.782,391 511.566,391 512.349,391 513.132,391 513.916,391 514.699,391 515.482,391 516.266,391 517.049,391 517.832,391 518.616,391 519.399,391 520.182,391 520.966,391 521.749,391 522.532,391 523.316,391 524.099,391 " stroke-width="5" stroke="black" fill="none"></path></svg>